<svg width="28" height="28" viewBox="0 0 28 28" fill="none" xmlns="http://www.w3.org/2000/svg">
<path d="M27.3334 14C27.3334 17.5362 25.9286 20.9276 23.4281 23.4281C20.9276 25.9285 17.5362 27.3333 14 27.3333C10.4638 27.3333 7.07242 25.9285 4.57193 23.4281C2.07144 20.9276 0.666687 17.5362 0.666687 14C0.666687 10.4637 2.07144 7.07235 4.57193 4.57187C7.07242 2.07138 10.4638 0.666626 14 0.666626C17.5362 0.666626 20.9276 2.07138 23.4281 4.57187C25.9286 7.07235 27.3334 10.4637 27.3334 14V14ZM12.6667 15.3333V19.3333C12.6667 19.6869 12.8072 20.0261 13.0572 20.2761C13.3073 20.5262 13.6464 20.6666 14 20.6666C14.3536 20.6666 14.6928 20.5262 14.9428 20.2761C15.1929 20.0261 15.3334 19.6869 15.3334 19.3333V15.3333C15.3334 14.9797 15.1929 14.6405 14.9428 14.3905C14.6928 14.1404 14.3536 14 14 14C13.6464 14 13.3073 14.1404 13.0572 14.3905C12.8072 14.6405 12.6667 14.9797 12.6667 15.3333ZM14 7.99996C13.4696 7.99996 12.9609 8.21067 12.5858 8.58575C12.2107 8.96082 12 9.46953 12 9.99996C12 10.5304 12.2107 11.0391 12.5858 11.4142C12.9609 11.7892 13.4696 12 14 12C14.5305 12 15.0392 11.7892 15.4142 11.4142C15.7893 11.0391 16 10.5304 16 9.99996C16 9.46953 15.7893 8.96082 15.4142 8.58575C15.0392 8.21067 14.5305 7.99996 14 7.99996Z" fill="#12644A"/>
</svg>
