<svg width="28" height="28" viewBox="0 0 28 28" fill="none" xmlns="http://www.w3.org/2000/svg">
<path d="M27.3333 14C27.3333 17.5362 25.9286 20.9276 23.4281 23.4281C20.9276 25.9286 17.5362 27.3334 14 27.3334C10.4638 27.3334 7.07238 25.9286 4.5719 23.4281C2.07141 20.9276 0.666656 17.5362 0.666656 14C0.666656 10.4638 2.07141 7.07242 4.5719 4.57193C7.07238 2.07144 10.4638 0.666687 14 0.666687C17.5362 0.666687 20.9276 2.07144 23.4281 4.57193C25.9286 7.07242 27.3333 10.4638 27.3333 14V14ZM12.6667 15.3334V19.3334C12.6667 19.687 12.8071 20.0261 13.0572 20.2762C13.3072 20.5262 13.6464 20.6667 14 20.6667C14.3536 20.6667 14.6928 20.5262 14.9428 20.2762C15.1928 20.0261 15.3333 19.687 15.3333 19.3334V15.3334C15.3333 14.9797 15.1928 14.6406 14.9428 14.3905C14.6928 14.1405 14.3536 14 14 14C13.6464 14 13.3072 14.1405 13.0572 14.3905C12.8071 14.6406 12.6667 14.9797 12.6667 15.3334ZM14 8.00002C13.4696 8.00002 12.9608 8.21073 12.5858 8.58581C12.2107 8.96088 12 9.46959 12 10C12 10.5305 12.2107 11.0392 12.5858 11.4142C12.9608 11.7893 13.4696 12 14 12C14.5304 12 15.0391 11.7893 15.4142 11.4142C15.7893 11.0392 16 10.5305 16 10C16 9.46959 15.7893 8.96088 15.4142 8.58581C15.0391 8.21073 14.5304 8.00002 14 8.00002Z" fill="#A2543D"/>
</svg>
