<svg width="118" height="64" viewBox="0 0 118 64" fill="none" xmlns="http://www.w3.org/2000/svg">
<rect width="118" height="64" fill="#131722"/>
<path d="M55.2575 33.8872C55.0477 34.1511 54.7974 34.388 54.5064 34.5977C54.2628 34.7737 53.9583 34.9361 53.5929 35.085C53.2274 35.2338 52.8011 35.3083 52.3139 35.3083C51.7793 35.3083 51.282 35.2135 50.8218 35.0241C50.3684 34.8346 49.9726 34.5741 49.6342 34.2425C49.3026 33.9109 49.0387 33.5252 48.8425 33.0853C48.653 32.6387 48.5583 32.1617 48.5583 31.6541C48.5583 31.1466 48.653 30.6729 48.8425 30.2331C49.0387 29.7865 49.3026 29.3974 49.6342 29.0658C49.9726 28.7342 50.3684 28.4737 50.8218 28.2842C51.282 28.0947 51.7793 28 52.3139 28C52.8011 28 53.2241 28.0711 53.5827 28.2132C53.9414 28.3553 54.2425 28.5109 54.4861 28.6801C54.7703 28.8831 55.0105 29.1132 55.2068 29.3703L54.4962 30.0808C54.3474 29.8846 54.168 29.7053 53.9583 29.5429C53.7756 29.4075 53.5489 29.2857 53.2782 29.1774C53.0075 29.0692 52.6861 29.015 52.3139 29.015C51.9485 29.015 51.6034 29.0827 51.2786 29.218C50.9605 29.3534 50.6797 29.5429 50.4361 29.7865C50.1992 30.0233 50.0132 30.3041 49.8778 30.6289C49.7425 30.947 49.6748 31.2887 49.6748 31.6541C49.6748 32.0195 49.7425 32.3647 49.8778 32.6895C50.0132 33.0075 50.1992 33.2883 50.4361 33.532C50.6797 33.7688 50.9605 33.9549 51.2786 34.0902C51.6034 34.2256 51.9485 34.2932 52.3139 34.2932C52.6861 34.2932 53.0109 34.2357 53.2883 34.1207C53.5658 33.9989 53.7959 33.8703 53.9786 33.735C54.2019 33.5726 54.3913 33.3865 54.547 33.1767L55.2575 33.8872Z" fill="white"/>
<path d="M59.8771 35.3083C59.3425 35.3083 58.8452 35.2135 58.385 35.0241C57.9316 34.8346 57.5358 34.5741 57.1974 34.2425C56.8658 33.9109 56.6019 33.5252 56.4057 33.0853C56.2162 32.6387 56.1215 32.1617 56.1215 31.6541C56.1215 31.1466 56.2162 30.6729 56.4057 30.2331C56.6019 29.7865 56.8658 29.3974 57.1974 29.0658C57.5358 28.7342 57.9316 28.4737 58.385 28.2842C58.8452 28.0947 59.3425 28 59.8771 28C60.4117 28 60.9057 28.0947 61.3591 28.2842C61.8192 28.4737 62.2151 28.7342 62.5467 29.0658C62.885 29.3974 63.1489 29.7865 63.3384 30.2331C63.5346 30.6729 63.6328 31.1466 63.6328 31.6541C63.6328 32.1617 63.5346 32.6387 63.3384 33.0853C63.1489 33.5252 62.885 33.9109 62.5467 34.2425C62.2151 34.5741 61.8192 34.8346 61.3591 35.0241C60.9057 35.2135 60.4117 35.3083 59.8771 35.3083ZM59.8771 34.2932C60.2425 34.2932 60.5843 34.2256 60.9023 34.0902C61.2271 33.9549 61.5079 33.7688 61.7448 33.532C61.9884 33.2883 62.1779 33.0075 62.3132 32.6895C62.4485 32.3647 62.5162 32.0195 62.5162 31.6541C62.5162 31.2887 62.4485 30.947 62.3132 30.6289C62.1779 30.3041 61.9884 30.0233 61.7448 29.7865C61.5079 29.5429 61.2271 29.3534 60.9023 29.218C60.5843 29.0827 60.2425 29.015 59.8771 29.015C59.5117 29.015 59.1666 29.0827 58.8418 29.218C58.5237 29.3534 58.2429 29.5429 57.9993 29.7865C57.7625 30.0233 57.5764 30.3041 57.441 30.6289C57.3057 30.947 57.238 31.2887 57.238 31.6541C57.238 32.0195 57.3057 32.3647 57.441 32.6895C57.5764 33.0075 57.7625 33.2883 57.9993 33.532C58.2429 33.7688 58.5237 33.9549 58.8418 34.0902C59.1666 34.2256 59.5117 34.2932 59.8771 34.2932Z" fill="white"/>
<path d="M65.2021 35.2068V28.1015H68.0442C68.3622 28.1015 68.6498 28.1523 68.907 28.2538C69.1709 28.3553 69.3976 28.4906 69.5871 28.6598C69.7765 28.8289 69.922 29.0286 70.0235 29.2586C70.125 29.482 70.1758 29.7222 70.1758 29.9793C70.1758 30.2432 70.1318 30.4665 70.0438 30.6492C69.9559 30.8252 69.8611 30.9673 69.7596 31.0756C69.631 31.2109 69.4889 31.3158 69.3333 31.3902V31.4105C69.5566 31.5053 69.7562 31.6338 69.9322 31.7962C70.0878 31.9316 70.2265 32.1075 70.3483 32.3241C70.4701 32.5406 70.531 32.8079 70.531 33.1259C70.531 33.4034 70.4735 33.6707 70.3585 33.9278C70.2435 34.1782 70.081 34.3981 69.8713 34.5876C69.6683 34.7771 69.4247 34.9293 69.1404 35.0444C68.8562 35.1526 68.5416 35.2068 68.1965 35.2068H65.2021ZM68.1965 34.2425C68.5551 34.2425 68.8461 34.1308 69.0694 33.9075C69.2995 33.6842 69.4145 33.4068 69.4145 33.0752C69.4145 32.7436 69.2995 32.4662 69.0694 32.2429C68.8461 32.0195 68.5551 31.9079 68.1965 31.9079H66.3186V34.2425H68.1965ZM68.0442 30.9944C68.3487 30.9944 68.5923 30.9064 68.775 30.7304C68.9645 30.5477 69.0592 30.3143 69.0592 30.0301C69.0592 29.7459 68.9645 29.5158 68.775 29.3398C68.5923 29.1571 68.3487 29.0658 68.0442 29.0658H66.3186V30.9944H68.0442Z" fill="white"/>
<path d="M77.1256 28.1015V29.1673H73.2177V30.9944H76.3136V32.0601H73.2177V34.141H77.2271V35.2068H72.1012V28.1015H77.1256Z" fill="white"/>
<path d="M77.8909 28.1015H83.2705V29.1673H81.139V35.2068H80.0224V29.1673H77.8909V28.1015Z" fill="white"/>
<path d="M85.6083 28.1015V31.5526L88.8057 28.1015H90.2267L87.4861 31.0451L90.4297 35.2068H89.0594L86.7248 31.8571L85.6083 33.0752V35.2068H84.4918V28.1015H85.6083Z" fill="white"/>
<path d="M94.7393 35.3083C94.2047 35.3083 93.7073 35.2135 93.2472 35.0241C92.7938 34.8346 92.3979 34.5741 92.0596 34.2425C91.728 33.9109 91.4641 33.5252 91.2679 33.0853C91.0784 32.6387 90.9836 32.1617 90.9836 31.6541C90.9836 31.1466 91.0784 30.6729 91.2679 30.2331C91.4641 29.7865 91.728 29.3974 92.0596 29.0658C92.3979 28.7342 92.7938 28.4737 93.2472 28.2842C93.7073 28.0947 94.2047 28 94.7393 28C95.2739 28 95.7678 28.0947 96.2212 28.2842C96.6814 28.4737 97.0773 28.7342 97.4088 29.0658C97.7472 29.3974 98.0111 29.7865 98.2006 30.2331C98.3968 30.6729 98.4949 31.1466 98.4949 31.6541C98.4949 32.1617 98.3968 32.6387 98.2006 33.0853C98.0111 33.5252 97.7472 33.9109 97.4088 34.2425C97.0773 34.5741 96.6814 34.8346 96.2212 35.0241C95.7678 35.2135 95.2739 35.3083 94.7393 35.3083ZM94.7393 34.2932C95.1047 34.2932 95.4464 34.2256 95.7645 34.0902C96.0893 33.9549 96.3701 33.7688 96.6069 33.532C96.8506 33.2883 97.04 33.0075 97.1754 32.6895C97.3107 32.3647 97.3784 32.0195 97.3784 31.6541C97.3784 31.2887 97.3107 30.947 97.1754 30.6289C97.04 30.3041 96.8506 30.0233 96.6069 29.7865C96.3701 29.5429 96.0893 29.3534 95.7645 29.218C95.4464 29.0827 95.1047 29.015 94.7393 29.015C94.3739 29.015 94.0288 29.0827 93.7039 29.218C93.3859 29.3534 93.1051 29.5429 92.8615 29.7865C92.6246 30.0233 92.4385 30.3041 92.3032 30.6289C92.1679 30.947 92.1002 31.2887 92.1002 31.6541C92.1002 32.0195 92.1679 32.3647 92.3032 32.6895C92.4385 33.0075 92.6246 33.2883 92.8615 33.532C93.1051 33.7688 93.3859 33.9549 93.7039 34.0902C94.0288 34.2256 94.3739 34.2932 94.7393 34.2932Z" fill="white"/>
<path d="M100.064 28.1015H104.632V29.1673H101.181V35.2068H100.064V28.1015Z" fill="white"/>
<path d="M109.152 35.3083C108.617 35.3083 108.12 35.2135 107.66 35.0241C107.207 34.8346 106.811 34.5741 106.472 34.2425C106.141 33.9109 105.877 33.5252 105.681 33.0853C105.491 32.6387 105.396 32.1617 105.396 31.6541C105.396 31.1466 105.491 30.6729 105.681 30.2331C105.877 29.7865 106.141 29.3974 106.472 29.0658C106.811 28.7342 107.207 28.4737 107.66 28.2842C108.12 28.0947 108.617 28 109.152 28C109.687 28 110.181 28.0947 110.634 28.2842C111.094 28.4737 111.49 28.7342 111.822 29.0658C112.16 29.3974 112.424 29.7865 112.613 30.2331C112.81 30.6729 112.908 31.1466 112.908 31.6541C112.908 32.1617 112.81 32.6387 112.613 33.0853C112.424 33.5252 112.16 33.9109 111.822 34.2425C111.49 34.5741 111.094 34.8346 110.634 35.0241C110.181 35.2135 109.687 35.3083 109.152 35.3083ZM109.152 34.2932C109.517 34.2932 109.859 34.2256 110.177 34.0902C110.502 33.9549 110.783 33.7688 111.02 33.532C111.263 33.2883 111.453 33.0075 111.588 32.6895C111.723 32.3647 111.791 32.0195 111.791 31.6541C111.791 31.2887 111.723 30.947 111.588 30.6289C111.453 30.3041 111.263 30.0233 111.02 29.7865C110.783 29.5429 110.502 29.3534 110.177 29.218C109.859 29.0827 109.517 29.015 109.152 29.015C108.787 29.015 108.441 29.0827 108.117 29.218C107.799 29.3534 107.518 29.5429 107.274 29.7865C107.037 30.0233 106.851 30.3041 106.716 30.6289C106.581 30.947 106.513 31.2887 106.513 31.6541C106.513 32.0195 106.581 32.3647 106.716 32.6895C106.851 33.0075 107.037 33.2883 107.274 33.532C107.518 33.7688 107.799 33.9549 108.117 34.0902C108.441 34.2256 108.787 34.2932 109.152 34.2932Z" fill="white"/>
<path d="M48 49.7293V47.141H48.406C48.6361 46.9109 48.8391 46.6132 49.015 46.2477C49.1707 45.9365 49.3094 45.5338 49.4312 45.0398C49.5598 44.5459 49.6241 43.9436 49.6241 43.2331V41.1015H54.2425V47.141H55.1053V49.7293H53.9887V48.2068H49.1165V49.7293H48ZM53.1259 47.141V42.1673H50.7406V43.2331C50.7406 43.9504 50.6831 44.556 50.568 45.05C50.453 45.5372 50.3244 45.9365 50.1823 46.2477C50.0199 46.6132 49.8338 46.9075 49.6241 47.1308V47.141H53.1259Z" fill="white"/>
<path d="M61.3945 41.1015V42.1673H57.4866V43.9944H60.5825V45.0601H57.4866V47.141H61.496V48.2068H56.3701V41.1015H61.3945Z" fill="white"/>
<path d="M62.1598 41.1015H67.5395V42.1673H65.4079V48.2068H64.2913V42.1673H62.1598V41.1015Z" fill="white"/>
<path d="M75.0032 46.8872C74.7934 47.1511 74.543 47.388 74.252 47.5977C74.0084 47.7737 73.7039 47.9361 73.3385 48.085C72.9731 48.2338 72.5468 48.3083 72.0595 48.3083C71.525 48.3083 71.0276 48.2135 70.5674 48.0241C70.1141 47.8346 69.7182 47.5741 69.3799 47.2425C69.0483 46.9109 68.7844 46.5252 68.5881 46.0853C68.3986 45.6387 68.3039 45.1617 68.3039 44.6541C68.3039 44.1466 68.3986 43.6729 68.5881 43.2331C68.7844 42.7865 69.0483 42.3974 69.3799 42.0658C69.7182 41.7342 70.1141 41.4737 70.5674 41.2842C71.0276 41.0947 71.525 41 72.0595 41C72.5468 41 72.9697 41.0711 73.3283 41.2132C73.687 41.3553 73.9881 41.5109 74.2317 41.6801C74.5159 41.8831 74.7562 42.1132 74.9524 42.3703L74.2419 43.0808C74.093 42.8846 73.9137 42.7053 73.7039 42.5429C73.5212 42.4075 73.2945 42.2857 73.0238 42.1774C72.7532 42.0692 72.4317 42.015 72.0595 42.015C71.6941 42.015 71.349 42.0827 71.0242 42.218C70.7062 42.3534 70.4253 42.5429 70.1817 42.7865C69.9449 43.0233 69.7588 43.3041 69.6235 43.6289C69.4881 43.947 69.4205 44.2887 69.4205 44.6541C69.4205 45.0195 69.4881 45.3647 69.6235 45.6895C69.7588 46.0075 69.9449 46.2883 70.1817 46.532C70.4253 46.7688 70.7062 46.9549 71.0242 47.0902C71.349 47.2256 71.6941 47.2932 72.0595 47.2932C72.4317 47.2932 72.7565 47.2357 73.034 47.1207C73.3114 46.9989 73.5415 46.8703 73.7242 46.735C73.9475 46.5726 74.137 46.3865 74.2926 46.1767L75.0032 46.8872Z" fill="white"/>
<path d="M75.5119 41.1015H80.8916V42.1673H78.76V48.2068H77.6434V42.1673H75.5119V41.1015Z" fill="white"/>
<path d="M82.1128 48.2068V41.1015H84.9549C85.2729 41.1015 85.5605 41.1523 85.8177 41.2538C86.0816 41.3553 86.3083 41.4906 86.4977 41.6598C86.6872 41.8289 86.8327 42.0286 86.9342 42.2586C87.0357 42.482 87.0865 42.7222 87.0865 42.9793C87.0865 43.2432 87.0425 43.4665 86.9545 43.6492C86.8665 43.8252 86.7718 43.9673 86.6703 44.0756C86.5417 44.2109 86.3996 44.3158 86.244 44.3902V44.4105C86.4673 44.5053 86.6669 44.6338 86.8428 44.7962C86.9985 44.9316 87.1372 45.1075 87.259 45.3241C87.3808 45.5406 87.4417 45.8079 87.4417 46.1259C87.4417 46.4034 87.3842 46.6707 87.2692 46.9278C87.1541 47.1782 86.9917 47.3981 86.7819 47.5876C86.5789 47.7771 86.3353 47.9293 86.0511 48.0444C85.7669 48.1526 85.4522 48.2068 85.1071 48.2068H82.1128ZM85.1071 47.2425C85.4658 47.2425 85.7568 47.1308 85.9801 46.9075C86.2101 46.6842 86.3252 46.4068 86.3252 46.0752C86.3252 45.7436 86.2101 45.4662 85.9801 45.2429C85.7568 45.0195 85.4658 44.9079 85.1071 44.9079H83.2293V47.2425H85.1071ZM84.9549 43.9944C85.2594 43.9944 85.503 43.9064 85.6857 43.7304C85.8752 43.5477 85.9699 43.3143 85.9699 43.0301C85.9699 42.7459 85.8752 42.5158 85.6857 42.3398C85.503 42.1571 85.2594 42.0658 84.9549 42.0658H83.2293V43.9944H84.9549Z" fill="white"/>
<path d="M88.0983 48.2068L90.9404 41.1015H92.1585L95.0006 48.2068H93.8333L93.1228 46.3797H89.9761L89.2656 48.2068H88.0983ZM92.7167 45.3647L91.5596 42.4414H91.5393L90.3822 45.3647H92.7167Z" fill="white"/>
<path d="M60.3221 22.6601C60.2111 22.6601 60.1099 22.6503 60.0185 22.6307C59.9336 22.6177 59.8585 22.6046 59.7932 22.5915C59.7149 22.5654 59.6463 22.5393 59.5876 22.5132V21.5339C59.6398 21.5535 59.6953 21.5698 59.7541 21.5828C59.8063 21.5959 59.8683 21.609 59.9401 21.622C60.012 21.6285 60.0903 21.6318 60.1752 21.6318C60.3449 21.6318 60.4951 21.6122 60.6257 21.5731C60.7562 21.5274 60.8705 21.4686 60.9684 21.3968C61.0663 21.3184 61.1545 21.227 61.2328 21.1226C61.3112 21.0116 61.383 20.8875 61.4483 20.7504L61.5952 20.4566L59 15.707H60.1262L62.124 19.3598H62.1436L63.8476 15.707H64.9738L62.4276 21.0442C62.3035 21.2988 62.173 21.5274 62.0359 21.7297C61.8988 21.9321 61.7453 22.1019 61.5756 22.239C61.4058 22.3761 61.2165 22.4805 61.0076 22.5524C60.8052 22.6242 60.5767 22.6601 60.3221 22.6601Z" fill="white"/>
<path d="M67.7648 22.6601C67.3339 22.6601 66.9585 22.6046 66.6386 22.4936C66.3252 22.3761 66.0608 22.252 65.8454 22.1215C65.5973 21.9648 65.3884 21.7852 65.2186 21.5828L65.9531 20.8484C66.0771 21.0051 66.2273 21.1422 66.4036 21.2597C66.5537 21.3707 66.7398 21.4686 66.9618 21.5535C67.1903 21.6383 67.458 21.6808 67.7648 21.6808C68.0129 21.6808 68.2283 21.6514 68.4112 21.5926C68.6005 21.5274 68.7604 21.4425 68.891 21.338C69.0216 21.2336 69.1195 21.1128 69.1848 20.9757C69.2501 20.8386 69.2827 20.6982 69.2827 20.5546C69.2827 20.4175 69.2501 20.2869 69.1848 20.1629C69.1195 20.0323 69.0216 19.918 68.891 19.8201C68.7604 19.7156 68.6005 19.634 68.4112 19.5753C68.2283 19.51 68.0129 19.4773 67.7648 19.4773H66.8834V18.4491H67.7648C67.9737 18.4491 68.1565 18.4229 68.3132 18.3707C68.4699 18.3185 68.6005 18.2499 68.7049 18.1651C68.8159 18.0802 68.8975 17.9823 68.9498 17.8713C69.0085 17.7538 69.0379 17.633 69.0379 17.5089C69.0379 17.2674 68.9302 17.0552 68.7147 16.8724C68.4993 16.683 68.1826 16.5884 67.7648 16.5884C67.5102 16.5884 67.2817 16.6275 67.0793 16.7059C66.8769 16.7777 66.7072 16.8593 66.5701 16.9507C66.4068 17.0617 66.2665 17.1858 66.1489 17.3229L65.4145 16.5884C65.5842 16.4056 65.7866 16.2424 66.0216 16.0987C66.224 15.9747 66.4689 15.8637 66.7561 15.7658C67.0499 15.6613 67.3861 15.6091 67.7648 15.6091C68.1435 15.6091 68.4797 15.658 68.7735 15.756C69.0673 15.8539 69.3121 15.9845 69.508 16.1477C69.7104 16.3109 69.8605 16.5035 69.9585 16.7255C70.0629 16.9409 70.1151 17.1727 70.1151 17.4208C70.1151 17.7015 70.0597 17.9366 69.9487 18.1259C69.8377 18.3152 69.7169 18.4719 69.5863 18.596C69.4296 18.7331 69.2534 18.844 69.0575 18.9289V18.9485C69.2991 19.0334 69.5178 19.1509 69.7136 19.3011C69.8768 19.4316 70.0237 19.6014 70.1543 19.8103C70.2914 20.0192 70.36 20.2836 70.36 20.6035C70.36 20.8712 70.3012 21.1291 70.1837 21.3772C70.0662 21.6253 69.8932 21.844 69.6647 22.0333C69.4427 22.2227 69.1717 22.3761 68.8518 22.4936C68.5319 22.6046 68.1696 22.6601 67.7648 22.6601Z" fill="white"/>
<path d="M76.6738 15.707V16.7353H72.9035V18.498H75.8904V19.5263H72.9035V21.5339H76.7718V22.5622H71.8263V15.707H76.6738Z" fill="white"/>
<path d="M79.2728 15.707V20.7504L83.0432 15.707H84.0225V22.5622H82.9452V17.5187L79.1749 22.5622H78.1956V15.707H79.2728ZM80.399 13.4546C80.399 13.6505 80.4643 13.8137 80.5949 13.9442C80.7255 14.0748 80.8887 14.1401 81.0845 14.1401C81.2804 14.1401 81.4436 14.0748 81.5742 13.9442C81.7048 13.8137 81.7701 13.6505 81.7701 13.4546H82.5045C82.5045 13.6505 82.4686 13.8333 82.3968 14.003C82.3315 14.1662 82.2336 14.3099 82.103 14.4339C81.979 14.5579 81.8288 14.6559 81.6525 14.7277C81.4828 14.793 81.2935 14.8256 81.0845 14.8256C80.8756 14.8256 80.683 14.793 80.5068 14.7277C80.337 14.6559 80.1868 14.5579 80.0563 14.4339C79.9322 14.3099 79.8343 14.1662 79.7625 14.003C79.6972 13.8333 79.6645 13.6505 79.6645 13.4546H80.399Z" fill="white"/>
<path d="M50.6478 15.4614L53.5017 19.123L56.3555 15.4614H57.4325V22.9999H56.2478V17.4537L53.5017 20.9537L50.7555 17.4537V22.9999H49.5709V15.4614H50.6478Z" fill="white"/>
<g clip-path="url(#clip0_801_1194)">
<path d="M7.83429 41.917C7.50881 41.7634 7.52983 41.4243 7.42469 41.1527C7.36526 40.9973 7.30858 40.8401 7.25098 40.6838C7.28023 40.4598 7.45029 40.5156 7.59383 40.5064C7.87543 40.4881 8.16618 40.5503 8.43772 40.4269C8.69542 40.4247 8.95129 40.3834 9.19658 40.3044C9.2406 40.3154 9.28647 40.3169 9.33111 40.3087C9.37574 40.3005 9.4181 40.2828 9.45532 40.2568C11.0124 39.927 12.5454 39.4927 14.0441 38.9569C17.085 38.0098 20.0665 36.9018 23.0041 35.6658C24.2302 35.2188 25.4306 34.7059 26.6174 34.1657C27.5792 33.7278 28.5767 33.3648 29.4901 32.8236C29.8293 32.7441 30.0981 32.5156 30.4144 32.3885C31.0005 32.2678 31.4613 31.8912 31.9687 31.6188C32.5081 31.3299 33.0786 31.0867 33.5148 30.6342L33.5102 30.6397C33.6574 30.6269 33.7543 30.5236 33.8649 30.4449H33.8713C33.9628 30.4239 33.9682 30.349 33.9847 30.2786C34.2663 30.3133 34.3001 29.9129 34.5762 29.9403C34.6545 30.201 34.7489 30.4565 34.8588 30.7055C35.1038 31.1845 34.9694 31.5401 34.558 31.8318C33.8476 32.3464 33.0786 32.7651 32.3216 33.203L28.9543 34.8321C28.9113 34.8751 28.8757 34.9391 28.8236 34.9573C27.8791 35.281 26.9822 35.7189 26.0661 36.1101C24.9214 36.5983 23.773 37.0782 22.6265 37.5609C22.2197 37.6267 21.843 37.7876 21.4608 37.9321C19.1952 38.7841 16.9351 39.6507 14.6274 40.3876C14.0002 40.5887 13.3547 40.7423 12.7605 41.0403C12.5187 41.0589 12.2801 41.1071 12.0501 41.1838C10.8996 41.5106 9.72974 41.7649 8.54743 41.9453L7.83429 41.917Z" fill="#0D4135"/>
<path d="M13.32 21.3022C12.8894 20.8013 12.6069 20.2052 12.2329 19.664C12.0172 19.3541 11.8672 19.0241 11.5015 18.8047C10.9776 18.493 11.0508 17.9088 11.6112 17.662C13.0584 17.0343 14.5456 16.5029 16.0629 16.0713C16.627 15.9086 16.7943 16.0192 16.9442 16.4571C16.872 16.4571 16.8967 16.2578 16.7696 16.3721C16.328 16.2925 16.0967 16.6033 15.9788 16.9206C15.7959 17.4161 15.3772 17.5605 14.973 17.7607C14.7984 17.8521 14.4053 17.7698 14.4793 18.0112C14.5461 18.2306 14.8642 17.9874 15.07 17.9572C15.4183 17.9061 15.6551 17.9307 15.7008 18.3705C15.7886 19.1475 15.8581 19.931 16.136 20.6778C16.1837 20.8101 16.2008 20.9514 16.1861 21.0912C16.1713 21.231 16.1252 21.3657 16.051 21.4851C15.7904 21.6222 15.5554 21.8197 15.2464 21.8507C14.9721 21.8745 14.707 21.8882 14.429 22.0071C14.1228 22.1378 13.7726 22.04 13.6629 21.6167C13.6477 21.5341 13.6061 21.4587 13.5442 21.402C13.4823 21.3452 13.4036 21.3102 13.32 21.3022V21.3022Z" fill="#F6DE07"/>
<path d="M32.3207 33.2011C33.0777 32.7605 33.8466 32.3418 34.557 31.8298C34.7783 32.2997 34.5516 32.755 34.4885 33.2075C34.3591 34.0815 33.98 34.8996 33.3968 35.5633C33.2139 35.5972 33.1225 35.7526 33.0229 35.876C32.6571 36.3221 32.1744 36.654 31.7666 37.0644C31.5225 37.3103 31.2464 37.5215 31.0562 37.8241C30.9979 37.914 30.9212 37.9906 30.8313 38.049C30.1566 38.486 29.512 38.9751 28.744 39.2512C28.3536 39.391 28.125 39.6826 27.9495 40.0483C27.7664 40.4575 27.5095 40.8293 27.1915 41.1453C26.9922 41.3337 26.845 41.5211 26.8048 41.8291C26.758 42.1011 26.625 42.3507 26.4254 42.5413C26.1218 42.8558 25.8329 43.1995 25.5275 43.5213C25.3904 43.6676 25.3758 43.8321 25.3666 44.0195C25.3465 44.4446 25.6665 44.8139 25.5495 45.25C25.5402 45.2568 25.5297 45.2617 25.5186 45.2643C25.5074 45.267 25.4959 45.2674 25.4846 45.2656C25.1883 44.9831 25.181 44.6165 25.1847 44.2462C25.2135 43.9914 25.1651 43.7337 25.0457 43.5067C25.395 43.4363 25.4005 43.0057 25.6949 42.8841C26.0816 42.726 25.9097 42.5258 25.7278 42.353C25.6482 42.2762 25.4535 42.2744 25.4937 42.1226C25.5897 41.7185 25.3109 41.7889 25.0905 41.7807C24.9238 41.764 24.7554 41.7834 24.5968 41.8374C24.5609 41.8516 24.5225 41.8581 24.4839 41.8564C24.4453 41.8548 24.4076 41.845 24.3731 41.8277C24.3385 41.8105 24.308 41.7861 24.2836 41.7563C24.2591 41.7264 24.2412 41.6918 24.2311 41.6545C24.1625 41.4626 24.3381 41.4626 24.4642 41.4086C25.0485 41.1572 25.6263 40.893 26.2014 40.627C26.3029 40.5804 26.4446 40.5502 26.4107 40.3527C26.298 40.3806 26.1829 40.3983 26.067 40.4058C25.9627 40.4058 25.8256 40.5758 25.757 40.3857C25.7049 40.2412 25.8347 40.169 25.949 40.1196C26.6201 39.8326 27.2062 39.3718 27.9065 39.1506C28.1497 39.0738 28.2722 38.7758 28.5712 38.8233C28.4898 38.251 29.0814 38.4732 29.2834 38.2273C29.3584 38.1359 29.4864 38.0975 29.4325 37.9402C29.3328 37.6495 29.4059 37.5279 29.7296 37.634C29.8274 37.666 29.8942 37.57 29.9563 37.5069C30.269 37.1878 30.6969 37.0352 31.0334 36.7344C31.2546 36.537 31.3186 36.4053 31.1787 36.1859C31.0974 36.0588 30.9959 35.919 31.1705 35.8568C31.4585 35.7553 31.5765 35.4802 31.8187 35.3266C32.2613 35.0459 32.5438 34.5952 32.7175 34.1007C32.8391 33.7542 32.7248 33.532 32.3134 33.5522C32.3198 33.4351 32.3207 33.3181 32.3207 33.2011Z" fill="#E4B508"/>
<path d="M11.6917 31.3876C11.9416 31.1112 12.1512 30.801 12.3143 30.4661L12.3957 30.3582C13.2007 30.2891 13.9881 30.0838 14.7243 29.7512L14.8624 29.71L14.9758 29.6515L14.9675 29.6616C15.0332 29.6693 15.0997 29.6626 15.1625 29.6421C15.2254 29.6216 15.283 29.5877 15.3314 29.5427C17.0686 28.9988 18.7353 28.2821 20.3938 27.5425L20.5337 27.4959L20.6252 27.4365C20.6962 27.4346 20.7661 27.4182 20.8305 27.3884C20.895 27.3585 20.9527 27.3158 21 27.2628V27.2628C21.0492 27.2698 21.0993 27.2635 21.1452 27.2447C21.1912 27.2259 21.2313 27.1952 21.2615 27.1558H21.2706L21.3758 27.0827L21.3703 27.0909C21.4201 27.0984 21.471 27.0921 21.5175 27.0726C21.5639 27.0531 21.6041 27.0211 21.6336 26.9803H21.6409C22.3831 26.7038 23.0854 26.33 23.7292 25.8687C24.1863 26.0899 24.6919 26.1191 25.1801 26.216C25.1116 26.3934 24.9644 26.5031 24.8354 26.6293C24.7921 26.6352 24.7511 26.6527 24.717 26.6801C24.6829 26.7075 24.6568 26.7436 24.6416 26.7847V26.7847L22.4546 27.8899C22.4237 27.8894 22.3929 27.8934 22.3632 27.9018C19.6194 29.0729 16.8482 30.1507 14.0313 31.1133L13.9079 31.1618L13.7598 31.1855C13.7113 31.1721 13.6601 31.1723 13.6117 31.186C13.5634 31.1997 13.5197 31.2264 13.4855 31.2632L13.3173 31.3007C12.8373 31.4141 12.3582 31.5284 11.8773 31.6381C11.6423 31.6929 11.5765 31.607 11.6917 31.3876Z" fill="#A2543D"/>
<path d="M13.5943 24.9415C13.3346 24.5018 13.2139 23.9972 13.0457 23.519C12.9378 23.2155 13.1253 22.9705 13.4041 22.8215C13.683 22.6725 13.9957 22.5198 14.291 22.3699C14.9867 22.0371 15.763 21.9028 16.4359 21.5115L17.0667 21.3789C17.4206 21.3844 17.7232 21.187 18.0651 21.1339C18.4071 21.0809 18.642 21.1815 18.7774 21.5179C18.9474 21.9357 19.1431 22.3407 19.3259 22.7594C19.1614 22.9906 18.8441 22.9897 18.6603 23.1927L18.4912 23.2841C18.2798 23.3137 18.0786 23.3933 17.9042 23.5163L14.6741 24.6773L13.5943 24.9415ZM15.3314 22.8325C15.6853 22.7859 15.997 22.7941 16.1854 22.401C15.8626 22.508 15.549 22.497 15.3314 22.8325Z" fill="#0D4135"/>
<path d="M20.1616 47.7158H19.8873C19.443 47.5448 18.9675 47.6244 18.5104 47.5393C17.4462 47.3437 16.3499 47.4836 15.2857 47.1782C14.3257 46.8994 13.3831 46.6252 12.5977 45.966C12.1991 45.6324 12.2192 45.3928 12.6974 45.1963C12.8411 45.145 12.988 45.1032 13.1371 45.071C14.003 44.8343 14.9054 44.8745 15.7886 44.72C16.7449 44.5518 17.7369 44.6213 18.6704 44.2629C18.8935 44.1788 19.1577 44.1925 19.4228 44.2209C19.8151 44.262 20.2356 44.347 20.627 44.1587C20.9177 44.2455 21.2121 44.3242 21.4644 44.5052L21.0832 44.5198C20.7175 44.4147 20.3518 44.5792 19.986 44.5198C19.9614 44.517 19.9364 44.5199 19.9129 44.5281C19.8895 44.5363 19.8682 44.5497 19.8506 44.5672C19.8331 44.5848 19.8197 44.6061 19.8115 44.6295C19.8033 44.653 19.8004 44.6779 19.8032 44.7026H19.6203C19.5594 44.6106 19.4984 44.6106 19.4375 44.7026H19.1632C19.0414 44.6908 18.9187 44.693 18.7975 44.709C18.1099 44.88 17.4059 44.9723 16.7175 45.125C16.2366 45.2319 15.7282 45.2594 15.2756 45.4998C14.7399 45.7832 14.7335 45.8609 15.2043 46.2101C15.3693 46.3405 15.5546 46.4428 15.7529 46.5127C16.7276 46.8261 17.735 47.0267 18.7554 47.1106C20.1689 47.2367 21.5723 47.4644 22.9977 47.4433H23.4548C23.5463 47.5598 23.6377 47.5598 23.7291 47.4433H24.0034C24.2 47.6161 24.435 47.511 24.6516 47.5348C25.2258 47.5914 25.8119 47.4315 26.3796 47.6262C26.3138 47.6573 26.2471 47.7176 26.1812 47.7176C24.4825 47.6755 22.781 47.8236 21.0832 47.6408C20.7744 47.5925 20.4585 47.6182 20.1616 47.7158V47.7158Z" fill="#141415"/>
<path d="M20.6188 44.1568C20.2274 44.3451 19.8069 44.2601 19.4146 44.219C19.1495 44.1906 18.8853 44.1769 18.6622 44.261C17.7287 44.6157 16.7367 44.5462 15.7804 44.7181C14.9008 44.8726 13.9984 44.8324 13.1289 45.0692C12.9812 45.103 12.8358 45.1463 12.6937 45.199C12.2156 45.3955 12.1954 45.635 12.5941 45.9687C13.3831 46.6251 14.3257 46.8993 15.2866 47.1782C16.3509 47.4835 17.4471 47.3436 18.5113 47.5393C18.9685 47.6234 19.4439 47.5448 19.8882 47.7157C19.7383 47.8757 19.5426 47.8071 19.3698 47.8071C17.3328 47.755 15.3058 47.6069 13.3255 47.0813C12.6516 46.9016 12.0042 46.6342 11.4 46.2859C11.2172 46.179 11.0215 46.0236 11.0215 45.752C11.0215 45.465 11.2345 45.3717 11.4393 45.2684C12.2705 44.8596 13.1795 44.6336 14.1054 44.6057C14.462 44.5901 14.8158 44.5298 15.2263 44.4832C15.0572 44.2766 14.8816 44.3396 14.7335 44.3396C13.6226 44.3341 12.5118 44.3396 11.4 44.3341C11.1998 44.3341 10.9776 44.4027 10.8999 44.0864C10.8578 43.9127 10.686 43.9612 10.568 44.0617C10.3961 44.2089 10.2224 44.1605 10.1493 43.9922C9.98287 43.6101 9.62447 43.4922 9.32001 43.2874C9.16733 43.1841 8.95978 43.0982 8.9223 42.8769C8.88938 42.6831 8.78698 42.717 8.66081 42.7755C8.38104 42.9062 8.31887 42.8011 8.4295 42.5469C8.54927 42.2727 8.41578 42.1977 8.18538 42.2471C7.8855 42.3102 7.8023 42.1867 7.8343 41.918L8.5447 41.9491C8.91956 42.6164 9.39773 43.1713 10.1465 43.4355C10.2078 43.6595 10.3916 43.6183 10.5534 43.6238H10.5488C10.6594 43.9118 10.9145 43.7728 11.1074 43.8067H11.0965C11.3561 44.1257 11.7154 43.9529 12.0309 43.9959C12.1351 44.0334 12.2384 44.0599 12.339 43.9849C12.467 44.1952 12.6818 44.133 12.8702 44.155C13.5714 44.2372 14.2416 43.9666 14.942 43.9895C15.0498 44.1943 15.2492 44.155 15.4247 44.1632C15.9733 44.1879 16.4917 44.0014 17.021 43.8889C17.3374 43.8231 17.651 43.6485 17.9737 43.7344C18.6805 43.9237 19.39 44.0498 20.125 44.016C20.2978 44.0078 20.4981 43.9602 20.6188 44.1568Z" fill="black"/>
<path d="M20.1616 47.7158C20.4558 47.6172 20.769 47.5894 21.0759 47.6344C22.7737 47.8173 24.4752 47.6692 26.174 47.7112C26.2398 47.7112 26.3065 47.6536 26.3724 47.6198H26.9209C27.1431 47.6198 27.3662 47.6335 27.5874 47.6198C27.7456 47.6097 27.9641 47.7112 28.0199 47.4415H28.2028C28.2782 47.509 28.3758 47.5463 28.477 47.5463C28.5783 47.5463 28.6759 47.509 28.7513 47.4415L29.117 47.3501C29.1682 47.3784 29.2204 47.4351 29.2697 47.4324C29.9936 47.3934 30.7073 47.2445 31.3863 46.9908C31.7109 46.8647 31.806 46.5877 31.7676 46.2458C31.699 45.6369 31.3762 45.253 30.7966 45.0674C29.4252 44.6268 27.9961 44.5097 26.5909 44.2657C26.4793 44.2465 26.3166 44.4101 26.2864 44.1587C26.8076 43.8954 27.3324 44.1331 27.8407 44.1907C28.9378 44.3159 30.0414 44.4796 31.1413 44.6258C31.7474 44.7063 32.3618 44.7904 32.9159 45.1259C33.3685 45.4002 33.4718 45.7658 33.4142 46.2412C33.3602 46.6882 33.032 46.8702 32.6654 47.0064C31.8035 47.3213 30.9074 47.533 29.9957 47.6372C27.2254 47.9681 24.446 48.0485 21.661 47.9836C21.1591 47.9672 20.6343 47.9672 20.1616 47.7158Z" fill="#1B1616"/>
<path d="M30.9438 27.143C31.3433 27.2637 31.6825 27.5014 32.0409 27.697C32.0729 27.7299 32.104 27.7628 32.1323 27.7948C31.9495 28.0746 31.5463 28.102 31.3963 28.4229L29.0265 29.7082C28.8939 29.6982 28.8025 29.7923 28.6919 29.838C28.1927 30.0437 27.7456 30.371 27.1998 30.4652C27.2537 30.0172 27.7986 29.9724 27.9431 29.551C27.9925 29.4065 28.0043 29.3681 27.9321 29.2657C27.7666 29.0317 27.5353 28.9549 27.2619 28.9732C27.2799 28.9321 27.3066 28.8954 27.3403 28.8657C27.3739 28.836 27.4136 28.814 27.4567 28.8013C28.3344 28.4092 29.1426 27.8872 29.9563 27.3834C30.2882 27.1796 30.5643 27.015 30.9438 27.143Z" fill="#D3A31F"/>
<path d="M30.9438 27.1429C30.5643 27.0149 30.2882 27.1795 29.9618 27.3806C29.1481 27.8843 28.3399 28.4063 27.4622 28.7985C27.4191 28.8112 27.3794 28.8332 27.3457 28.8628C27.3121 28.8925 27.2854 28.9292 27.2674 28.9704C27.2554 28.9674 27.2429 28.9674 27.231 28.9705C27.219 28.9735 27.208 28.9794 27.1989 28.9877C26.9803 28.9292 26.8642 29.1898 26.6503 29.1605C26.6411 28.9859 26.9712 28.8561 26.7719 28.697C26.6485 28.5992 26.4062 28.6413 26.2187 28.6376C26.1712 28.6376 26.1209 28.6989 26.0725 28.729C25.981 28.7958 25.8585 28.8351 25.7936 28.729C25.7287 28.623 25.8521 28.5462 25.9271 28.4785C26.0021 28.4109 26.1639 28.3917 26.1383 28.1759C25.7515 28.2866 25.3694 28.3158 25.0859 27.9575C25.5586 27.7134 26.0295 27.4684 26.5031 27.2261C26.568 27.1932 26.6768 27.1447 26.7115 27.1722C27.1056 27.4757 27.4347 27.1722 27.8032 27.1173C28.1963 27.0634 28.2009 26.9025 28.1863 26.6282C28.8885 26.5734 29.5669 26.727 30.2361 26.9025C30.4747 26.9765 30.7774 26.8668 30.9438 27.1429Z" fill="#CACDCA"/>
<path d="M31.4019 28.42C31.5518 28.0992 31.9504 28.0717 32.1379 27.792C32.7632 28.0717 33.214 28.5544 33.6364 29.0718C33.8366 29.3187 33.9353 29.6816 34.3678 29.6734C34.4295 29.6818 34.4857 29.7135 34.525 29.7619C34.5642 29.8103 34.5835 29.8718 34.579 29.9339C34.3047 29.9083 34.2691 30.3078 33.9875 30.2731C33.9006 30.2941 33.8832 30.3645 33.8741 30.4395H33.8677C33.7278 30.4651 33.5267 30.3791 33.5129 30.6342L33.5175 30.6287C33.3657 30.5985 33.2734 30.7082 33.1518 30.7695C32.84 30.9322 32.2686 30.849 32.2659 30.6388C32.2604 30.2182 31.8261 29.8544 32.1141 29.401C32.1616 29.3269 32.1187 29.2337 32.0227 29.1788C31.7109 29.0133 31.5865 28.6915 31.4019 28.42Z" fill="#ABABA8"/>
<path d="M23.7228 25.8676C23.079 26.3289 22.3768 26.7027 21.6345 26.9792C21.438 26.6327 21.0247 26.5788 20.7477 26.3274C20.5886 26.182 20.5923 25.9014 20.3006 25.8621C19.9486 25.8154 19.9111 25.5878 20.0711 25.2989C20.4615 25.0594 20.9159 24.9415 21.2844 24.659L21.363 24.5813C21.9628 24.9561 22.579 25.298 23.2035 25.6299C23.3772 25.7231 23.5747 25.7368 23.7228 25.8676Z" fill="#D4DBD7"/>
<path d="M13.5943 24.9417L14.6759 24.6775C14.9913 24.928 15.4073 24.6501 15.6816 24.8183C15.549 25.4993 14.8807 24.8046 14.5964 25.2863C14.6699 25.3078 14.7457 25.3206 14.8222 25.3247C15.2894 25.2681 15.1998 25.6566 15.2793 25.8998C15.3708 26.1886 15.1742 26.2289 14.9557 26.2471C14.7564 26.2627 14.749 26.4062 14.7984 26.5442C14.8478 26.6823 14.8039 26.7454 14.6732 26.8185C14.5424 26.8916 14.4126 26.9831 14.4117 27.1622C14.0597 27.4182 13.63 27.356 13.2377 27.4475C13.2204 27.3286 13.1765 27.1732 13.2642 27.1001C13.6217 26.7847 13.4316 26.43 13.3282 26.1109C13.2057 25.7343 13.1664 25.418 13.5166 25.1465C13.5641 25.1099 13.5678 25.0121 13.5943 24.9417Z" fill="#DBE0E1"/>
<path d="M26.2855 44.1568C26.3138 44.4082 26.4784 44.2482 26.59 44.2637C27.9961 44.5078 29.4242 44.6248 30.7957 45.0655C31.3753 45.2483 31.6981 45.635 31.7666 46.2439C31.805 46.5858 31.71 46.8628 31.3854 46.9889C30.7072 47.2443 29.9941 47.395 29.2706 47.4359C29.2213 47.4359 29.1692 47.382 29.118 47.3537C29.2332 47.2129 29.3922 47.201 29.5614 47.1626C29.9618 47.0712 30.3605 46.945 30.5671 46.5391C30.8642 45.9394 30.6082 45.4065 29.8357 45.1788C28.9415 44.9165 28.0254 44.7217 27.1111 44.5389C26.9164 44.4996 26.6869 44.3003 26.4711 44.5279C26.2233 44.5874 25.7927 44.3232 25.8311 44.889L25.7452 44.9805L25.5897 43.9831C25.8549 43.9063 26.0185 44.2372 26.2855 44.1568Z" fill="#010101"/>
<path d="M14.7262 29.7484C13.9898 30.0801 13.2023 30.2844 12.3975 30.3527C12.7412 29.5234 13.0165 28.6673 13.2204 27.793C13.6455 27.8424 14.0057 27.6102 14.3998 27.5251C14.3367 27.7875 14.504 27.8908 14.7088 27.9356C14.7088 28.1395 14.3605 27.9905 14.4574 28.2428C14.6019 28.6203 14.5086 29.0089 14.4492 29.3736C14.4044 29.6689 14.5086 29.7128 14.7262 29.7484Z" fill="#DBE0E1"/>
<path d="M8.43773 40.4269C8.16344 40.5503 7.87544 40.4882 7.59384 40.5065C7.4503 40.5156 7.28024 40.4598 7.25099 40.6838C7.13579 40.6107 7.06173 40.4955 7.12756 40.3776C7.4183 39.8446 7.24276 39.2805 7.26561 38.7265C7.29121 38.1342 7.36253 37.5591 7.61579 37.0161C7.6295 37.2309 7.80779 37.2904 7.95682 37.3818C8.4359 37.3864 8.3271 37.7831 8.36093 38.0409C8.40939 38.4221 8.2759 38.8152 8.40939 39.1973C8.52831 39.5556 8.57946 39.9329 8.56024 40.3099C8.46882 40.341 8.35179 40.2587 8.27042 40.362L8.43773 40.4269Z" fill="#CACDCA"/>
<path d="M7.95681 37.3837C7.80778 37.2923 7.6295 37.231 7.61578 37.018C7.7426 36.4755 8.00674 35.9746 8.38287 35.5636C9.00367 35.6495 9.58058 35.3277 10.1968 35.3707C10.184 35.4136 10.1703 35.495 10.1584 35.4941C9.6519 35.4831 9.45167 35.9512 9.09784 36.1733C8.90218 36.2967 8.88664 36.5033 8.94058 36.7008C8.99453 36.8983 9.18835 36.8334 9.32733 36.8343C9.94447 36.8343 10.4729 36.4768 11.0745 36.3827C11.2318 36.358 11.5938 36.4439 11.6679 36.1084C12.0985 36.2382 12.4615 35.8634 12.8857 35.9448C12.755 36.1084 12.4862 36.0609 12.3847 36.2693H12.3756C11.9295 36.2853 11.4945 36.4126 11.1102 36.6396H11.0992C10.654 36.6862 10.2169 36.7648 9.82835 37.0052H9.82195C9.26058 37.0875 8.69921 37.1661 8.13876 37.2557C8.0711 37.2694 8.01716 37.3407 7.95681 37.3837Z" fill="#D3A31F"/>
<path d="M17.0686 21.379L16.4378 21.5115L16.4103 21.4814C16.9863 21.0243 16.8099 20.4511 16.67 19.8687C16.5633 19.4041 16.4812 18.9342 16.424 18.4609C16.3792 18.1217 16.424 17.7597 16.0666 17.5467C15.9815 17.4964 15.9669 17.4014 16.0428 17.3685C16.4844 17.1765 16.371 16.585 16.7742 16.3711C16.9013 16.2568 16.8766 16.4579 16.9488 16.4561C16.9578 16.4612 16.9648 16.469 16.9689 16.4784C16.973 16.4878 16.974 16.4982 16.9717 16.5082V16.5082C16.9973 16.5759 17.022 16.6435 17.0476 16.7102C17.0878 16.8382 17.0019 16.9324 16.9562 17.0366C17.0567 18.0623 17.1491 19.088 17.2615 20.1119C17.3082 20.5544 17.3429 20.9877 17.0686 21.379Z" fill="#E4BD10"/>
<path d="M25.5897 43.983L25.7406 44.9739C25.7342 45.1211 25.7269 45.2683 25.7205 45.4146L25.5531 45.2482C25.6665 44.8121 25.3465 44.4428 25.3703 44.0177C25.3794 43.8303 25.3941 43.6657 25.5312 43.5195C25.8366 43.1977 26.1255 42.8539 26.429 42.5395C26.6286 42.3489 26.7616 42.0992 26.8085 41.8273C26.8487 41.5192 26.9913 41.3318 27.1952 41.1435C27.5119 40.826 27.7673 40.4529 27.9486 40.0428C28.1241 39.6772 28.3527 39.3855 28.7431 39.2457C29.5111 38.9714 30.1557 38.4805 30.8304 38.0435C30.9203 37.9852 30.9969 37.9085 31.0553 37.8186C31.2455 37.517 31.5216 37.3049 31.7657 37.0589C32.1735 36.6503 32.6526 36.3185 33.0219 35.8705C33.1234 35.7471 33.213 35.5917 33.3959 35.5579C33.405 35.7663 33.2578 35.8906 33.1335 36.015C32.6827 36.4821 32.253 36.9748 31.699 37.3295C31.5442 37.4234 31.4219 37.5625 31.3488 37.7281C31.1778 38.1112 30.7957 38.2766 30.4629 38.475C29.9088 38.8133 29.3575 39.1616 28.7787 39.455C28.6359 39.5198 28.5075 39.6126 28.4013 39.7281C28.2951 39.8435 28.2133 39.9792 28.1607 40.1269C27.9993 40.5709 27.7187 40.9619 27.3497 41.2569C27.2471 41.3209 27.1689 41.4175 27.1275 41.5311C26.9277 42.2719 26.4777 42.9208 25.8539 43.3677C25.6729 43.5167 25.4425 43.6794 25.5897 43.983Z" fill="#D3A31F"/>
<path d="M24.8291 26.6284C24.958 26.5022 25.1034 26.3925 25.1738 26.2152C25.9144 26.2625 26.6576 26.2509 27.3964 26.1804C27.3616 26.4803 27.1166 26.6101 26.9027 26.7362C26.0533 27.2305 25.1742 27.672 24.2704 28.0581C24.2832 27.9918 24.277 27.9231 24.2526 27.8601C24.2282 27.797 24.1865 27.7421 24.1324 27.7016C23.8224 27.4703 23.9879 27.3359 24.2165 27.186C24.382 27.0818 24.6398 27.0663 24.6343 26.7838C24.723 26.7609 24.9205 26.8789 24.8291 26.6284Z" fill="#CACDCA"/>
<path d="M11.6917 31.3876C11.5765 31.607 11.6423 31.6929 11.8818 31.6381C12.3628 31.5284 12.8418 31.4141 13.3218 31.3007C13.8503 31.3071 14.3422 31.6938 14.8999 31.4918C14.8679 31.2541 14.558 31.4717 14.5479 31.2176C14.8222 31.1609 15.133 31.287 15.3516 31.0439C15.6496 30.7111 15.8361 30.7486 15.9294 31.1956C15.9431 31.2605 16.0208 31.3135 16.0629 31.3721C15.2912 31.7121 14.4748 31.9206 13.6775 32.1857C13.3346 31.9937 12.9982 31.82 12.6864 32.2442C12.6562 32.2853 12.5429 32.2643 12.4679 32.2734C12.264 32.299 12.0391 32.2798 11.8636 32.3649C11.688 32.4499 11.5298 32.4901 11.3589 32.3969C11.3392 32.3753 11.3249 32.3494 11.3173 32.3213C11.3097 32.2931 11.3089 32.2636 11.315 32.235C11.3799 32.0019 11.6021 32.1436 11.7365 32.0668C11.7593 32.054 11.773 32.023 11.795 31.9955C11.7164 31.8675 11.6414 31.7386 11.4695 31.7213C11.4988 31.5787 11.4192 31.3657 11.6917 31.3876Z" fill="#D4DBD7"/>
<path d="M10.1941 35.3742C9.57784 35.3312 9.0055 35.6484 8.38013 35.5671C8.63338 35.0597 9.04024 34.6611 9.45258 34.311C9.76619 34.0441 9.8247 33.8164 9.72687 33.4745L10.5653 33.3694C10.6412 33.5943 10.6567 33.896 10.8066 34.0294C11.229 34.3951 10.8222 34.3567 10.6457 34.4682C10.387 34.631 10.0972 34.7818 9.9143 35.0167C9.70584 35.2855 9.98561 35.2791 10.1639 35.291L10.1941 35.3824V35.3742Z" fill="#CACDCA"/>
<path d="M18.654 23.1928C18.8368 22.9899 19.155 22.9908 19.3196 22.7595C19.9596 22.7769 20.2339 23.1919 20.4634 23.7212C20.5932 24.0257 21.0622 24.043 21.1747 24.406C21.1637 24.4599 21.1518 24.5138 21.1408 24.5678L20.3445 24.8173C20.3628 24.6656 20.5722 24.4343 20.2229 24.4233C19.9426 24.411 19.6665 24.3511 19.4064 24.246C18.942 24.0714 18.8487 23.8803 19.1623 23.5146C19.2135 23.457 19.3571 23.4644 19.2848 23.3318C19.2624 23.2914 19.2266 23.2601 19.1835 23.2434C19.1404 23.2267 19.0928 23.2256 19.049 23.2404C18.9575 23.2605 18.8752 23.2888 18.7884 23.3135L18.654 23.1928Z" fill="#CACDCA"/>
<path d="M24.2704 28.0579C25.1741 27.6718 26.0532 27.2303 26.9026 26.736C27.1166 26.6099 27.3598 26.4801 27.3963 26.1802C27.5792 26.1053 27.6999 26.2067 27.8242 26.3265C27.9486 26.4462 28.0071 26.6071 28.1899 26.6364C28.2046 26.9106 28.2 27.0715 27.8068 27.1255C27.4411 27.1758 27.1092 27.4838 26.7152 27.1803C26.6805 27.1529 26.5717 27.2014 26.5067 27.2343C26.0331 27.4747 25.5623 27.7197 25.0905 27.9656C24.7513 28.0067 24.4816 28.2097 24.1826 28.345C23.5544 28.5809 22.9405 28.8531 22.344 29.1604C22.1355 29.2025 21.9399 29.3223 21.7159 29.2619C22.536 28.792 23.4201 28.4602 24.2704 28.0579Z" fill="#ABABA8"/>
<path d="M10.5653 33.3695L9.72963 33.4746C9.51111 33.1401 9.82563 33.1026 10.0039 32.9883C10.4099 33.0459 10.7902 32.8969 11.1788 32.8521C12.0528 32.7497 12.8675 32.4864 13.6803 32.1857C14.4775 31.9215 15.294 31.7121 16.0656 31.3711L16.2329 31.3501L16.3363 31.4571C15.1779 31.9745 13.9591 32.3274 12.7623 32.7369C12.3196 32.8398 11.8879 32.9852 11.4732 33.1711C11.3497 33.1885 11.2126 33.1519 11.1075 33.2626C11.0782 33.269 11.048 33.2744 11.016 33.279L10.5653 33.3695Z" fill="#ABABA8"/>
<path d="M13.6775 32.1855C12.8647 32.4854 12.0501 32.7496 11.176 32.852C10.7874 32.8977 10.4071 33.0458 10.0012 32.9882C10.4857 32.5576 11.0279 32.1974 11.4695 31.7239C11.6414 31.7422 11.7164 31.8711 11.795 31.9981C11.773 32.0256 11.7593 32.0566 11.7365 32.0694C11.6021 32.1435 11.3799 32.0045 11.315 32.2376C11.3089 32.2662 11.3097 32.2957 11.3173 32.3239C11.3249 32.352 11.3392 32.3779 11.3589 32.3995C11.5298 32.4909 11.6816 32.4543 11.8636 32.3675C12.0455 32.2806 12.264 32.3026 12.4679 32.276C12.5429 32.2669 12.6562 32.2879 12.6864 32.2468C12.9982 31.8217 13.3346 31.9981 13.6775 32.1855Z" fill="#CACDCA"/>
<path d="M14.4034 27.5259C14.0094 27.61 13.6491 27.8431 13.2286 27.7929C13.2286 27.6777 13.2368 27.5625 13.2405 27.4473C13.6327 27.3559 14.0633 27.418 14.4144 27.1621C15.3525 26.9271 16.253 26.5797 17.1499 26.2232C17.2533 26.2159 17.3602 26.1025 17.4599 26.2287C17.5239 26.3082 17.4379 26.353 17.4114 26.4115L14.7719 27.3751L14.4848 27.5104C14.4569 27.5096 14.4291 27.5149 14.4034 27.5259V27.5259Z" fill="#ABABA8"/>
<path d="M16.4341 21.5116C15.7612 21.9029 14.9849 22.0336 14.2892 22.37C13.9381 22.1799 13.5879 21.9906 13.4096 21.5994C13.3535 21.5102 13.3225 21.4075 13.32 21.3022C13.403 21.31 13.4812 21.3443 13.543 21.4002C13.6048 21.456 13.6468 21.5304 13.6629 21.6122C13.7726 22.0354 14.12 22.1332 14.429 22.0025C14.7033 21.8837 14.9694 21.87 15.2464 21.8462C15.5554 21.8197 15.795 21.6222 16.051 21.4805L16.4066 21.4732L16.4341 21.5116Z" fill="#E4BD10"/>
<path d="M16.9543 17.0339C17.0009 16.9297 17.0869 16.8355 17.0457 16.7075C17.1399 16.8529 17.1353 16.9681 16.9543 17.0339Z" fill="#F6DE07"/>
<path d="M21.1408 24.5676C21.1518 24.5136 21.1637 24.4597 21.1746 24.4058C21.2222 24.4082 21.2675 24.4273 21.3024 24.4597C21.3374 24.4921 21.3598 24.5358 21.3657 24.5831L21.2871 24.6608L21.1408 24.5676Z" fill="#D4DBD7"/>
<path d="M32.1387 27.7929C32.1067 27.7609 32.0756 27.728 32.0473 27.6951C32.0756 27.7298 32.1067 27.7627 32.1387 27.7929Z" fill="#ABABA8"/>
<path d="M12.3957 30.3582L12.3143 30.466L12.3957 30.3582Z" fill="#DBE0E1"/>
<path d="M10.1465 43.4345C9.39771 43.1703 8.91953 42.6118 8.54468 41.9481C9.72698 41.7676 10.8968 41.5133 12.0473 41.1866C12.2773 41.1098 12.5159 41.0616 12.7577 41.043C13.2203 41.0814 13.6235 40.8602 14.0532 40.7505C14.3138 40.6856 14.6018 40.5421 14.7847 40.8291C15.0718 41.2752 15.4548 41.2981 15.8955 41.1655C16.2612 41.0558 16.6212 40.9367 16.9753 40.8081C17.1801 40.734 17.469 40.7304 17.4955 40.4424C17.522 40.1544 17.2962 40.0274 17.0631 39.9259C17.0338 39.9131 17.0229 39.8601 17.0046 39.8272C17.3063 39.6443 17.6702 39.6663 17.9426 39.5374C19.0709 39.0026 20.2722 38.6625 21.4169 38.1862C21.8018 38.0262 22.173 37.7556 22.6219 37.7511C23.5792 37.5344 24.4432 37.0627 25.3648 36.75C25.704 36.9118 25.9134 36.7308 26.0962 36.4758C26.2727 36.3981 26.4327 36.2701 26.6448 36.2929C26.6695 36.2957 26.6945 36.2929 26.7179 36.2847C26.7414 36.2764 26.7626 36.2631 26.7802 36.2455C26.7978 36.2279 26.8112 36.2067 26.8194 36.1832C26.8276 36.1598 26.8304 36.1348 26.8277 36.1101H27.0105C27.0507 36.3377 27.1303 36.2363 27.2437 36.1531C27.5929 35.898 27.9586 35.8349 28.3408 36.1065C28.1909 36.2701 28.0363 36.4136 27.912 36.5791C27.251 37.4613 26.3915 38.1149 25.4544 38.6598C24.8318 39.0254 24.2786 39.4917 23.5929 39.7623C23.3269 39.8665 23.0443 39.8966 22.792 40.0228C22.1877 40.3245 21.6034 40.6627 20.9826 40.937C19.6258 41.5394 18.2151 41.9983 16.7934 42.4271C15.5134 42.8129 14.2389 43.2499 12.8619 43.067C12.7709 43.061 12.6803 43.0834 12.6026 43.1313C12.5249 43.1791 12.4641 43.25 12.4286 43.334C12.3444 43.5259 12.541 43.5634 12.6818 43.6283C12.8052 43.6841 12.9561 43.7453 12.9918 43.951L12.339 43.9821C12.2384 44.0571 12.1351 44.0306 12.0308 43.9931C12.019 43.9017 12.0107 43.8176 11.8846 43.8167C11.6222 43.8167 11.3588 43.8084 11.0964 43.8039H11.1074C10.9712 43.5918 10.7636 43.5918 10.5488 43.621H10.5534C10.5287 43.3203 10.3028 43.4528 10.1465 43.4345Z" fill="#F1D104"/>
<path d="M25.3712 36.752C24.4496 37.0646 23.5856 37.5363 22.6284 37.753C22.6284 37.6899 22.6284 37.6278 22.6238 37.5647C23.7703 37.082 24.9186 36.602 26.0633 36.1139C26.9776 35.7226 27.8764 35.2847 28.8208 34.9611C28.8729 34.9428 28.9122 34.8788 28.9516 34.8358C29.1075 34.8147 29.262 34.7842 29.4142 34.7444C29.8896 34.653 30.2553 34.2563 30.7637 34.2873C30.7637 35.0891 30.7637 35.0882 31.4951 34.7581C31.525 34.7481 31.5555 34.7402 31.5865 34.7344C32.1351 34.5762 32.3655 34.2078 32.318 33.6502C32.318 33.6191 32.318 33.588 32.318 33.5587C32.7294 33.5359 32.8437 33.758 32.7221 34.1072C32.5484 34.6027 32.2649 35.0525 31.8233 35.3332C31.581 35.4867 31.4631 35.7619 31.1751 35.8634C31.0005 35.9256 31.102 36.0654 31.1833 36.1925C31.3232 36.4119 31.2592 36.5435 31.038 36.741C30.7015 37.0418 30.2736 37.1981 29.9609 37.5135C29.8988 37.5766 29.832 37.6726 29.7342 37.6406C29.4105 37.5345 29.3374 37.6561 29.437 37.9468C29.491 38.104 29.363 38.1424 29.288 38.2339C29.086 38.4798 28.4944 38.2576 28.5758 38.8299C28.2786 38.7824 28.1543 39.0804 27.9111 39.1572C27.2108 39.3784 26.6247 39.8392 25.9536 40.1262C25.8393 40.1756 25.7095 40.2478 25.7616 40.3922C25.8302 40.5824 25.9673 40.4114 26.0716 40.4124C26.1875 40.4049 26.3025 40.3872 26.4153 40.3593C26.4492 40.5559 26.3074 40.586 26.206 40.6336C25.629 40.8996 25.0512 41.1638 24.4688 41.4152C24.3426 41.4691 24.1671 41.4691 24.2357 41.6611C24.2458 41.6984 24.2637 41.733 24.2882 41.7629C24.3126 41.7927 24.3431 41.8171 24.3776 41.8343C24.4122 41.8516 24.4499 41.8613 24.4885 41.863C24.527 41.8647 24.5655 41.8582 24.6014 41.844C24.76 41.7899 24.9284 41.7706 25.0951 41.7873C25.3118 41.7955 25.5943 41.7251 25.4983 42.1292C25.4617 42.2809 25.6528 42.2828 25.7324 42.3596C25.9152 42.5323 26.0862 42.7325 25.6994 42.8907C25.405 43.0123 25.3996 43.4392 25.0503 43.5133C25.1697 43.7403 25.2181 43.9979 25.1893 44.2528C24.7925 44.3351 24.3902 44.2995 23.9897 44.4905C23.6103 44.6734 23.6844 44.8361 23.8297 45.0747C23.9376 45.2511 24.125 45.3864 24.0912 45.6287C23.8544 45.6177 23.8169 45.337 23.6176 45.2767C23.4348 45.0372 23.4082 44.6368 23.027 44.5975C22.6229 44.5509 22.2124 44.5554 21.8046 44.5381L21.4517 44.5115H21.4572C21.2048 44.3287 20.9086 44.2519 20.6197 44.1651C20.499 43.9676 20.2988 44.0151 20.126 44.0234C19.3945 44.0572 18.6814 43.932 17.9746 43.7418C17.6519 43.6559 17.3346 43.8332 17.022 43.8963C16.4926 44.0051 15.9769 44.1916 15.4256 44.1706C15.2501 44.1623 15.0508 44.2016 14.9429 43.9969C14.9666 43.814 15.0956 43.7802 15.2428 43.8012C15.6478 43.857 15.933 43.6458 16.1927 43.3825C16.2933 43.2921 16.4067 43.2169 16.5292 43.1595C17.0018 42.9008 17.5605 42.9163 18.0368 42.7024C19.4704 42.0625 20.9936 41.6602 22.4199 40.9855C23.7465 40.3584 25.0549 39.7057 26.3138 38.9606C27.4302 38.3149 28.4363 37.4952 29.2944 36.5326C29.5998 36.1824 29.9948 35.9091 30.2142 35.484C30.2764 35.3624 30.3586 35.2353 30.2316 35.1083C30.1833 35.0577 30.1179 35.0271 30.0482 35.0224C29.9785 35.0176 29.9095 35.0391 29.8549 35.0827C29.342 35.4237 28.7148 35.3716 28.168 35.5837C27.7749 35.7354 27.3223 35.7765 27.0178 36.1212H26.835C26.8103 36.1184 26.7853 36.1213 26.7619 36.1295C26.7384 36.1377 26.7171 36.1511 26.6996 36.1686C26.682 36.1862 26.6686 36.2075 26.6604 36.2309C26.6522 36.2544 26.6494 36.2793 26.6521 36.304C26.4409 36.2812 26.2809 36.4092 26.1036 36.4869C25.9696 36.4761 25.835 36.4943 25.7086 36.54C25.5823 36.5857 25.4672 36.658 25.3712 36.752V36.752Z" fill="#E7BB06"/>
<path d="M23.0005 35.6641C20.0666 36.9019 17.0851 38.0099 14.0405 38.9551C13.971 38.8491 13.8476 38.8107 13.7662 38.8811C13.3786 39.2129 13.1088 38.9341 12.7605 38.7312C13.1381 38.6672 13.1381 38.6672 13.4398 38.7723C13.3411 38.19 13.3484 38.1808 12.8309 38.03C12.5886 37.9596 12.4652 37.8188 12.4862 37.5729C12.5264 37.1633 12.5328 36.7821 12.0236 36.6541C11.9934 36.3945 12.4323 36.5627 12.371 36.2702H12.3802C12.9198 36.2978 13.4485 36.1112 13.8512 35.7509C16.3198 34.9337 18.7472 34.0039 21.182 33.0998C21.2187 33.101 21.2543 33.1132 21.2839 33.1349C21.3136 33.1566 21.3361 33.1867 21.3484 33.2214C21.4106 33.3896 21.5532 33.4216 21.6538 33.3055C21.7754 33.1638 21.715 33.0312 21.5157 32.9965C21.56 32.9384 21.6183 32.8925 21.6851 32.8629C21.7519 32.8334 21.8251 32.8212 21.8979 32.8274C21.9079 32.895 21.9235 32.9947 22.0048 32.9581C22.0862 32.9215 22.0332 32.8511 21.9719 32.8118C22.0954 32.6052 22.312 32.6436 22.5013 32.6089L22.9932 32.6354C22.9909 32.7421 23.0116 32.848 23.0539 32.9459C23.0961 33.0439 23.159 33.1316 23.2382 33.2031C23.3863 33.3539 23.3818 33.5267 23.3214 33.7105C23.23 33.993 22.8423 34.2133 23.1386 34.5853C23.1504 34.6 23.0471 34.7307 22.9758 34.7819C22.4812 35.1521 22.4858 35.3999 23.0005 35.6641Z" fill="#E4E9EB"/>
<path d="M23.0005 35.6641C22.4858 35.3999 22.4812 35.1521 22.9767 34.7828C23.0462 34.7316 23.1514 34.6 23.1395 34.5862C22.8442 34.2142 23.2309 33.9939 23.3223 33.7114C23.3827 33.5285 23.3872 33.3548 23.2391 33.204C23.1599 33.1325 23.097 33.0448 23.0548 32.9468C23.0125 32.8489 22.9918 32.743 22.9941 32.6363C22.9976 32.5914 23.0161 32.549 23.0466 32.5158C23.0771 32.4826 23.1179 32.4607 23.1623 32.4535C24.0245 32.1792 24.7834 31.6417 25.651 31.4058C26.1603 31.2678 26.5955 30.8783 27.187 30.9798C27.4887 31.0319 27.6853 30.9798 27.593 31.4268C27.5189 31.7825 27.4101 32.1234 27.3086 32.4663C27.2803 32.5577 27.1486 32.7094 27.24 32.7405C27.5555 32.8484 27.5143 33.2506 27.8005 33.3585C27.8709 33.385 27.9322 33.2954 27.9834 33.2817C28.489 33.1418 28.9388 32.8173 29.4874 32.8246C28.5731 33.3658 27.5765 33.7287 26.6147 34.1666C25.427 34.7042 24.2266 35.217 23.0005 35.6641Z" fill="#DBE0E1"/>
<path d="M31.4018 28.4202C31.5847 28.6944 31.7109 29.0135 32.0181 29.1826C32.1177 29.2374 32.1607 29.3307 32.1095 29.4047C31.8215 29.8618 32.2558 30.222 32.2613 30.6425C32.2613 30.8528 32.8354 30.936 33.1472 30.7733C33.2661 30.712 33.3584 30.6023 33.5129 30.6325C33.0768 31.085 32.5072 31.3282 31.9669 31.6171C31.4567 31.8913 30.9959 32.2661 30.4126 32.3868C30.1803 32.0961 29.864 32.2259 29.6117 32.2862C29.1417 32.3969 29.0722 32.0614 29.1874 31.8291C29.4709 31.2578 29.0046 30.6307 29.3803 30.0867C29.4297 30.0163 29.3465 29.913 29.2359 29.9039C29.1252 29.8947 29.0329 29.8417 29.0338 29.7064L31.4018 28.4202Z" fill="#CACDCA"/>
<path d="M12.0254 36.6605C12.5347 36.7885 12.5283 37.1697 12.488 37.5793C12.4643 37.8225 12.5904 37.9633 12.8327 38.0364C13.3456 38.1872 13.3429 38.1964 13.4416 38.7787C13.1372 38.6717 13.1372 38.6717 12.7623 38.733C13.1125 38.9359 13.3822 39.2148 13.768 38.8829C13.8494 38.8125 13.9728 38.8509 14.0423 38.957C12.5436 39.4928 11.0106 39.9271 9.45353 40.2569C9.43396 40.2416 9.41135 40.2306 9.3872 40.2246C9.36305 40.2187 9.33791 40.2179 9.31344 40.2224C9.28898 40.2269 9.26575 40.2365 9.24529 40.2507C9.22483 40.2648 9.20762 40.2832 9.19479 40.3045C8.9495 40.3835 8.69363 40.4248 8.43593 40.427L8.26862 40.3639C8.34999 40.2606 8.46427 40.3429 8.55844 40.3118C8.98732 40.1044 9.45394 39.9865 9.92987 39.9653C10.3568 39.9479 10.5205 39.6435 10.7664 39.4168C10.7836 39.4063 10.7971 39.3908 10.8053 39.3724C10.8135 39.354 10.8159 39.3336 10.8123 39.3138C10.8086 39.294 10.799 39.2758 10.7848 39.2615C10.7706 39.2473 10.7524 39.2377 10.7326 39.234C10.5918 39.1864 10.3367 39.255 10.408 38.9862C10.4739 38.7421 10.7253 38.9003 10.8816 38.8381C10.9152 38.8187 10.946 38.7947 10.9731 38.7668C10.9447 38.7303 10.931 38.6928 10.9109 38.6891C10.8364 38.6758 10.7608 38.6694 10.6851 38.6699C10.0506 38.6699 9.90884 38.5538 9.93353 37.902C9.94724 37.5619 9.80919 37.3864 9.49284 37.3114C9.60256 37.1643 9.85856 37.2447 9.81833 37.0061H9.82473C10.0213 37.0061 10.2188 37.0217 10.4154 37.0171C10.707 37.0116 10.9639 36.9394 11.0956 36.6377H11.1066L12.0254 36.6605ZM10.0835 37.338L10.0506 37.4129C10.0762 37.4239 10.1063 37.4486 10.1246 37.4413C10.1429 37.4339 10.1484 37.3956 10.1594 37.37L10.0835 37.338Z" fill="#DBE0E1"/>
<path d="M29.032 29.7053C29.032 29.8406 29.1125 29.8882 29.2341 29.9028C29.3557 29.9174 29.4279 30.018 29.3785 30.0856C28.9991 30.6296 29.47 31.2567 29.1856 31.8281C29.0704 32.0584 29.1399 32.3939 29.6099 32.2852C29.8659 32.2248 30.1785 32.095 30.4108 32.3857C30.0944 32.5128 29.8256 32.7413 29.4864 32.8209C28.9379 32.8209 28.488 33.1408 27.9824 33.2779C27.9331 33.2917 27.8718 33.3813 27.7996 33.3547C27.5143 33.2469 27.5545 32.8446 27.2391 32.7368C27.1477 32.7057 27.2793 32.5539 27.3077 32.4625C27.4119 32.1197 27.518 31.7787 27.592 31.4231C27.6835 30.9751 27.4878 31.0282 27.1861 30.976C26.5945 30.8746 26.1593 31.264 25.6501 31.4021C24.7824 31.6379 24.0236 32.1736 23.1614 32.4497C23.1169 32.4569 23.0762 32.4789 23.0457 32.512C23.0152 32.5452 22.9967 32.5876 22.9932 32.6325L22.5013 32.606C22.8387 32.2705 23.3607 32.297 23.7118 31.9899L24.0007 31.8866C24.0556 31.8939 24.0921 31.8774 24.1013 31.818L24.094 31.8253C24.1325 31.8341 24.1728 31.8298 24.2086 31.8131C24.2443 31.7963 24.2735 31.7682 24.2915 31.733C24.6279 31.6068 24.9817 31.5127 25.2972 31.3481C25.9198 31.0236 26.6211 30.8727 27.2016 30.4623C27.7502 30.3709 28.1945 30.0408 28.6937 29.8351C28.808 29.7894 28.8995 29.6953 29.032 29.7053ZM28.9753 30.1707C28.9653 30.0911 28.9031 30.0884 28.8455 30.0875C28.7879 30.0865 28.7166 30.0875 28.7157 30.1688C28.7148 30.2502 28.7852 30.252 28.8437 30.252C28.9022 30.252 28.9635 30.2502 28.9753 30.1697V30.1707Z" fill="#D4DBD7"/>
<path d="M22.6238 37.5637C22.6238 37.6268 22.6238 37.689 22.6284 37.752C22.1795 37.7566 21.8055 38.0263 21.4234 38.1872C20.275 38.6635 19.0736 39.0036 17.9491 39.5384C17.6748 39.6673 17.3091 39.649 17.011 39.8281C17.0293 39.8611 17.0403 39.9141 17.0695 39.9269C17.3027 40.0284 17.5267 40.1582 17.502 40.4434C17.4773 40.7286 17.1866 40.7341 16.9818 40.8091C16.6252 40.937 16.2653 41.0562 15.902 41.1665C15.4613 41.2991 15.0791 41.2762 14.7911 40.8301C14.6083 40.543 14.3175 40.6866 14.0597 40.7515C13.63 40.8593 13.2268 41.0824 12.7642 41.044C13.3584 40.746 14.0039 40.5924 14.6311 40.3913C16.9388 39.6545 19.2026 38.7878 21.4645 37.9358C21.8403 37.7904 22.217 37.6295 22.6238 37.5637Z" fill="#D3A31F"/>
<path d="M30.7637 34.2836C30.2553 34.2562 29.8896 34.6493 29.4142 34.7407C29.2619 34.7805 29.1074 34.811 28.9515 34.8321L32.3207 33.1985C32.3207 33.3155 32.3207 33.4325 32.3207 33.5504C32.3207 33.5806 32.3207 33.6117 32.3207 33.6419C32.1744 33.6492 32.0464 33.4947 31.891 33.5898C31.5131 33.8207 31.1373 34.052 30.7637 34.2836Z" fill="#D3A31F"/>
<path d="M33.5093 30.6379C33.523 30.3828 33.7241 30.4687 33.864 30.4431C33.7534 30.5217 33.6565 30.6269 33.5093 30.6379Z" fill="#CACDCA"/>
<path d="M9.19659 40.3045C9.20943 40.2832 9.22664 40.2648 9.2471 40.2507C9.26755 40.2365 9.29078 40.2269 9.31525 40.2224C9.33972 40.2179 9.36486 40.2186 9.38901 40.2246C9.41316 40.2305 9.43577 40.2416 9.45534 40.2569C9.41812 40.2829 9.37576 40.3006 9.33113 40.3088C9.28649 40.317 9.24061 40.3155 9.19659 40.3045V40.3045Z" fill="#CACDCA"/>
<path d="M33.8704 30.444C33.8796 30.369 33.8969 30.2986 33.9838 30.2776C33.9673 30.3443 33.9582 30.4193 33.8704 30.444Z" fill="#CACDCA"/>
<path d="M16.4066 21.485H16.051C16.1257 21.3651 16.1722 21.2298 16.1869 21.0893C16.2017 20.9489 16.1843 20.8069 16.136 20.6741C15.8581 19.9309 15.7886 19.1474 15.7036 18.3667C15.6578 17.927 15.421 17.9023 15.0727 17.9535C14.867 17.9837 14.5488 18.2277 14.4821 18.0074C14.408 17.7661 14.8012 17.8456 14.9758 17.7569C15.3772 17.554 15.7886 17.4123 15.9788 16.9141C16.0967 16.6005 16.328 16.2897 16.7696 16.3656C16.3673 16.5795 16.4807 17.171 16.0382 17.3629C15.9623 17.3958 15.9769 17.4909 16.062 17.5412C16.4194 17.7533 16.3746 18.1153 16.4194 18.4554C16.4766 18.9287 16.5587 19.3986 16.6654 19.8632C16.8062 20.451 16.9826 21.0215 16.4066 21.485Z" fill="#F1D104"/>
<path d="M23.6167 45.2684C23.8169 45.3287 23.8535 45.6094 24.0903 45.6204C24.2466 45.8626 24.3893 46.1287 24.7559 46.0189C24.8092 46.0533 24.8719 46.0703 24.9353 46.0675C24.9987 46.0647 25.0596 46.0423 25.1097 46.0034C25.5038 45.8937 25.4754 45.5692 25.4891 45.2638C25.5003 45.2656 25.5117 45.2652 25.5227 45.2625C25.5337 45.2598 25.544 45.255 25.5531 45.2483L25.7205 45.4147C25.7287 45.4906 25.7415 45.5664 25.7433 45.6423C25.7488 45.816 26.0533 45.9815 25.7817 46.1552C25.6082 46.2674 25.4163 46.3485 25.2149 46.3947C24.3499 46.5775 23.4713 46.4861 22.6064 46.4184C22.1218 46.3782 21.6007 46.4651 21.1435 46.1972C21.0155 46.1232 20.9086 46.0226 20.9296 45.8773C20.9552 45.7109 21.0933 45.6268 21.2597 45.6149C21.8631 45.5747 22.4482 45.3498 23.0626 45.4238C23.2598 45.4386 23.4559 45.3836 23.6167 45.2684Z" fill="#2E2E29"/>
<path d="M24.7559 46.0191C24.3902 46.1288 24.2467 45.8627 24.0903 45.6205C24.1242 45.3782 23.9367 45.2429 23.8288 45.0665C23.6835 44.8279 23.6094 44.6624 23.9888 44.4823C24.3893 44.2913 24.7916 44.3269 25.1884 44.2446C25.1884 44.6149 25.1884 44.9815 25.4883 45.2639C25.4764 45.5693 25.5038 45.8938 25.1098 46.0035C24.9939 45.9651 24.868 45.9706 24.7559 46.0191Z" fill="#EDC804"/>
<path d="M14.4035 27.526C14.4291 27.5149 14.4569 27.5096 14.4848 27.5104C14.6073 27.5223 14.7344 27.5433 14.7719 27.3751L17.4069 26.4125C17.8997 26.3119 18.441 26.3403 18.7975 25.8823C19.0261 25.8969 19.2675 25.8146 19.5116 25.96L19.0142 26.3256C19.2885 26.6858 19.8855 26.4765 20.0382 26.9765C19.8014 26.9765 19.5811 26.9765 19.3598 26.9765C19.2327 26.9765 19.1486 27.0424 19.1715 27.1731C19.208 27.3806 19.2985 27.2572 19.3881 27.2042C19.4607 27.1582 19.5485 27.1425 19.6325 27.1607C19.7164 27.1788 19.7899 27.2292 19.8371 27.3011C19.9824 27.5104 20.1799 27.525 20.392 27.5424C18.7335 28.282 17.0686 28.9987 15.3315 29.5426C15.2007 29.5481 15.0407 29.4649 14.9703 29.6587L14.9785 29.6487L14.8652 29.7072L14.7271 29.7483C14.5095 29.7154 14.4053 29.6688 14.4528 29.3744C14.5123 29.0088 14.6055 28.6211 14.4611 28.2436C14.3641 27.9913 14.7107 28.1403 14.7125 27.9364C14.5086 27.8935 14.3404 27.7929 14.4035 27.526Z" fill="#E4E9EB"/>
<path d="M16.2302 31.35L16.0629 31.3711C16.0172 31.3135 15.9431 31.2605 15.9294 31.1956C15.838 30.7485 15.6496 30.711 15.3516 31.0438C15.133 31.287 14.8213 31.1608 14.5479 31.2175C14.558 31.4716 14.8679 31.2541 14.8999 31.4917C14.3422 31.6938 13.8503 31.3089 13.3218 31.3007L13.4901 31.2641C13.5879 31.2641 13.6912 31.2851 13.7644 31.1855L13.9134 31.1617L14.0359 31.1133C16.8528 30.1506 19.624 29.0692 22.3623 27.9008C22.392 27.8924 22.4228 27.8884 22.4537 27.889C22.1502 28.2546 21.9874 28.741 21.4032 28.8397C21.2469 28.8653 20.8546 29.0555 20.99 29.4385C20.2108 29.8262 19.4069 30.1622 18.5836 30.4441C18.0496 30.6342 17.5468 30.9231 16.9708 30.9926C16.7513 30.9103 16.5484 30.679 16.2585 30.9076C16.381 31.02 16.6032 30.9579 16.6014 31.169L16.2302 31.35Z" fill="#DBE0E1"/>
<path d="M20.392 27.5425C20.1799 27.5251 19.9824 27.5105 19.8371 27.3011C19.7899 27.2293 19.7165 27.1789 19.6325 27.1607C19.5485 27.1426 19.4607 27.1582 19.3882 27.2042C19.2967 27.2572 19.2053 27.3807 19.1715 27.1731C19.1486 27.0424 19.2327 26.9775 19.3598 26.9766C19.5811 26.9766 19.8014 26.9766 20.0382 26.9766C19.8855 26.4765 19.2876 26.6859 19.0142 26.3257L19.5116 25.96C19.2675 25.8147 19.0261 25.8969 18.7975 25.8823L18.7866 25.8686C18.9603 25.6721 19.2656 25.726 19.4366 25.5249C19.6294 25.4049 19.8458 25.3278 20.0711 25.2991C19.9111 25.5843 19.9486 25.8156 20.3006 25.8622C20.5923 25.9015 20.5886 26.1822 20.7477 26.3275C21.022 26.5789 21.438 26.6329 21.6346 26.9793H21.6272C21.523 26.9793 21.4069 26.9464 21.3639 27.09L21.3694 27.0817L21.2643 27.1549H21.2551C21.1527 27.1549 21.0412 27.1302 20.9936 27.2618C20.8419 27.2618 20.6471 27.1704 20.6224 27.4364L20.531 27.4958L20.392 27.5425Z" fill="#DBE0E1"/>
<path d="M20.9835 29.4385C20.851 29.0554 21.2405 28.8653 21.3968 28.8397C21.981 28.741 22.1438 28.251 22.4473 27.8889L24.6343 26.7874C24.6398 27.0698 24.3819 27.0854 24.2164 27.1896C23.9879 27.3349 23.8224 27.4739 24.1323 27.7052C24.1865 27.7457 24.2282 27.8006 24.2526 27.8636C24.277 27.9267 24.2832 27.9953 24.2704 28.0617C23.4201 28.464 22.5333 28.7931 21.7168 29.2639H21.5339H21.3465L21.2551 29.3498L20.9835 29.4385Z" fill="#D4DBD7"/>
<path d="M20.627 27.4372C20.6517 27.1703 20.8464 27.2635 20.9982 27.2626C20.9514 27.3153 20.8943 27.358 20.8305 27.388C20.7667 27.418 20.6975 27.4348 20.627 27.4372V27.4372Z" fill="#D4DBD7"/>
<path d="M24.829 26.6282C24.9205 26.875 24.723 26.7607 24.6352 26.7836C24.6504 26.7426 24.6764 26.7064 24.7106 26.679C24.7447 26.6517 24.7857 26.6341 24.829 26.6282Z" fill="#D4DBD7"/>
<path d="M14.9658 29.6588C15.0362 29.465 15.1962 29.5482 15.3269 29.5427C15.2785 29.5868 15.2212 29.6199 15.1589 29.64C15.0966 29.66 15.0308 29.6664 14.9658 29.6588Z" fill="#DBE0E1"/>
<path d="M13.7598 31.1856C13.6912 31.2852 13.5879 31.2669 13.4855 31.2642C13.5196 31.2272 13.5632 31.2003 13.6116 31.1864C13.66 31.1725 13.7112 31.1722 13.7598 31.1856V31.1856Z" fill="#D4DBD7"/>
<path d="M20.9936 27.2672C21.0411 27.1356 21.1527 27.1575 21.2551 27.1603C21.2249 27.1997 21.1848 27.2304 21.1388 27.2492C21.0929 27.268 21.0427 27.2742 20.9936 27.2672Z" fill="#D4DBD7"/>
<path d="M21.3657 27.0909C21.4087 26.9474 21.5248 26.9776 21.629 26.9803C21.5995 27.0211 21.5594 27.0531 21.5129 27.0726C21.4665 27.0921 21.4155 27.0985 21.3657 27.0909Z" fill="#D4DBD7"/>
<path d="M20.5319 27.4957L20.6233 27.4363L20.5319 27.4957Z" fill="#D4DBD7"/>
<path d="M14.0313 31.1133L13.9088 31.1617L14.0313 31.1133Z" fill="#D4DBD7"/>
<path d="M21.2642 27.153L21.3694 27.0798L21.2642 27.153Z" fill="#D4DBD7"/>
<path d="M14.8643 29.7072L14.9776 29.6487L14.8643 29.7072Z" fill="#DBE0E1"/>
<path d="M17.1454 26.2243C16.2485 26.5808 15.3479 26.9282 14.4099 27.1632C14.4099 26.9803 14.5525 26.8889 14.6713 26.8194C14.7902 26.7499 14.8542 26.6933 14.7966 26.5452C14.739 26.3971 14.7545 26.2636 14.9539 26.2481C15.1724 26.2298 15.3699 26.1896 15.2775 25.9007C15.2007 25.6575 15.2903 25.269 14.8204 25.3256C14.7439 25.3216 14.6681 25.3087 14.5945 25.2873C14.8789 24.8055 15.5472 25.5003 15.6798 24.8192C15.4055 24.651 14.9868 24.9289 14.6741 24.6784L17.8979 23.5183C17.8723 23.884 17.6931 24.0741 17.3145 24.0495C17.0984 24.046 16.885 24.0989 16.6956 24.203C17.1308 24.1619 17.3246 24.5422 17.6501 24.7141C17.2313 24.7826 16.8025 24.7717 16.4359 25.0962C16.8583 25.226 17.2752 25.0477 17.6327 25.2095C17.6163 25.3924 17.3731 25.2635 17.3941 25.4609C17.5376 25.5368 17.704 25.5524 17.8211 25.4609C18.1401 25.1977 18.3696 25.3595 18.6073 25.5816L17.8759 25.8879C17.6016 25.9263 17.3337 25.9893 17.1454 26.2243Z" fill="#E4E9EB"/>
<path d="M18.6073 25.576C18.3733 25.3548 18.1401 25.193 17.8211 25.4563C17.704 25.5477 17.5376 25.5358 17.3941 25.4563C17.3731 25.2588 17.6163 25.3831 17.6327 25.2049C17.2752 25.0431 16.8583 25.2213 16.4359 25.0915C16.8016 24.767 17.2313 24.7779 17.6501 24.7094C17.3246 24.5375 17.1308 24.1609 16.6956 24.1984C16.885 24.0942 17.0984 24.0413 17.3145 24.0448C17.6931 24.0695 17.8723 23.8766 17.8979 23.5136C18.072 23.39 18.2733 23.31 18.4848 23.2805L18.5223 23.318C18.4821 23.5008 18.7381 23.4606 18.7427 23.6051C18.6247 23.7614 18.4044 23.5923 18.291 23.7687C18.3619 23.8962 18.4178 24.0315 18.4574 24.1718C18.5424 24.4397 18.7317 24.7313 18.9868 24.7414C19.3616 24.7551 19.6771 24.9315 20.0291 24.98C19.7731 25.2003 19.4211 25.2268 19.1504 25.4179L18.6073 25.576Z" fill="#DBE0E1"/>
<path d="M15.3314 22.8327C15.5509 22.4971 15.8645 22.5081 16.1854 22.4011C15.9952 22.7943 15.6834 22.786 15.3314 22.8327Z" fill="#D3A31F"/>
<path d="M18.6539 23.1929L18.7883 23.3136H18.5223L18.4848 23.2761L18.6539 23.1929Z" fill="#DBE0E1"/>
<path d="M23.6167 45.2684C23.455 45.3844 23.2574 45.4395 23.059 45.4238C22.4419 45.3498 21.8595 45.5747 21.256 45.6149C21.0896 45.6268 20.9516 45.7109 20.926 45.8773C20.9049 46.0226 21.0119 46.1232 21.1399 46.1972C21.5971 46.4651 22.1219 46.38 22.6028 46.4184C23.4677 46.4897 24.3463 46.5757 25.2112 46.3947C25.4127 46.3485 25.6046 46.2674 25.7781 46.1552C26.0524 45.9815 25.7452 45.816 25.7397 45.6423C25.7397 45.5664 25.7251 45.4906 25.7168 45.4147C25.7232 45.2684 25.7305 45.1212 25.7369 44.974L25.8229 44.8826C26.76 44.8461 27.6112 45.1313 28.4149 45.5847C28.5877 45.6825 28.872 45.7154 28.8281 45.9988C28.7843 46.2822 28.5283 46.4376 28.3097 46.5958C28.2659 46.6278 28.19 46.6122 28.1333 46.6314C27.174 46.9545 26.1656 47.107 25.1536 47.0821C24.4222 47.0593 23.6908 47.0748 22.9657 47.0821C22.8195 47.0821 22.6576 47.0319 22.5379 47.1736H22.2636C22.2471 47.0767 22.2041 46.9999 22.0935 46.998C21.3273 46.9871 20.5804 46.8152 19.8233 46.7238C19.7975 46.7173 19.7705 46.717 19.7445 46.7229C19.7186 46.7287 19.6943 46.7405 19.6737 46.7574C19.6531 46.7743 19.6367 46.7957 19.6259 46.82C19.615 46.8444 19.61 46.8709 19.6112 46.8975H19.4284C19.4119 46.7347 19.2976 46.7146 19.166 46.7146C18.7363 46.721 18.376 46.5099 18.0195 46.317C17.875 46.2384 17.6217 46.1835 17.6428 45.9714C17.6638 45.7593 17.8668 45.6578 18.0515 45.5792C18.9795 45.1834 19.9248 44.8479 20.9406 44.7629C21.107 44.7492 21.0576 44.6184 21.0713 44.5224L21.4526 44.5078H21.4471C21.5385 44.8387 21.6684 44.7062 21.8 44.5343C22.2078 44.5517 22.6229 44.5471 23.0224 44.5937C23.4073 44.6321 23.4329 45.0289 23.6167 45.2684Z" fill="#131913"/>
<path d="M26.4675 44.5223C26.6805 44.2947 26.91 44.494 27.1075 44.5333C28.0218 44.7161 28.936 44.9154 29.832 45.1732C30.6074 45.4009 30.8634 45.9338 30.5635 46.5335C30.3614 46.9394 29.9628 47.0656 29.5578 47.157C29.3923 47.1954 29.2295 47.2073 29.1143 47.3481L28.7486 47.4395C28.5658 47.1332 28.3829 47.3901 28.2 47.4395H28.0172C27.795 47.4395 27.5728 47.4285 27.3516 47.4395C27.1925 47.4495 26.9758 47.3481 26.9182 47.615H26.3696C25.8019 47.4212 25.2158 47.5812 24.6416 47.5236C24.425 47.5026 24.19 47.6077 23.9934 47.4322C24.1342 47.2603 24.328 47.2493 24.5301 47.2493C25.3767 47.2429 26.2215 47.2631 27.0691 47.1689C27.8919 47.0775 28.6736 46.9175 29.3776 46.4677C29.8275 46.1797 29.8275 45.8205 29.353 45.5956C28.4981 45.1915 27.657 44.7353 26.6787 44.6914C26.5616 44.6951 26.4858 44.6503 26.4675 44.5223Z" fill="#0D1213"/>
<path d="M19.432 46.8928H19.6148C20.4866 47.0767 21.3753 47.1687 22.2663 47.167H22.5406C22.632 47.3563 22.9739 47.1369 22.9977 47.4413C21.5723 47.4623 20.1689 47.2347 18.7554 47.1085C17.735 47.0246 16.7276 46.824 15.7529 46.5107C15.5546 46.4407 15.3693 46.3385 15.2043 46.2081C14.7335 45.8589 14.7399 45.7812 15.2756 45.4978C15.7328 45.2573 16.2366 45.2299 16.7175 45.1229C17.4059 44.9703 18.1099 44.8779 18.7975 44.707C18.9187 44.691 19.0414 44.6888 19.1632 44.7006C19.1248 44.9483 18.8962 44.9365 18.7408 44.9694C17.9291 45.138 17.1268 45.3488 16.3371 45.6011C16.1415 45.6632 15.9175 45.6715 15.8937 45.9018C15.8708 46.1176 16.1012 46.1761 16.2594 46.2456C17.2688 46.6871 18.3422 46.8343 19.432 46.8928Z" fill="#0A1011"/>
<path d="M22.995 47.4424C22.9712 47.1371 22.6293 47.3565 22.5378 47.1682C22.6576 47.0292 22.8194 47.0768 22.9657 47.0768C23.6972 47.0768 24.4286 47.0566 25.1536 47.0768C26.1668 47.1021 27.1765 46.9495 28.1369 46.6261C28.1936 46.6069 28.2695 46.6261 28.3134 46.5904C28.5319 46.4323 28.7888 46.2851 28.8318 45.9935C28.8748 45.7018 28.5913 45.6772 28.4185 45.5793C27.6149 45.1222 26.7637 44.8407 25.8265 44.8772C25.789 44.3114 26.2197 44.5756 26.4665 44.5161C26.4821 44.646 26.558 44.6908 26.6841 44.699C27.6624 44.7429 28.5036 45.199 29.3584 45.6031C29.8329 45.828 29.8329 46.1873 29.3831 46.4752C28.6791 46.925 27.8946 47.085 27.0745 47.1764C26.227 47.2678 25.3822 47.2505 24.5356 47.2569C24.3335 47.2569 24.1397 47.2697 23.9989 47.4397H23.7246C23.6332 47.3221 23.5417 47.3221 23.4503 47.4397L22.995 47.4424Z" fill="#141615"/>
<path d="M19.432 46.8928C18.3422 46.8343 17.2688 46.6871 16.2585 46.2456C16.1013 46.177 15.8709 46.1176 15.8928 45.9018C15.9166 45.6715 16.1406 45.6632 16.3362 45.6011C17.1238 45.3494 17.924 45.1388 18.7335 44.9703C18.8889 44.9374 19.1175 44.9493 19.1559 44.7015H19.4302C19.4924 44.793 19.5527 44.793 19.613 44.7015H19.7959C19.8206 44.7045 19.8457 44.7018 19.8692 44.6936C19.8927 44.6855 19.9141 44.6721 19.9317 44.6545C19.9493 44.6369 19.9627 44.6155 19.9708 44.592C19.979 44.5685 19.9817 44.5434 19.9788 44.5187C20.3445 44.5772 20.7102 44.4127 21.0759 44.5187C21.0622 44.6147 21.1116 44.7454 20.9452 44.7591C19.9294 44.8441 18.984 45.1796 18.056 45.5755C17.8732 45.6541 17.6674 45.7656 17.6473 45.9677C17.6272 46.1697 17.8796 46.2346 18.024 46.3132C18.3806 46.5061 18.7408 46.7173 19.1705 46.7109C19.3013 46.7091 19.4156 46.7301 19.432 46.8928Z" fill="#293A31"/>
<path d="M23.4521 47.4478C23.5436 47.3302 23.635 47.3302 23.7264 47.4478C23.635 47.5612 23.5436 47.5612 23.4521 47.4478Z" fill="#131313"/>
<path d="M19.9797 44.5225C19.9826 44.5472 19.9799 44.5723 19.9717 44.5958C19.9636 44.6193 19.9502 44.6407 19.9326 44.6583C19.915 44.6759 19.8936 44.6893 19.8701 44.6975C19.8466 44.7056 19.8215 44.7083 19.7968 44.7054C19.794 44.6807 19.7969 44.6557 19.8051 44.6323C19.8133 44.6088 19.8267 44.5875 19.8442 44.57C19.8618 44.5524 19.8831 44.539 19.9065 44.5308C19.93 44.5226 19.955 44.5197 19.9797 44.5225V44.5225Z" fill="#131313"/>
<path d="M19.6139 44.6999C19.5527 44.7913 19.4923 44.7913 19.4311 44.6999C19.4914 44.6078 19.5524 44.6078 19.6139 44.6999Z" fill="#131313"/>
<path d="M27.0169 36.1119C27.3214 35.7673 27.774 35.7261 28.1671 35.5744C28.7157 35.3623 29.341 35.4144 29.854 35.0734C29.9086 35.0299 29.9776 35.0084 30.0473 35.0131C30.117 35.0178 30.1824 35.0485 30.2306 35.099C30.3577 35.2261 30.2754 35.3531 30.2133 35.4747C29.9938 35.8998 29.5989 36.1732 29.2935 36.5233C28.435 37.484 27.4288 38.3018 26.3129 38.9459C25.054 39.6937 23.7456 40.3437 22.419 40.9708C20.9927 41.6455 19.4695 42.045 18.0359 42.6876C17.5596 42.9015 17.0009 42.886 16.5282 43.1447C16.4058 43.2022 16.2924 43.2773 16.1918 43.3678C15.9321 43.6311 15.6432 43.8422 15.2418 43.7865C15.0946 43.7654 14.9676 43.8011 14.942 43.9821C14.2453 43.9592 13.5705 44.2298 12.8702 44.1476C12.6818 44.1256 12.467 44.1878 12.339 43.9775L12.9918 43.9465C12.9552 43.7408 12.8089 43.6795 12.6818 43.6237C12.541 43.5588 12.3445 43.5214 12.4286 43.3294C12.4645 43.2443 12.5263 43.1726 12.6053 43.1247C12.6842 43.0768 12.7763 43.055 12.8684 43.0624C14.2453 43.2453 15.5198 42.8074 16.7998 42.4225C18.2215 41.9938 19.6341 41.5348 20.989 40.9324C21.6062 40.6581 22.1941 40.3217 22.7984 40.0182C23.0498 39.8921 23.3333 39.8619 23.5993 39.7577C24.285 39.4834 24.8382 39.0172 25.4608 38.6552C26.398 38.1067 27.2574 37.4567 27.9184 36.5745C28.0428 36.409 28.1973 36.2655 28.3472 36.1019C27.965 35.8276 27.5993 35.8934 27.2501 36.1485C27.1367 36.2362 27.0572 36.3377 27.0169 36.1119Z" fill="#EDC804"/>
<path d="M11.0965 43.803C11.3589 43.8075 11.6222 43.8149 11.8846 43.8158C12.0108 43.8158 12.019 43.9072 12.0309 43.9922C11.7155 43.9493 11.3562 44.1221 11.0965 43.803Z" fill="#EDC804"/>
<path d="M10.5488 43.6193C10.7637 43.5928 10.9712 43.5928 11.1075 43.8021C10.9127 43.7683 10.6595 43.9073 10.5488 43.6193Z" fill="#EDC804"/>
<path d="M10.1465 43.4345C10.3029 43.4527 10.5287 43.3202 10.5534 43.6228C10.3943 43.6155 10.2115 43.6585 10.1465 43.4345Z" fill="#EDC804"/>
<path d="M26.9236 47.6214C26.9812 47.3536 27.1979 47.456 27.357 47.4459C27.5783 47.4322 27.8004 47.4459 28.0226 47.4459C27.9668 47.7202 27.7483 47.6141 27.5902 47.6242C27.3689 47.6351 27.1458 47.6233 26.9236 47.6214Z" fill="#141616"/>
<path d="M28.2046 47.4423C28.3874 47.3911 28.5703 47.1341 28.7532 47.4423C28.6777 47.5097 28.5801 47.547 28.4789 47.547C28.3777 47.547 28.28 47.5097 28.2046 47.4423V47.4423Z" fill="#050506"/>
<path d="M27.2053 30.4622C26.6247 30.8727 25.9253 31.0235 25.3008 31.3481C24.9845 31.5126 24.6307 31.6068 24.2951 31.733C24.211 31.7256 24.1333 31.733 24.0976 31.8289L24.1049 31.8216L24.0044 31.8902L23.7136 31.9981C23.5792 31.9807 23.4531 31.9524 23.3891 31.7613C23.6195 31.6763 24.0291 31.8673 23.9952 31.3956C24.0344 31.3767 24.077 31.3662 24.1205 31.3645C24.424 31.3645 24.6489 31.1223 24.9763 31.1378C24.5612 30.6067 24.062 30.7109 23.6131 30.9129C23.3132 31.0482 23.0828 31.0647 22.8158 30.9129V30.9056C22.9164 30.9001 23.0243 30.9148 23.0837 30.8032C23.358 30.6762 23.6268 30.5537 23.8937 30.4202C24.5081 30.1149 25.1902 29.9512 25.7525 29.5362L25.9152 29.5124L26.0195 29.5334C26.1822 29.5042 26.4025 29.6248 26.4766 29.3597C26.7783 29.3543 27.0901 29.3698 27.1952 28.9868C27.2043 28.9784 27.2154 28.9725 27.2273 28.9695C27.2393 28.9664 27.2518 28.9664 27.2638 28.9694C27.5381 28.9511 27.7685 29.0279 27.934 29.2619C28.0062 29.3643 27.9943 29.4027 27.9449 29.5471C27.8041 29.9695 27.2592 30.0143 27.2053 30.4622Z" fill="#E4B508"/>
<path d="M25.9207 29.5134L25.757 29.5372C25.4626 29.5481 25.1847 29.5152 24.8885 29.6798C24.4116 29.9394 23.8772 30.0752 23.3342 30.0747C23.2071 30.0747 23.0599 30.1305 22.9447 29.9979C23.1778 29.6871 23.5472 29.5646 23.8224 29.3351C24.0976 29.1057 23.9093 28.6267 24.1836 28.3433C24.4825 28.208 24.7522 28.005 25.0914 27.9639C25.374 28.3222 25.7561 28.293 26.1429 28.1824C26.1685 28.3981 26.014 28.41 25.9317 28.485C25.8494 28.5599 25.7269 28.6212 25.7982 28.7354C25.8695 28.8497 25.981 28.7994 26.077 28.7354C26.1255 28.7016 26.1758 28.6394 26.2233 28.644C26.4117 28.644 26.653 28.6056 26.7765 28.7034C26.9758 28.8625 26.6457 28.9923 26.6549 29.1669L26.4994 29.1925C26.376 29.1678 26.2983 29.2072 26.2882 29.3425L26.067 29.3799C25.9628 29.3626 25.9289 29.4247 25.9207 29.5134Z" fill="#D4DBD7"/>
<path d="M26.4995 29.1862L26.6549 29.1606C26.8643 29.1899 26.9804 28.9293 27.2035 28.9878C27.0983 29.3709 26.7866 29.3536 26.4848 29.3609L26.4693 29.3444C26.4757 29.2923 26.4858 29.2393 26.4995 29.1862Z" fill="#D3A31F"/>
<path d="M19.1504 25.4215C19.4247 25.2304 19.773 25.2039 20.029 24.9836C20.1652 24.9836 20.2558 24.905 20.3444 24.8172L21.1408 24.5676L21.2843 24.659C20.9186 24.9397 20.4615 25.0576 20.0711 25.299C19.8458 25.3277 19.6294 25.4048 19.4366 25.5248C19.3415 25.49 19.2071 25.5623 19.1504 25.4215Z" fill="#0D4135"/>
<path d="M9.81919 37.0078C9.85668 37.2464 9.60342 37.166 9.49371 37.3131C9.81005 37.3881 9.95085 37.5636 9.93439 37.9037C9.90971 38.5555 10.0514 38.6753 10.6859 38.6716C10.7616 38.6711 10.8372 38.6776 10.9118 38.6908C10.9319 38.6908 10.9456 38.732 10.9739 38.7685C10.9469 38.7964 10.9161 38.8204 10.8825 38.8398C10.7262 38.902 10.4747 38.7438 10.4089 38.9879C10.3376 39.2567 10.5918 39.1881 10.7335 39.2357C10.7533 39.2394 10.7715 39.249 10.7857 39.2632C10.7999 39.2775 10.8095 39.2957 10.8131 39.3155C10.8168 39.3353 10.8144 39.3557 10.8062 39.3741C10.798 39.3925 10.7845 39.408 10.7673 39.4185C10.5214 39.6471 10.3577 39.9515 9.93073 39.967C9.45636 39.9888 8.99135 40.1067 8.56388 40.3135C8.5831 39.9365 8.53194 39.5592 8.41302 39.2009C8.27953 38.8188 8.41302 38.4257 8.36456 38.0445C8.33073 37.7867 8.43953 37.3899 7.96045 37.3854C8.01988 37.3424 8.07473 37.2711 8.14331 37.2601C8.69645 37.1687 9.25782 37.0901 9.81919 37.0078Z" fill="#D4DBD7"/>
<path d="M22.8158 30.9139C23.0828 31.062 23.3132 31.0456 23.613 30.9139C24.0583 30.7119 24.5612 30.6077 24.9762 31.1388C24.6489 31.1233 24.4277 31.3628 24.1205 31.3655C24.077 31.3671 24.0344 31.3777 23.9952 31.3966C24.0318 31.8665 23.6194 31.6754 23.389 31.7623C23.453 31.9533 23.5792 31.9817 23.7136 31.999C23.3625 32.3062 22.8405 32.2797 22.5031 32.6152C22.3138 32.6499 22.0972 32.6152 21.9737 32.8181C21.9615 32.8117 21.9474 32.8098 21.9339 32.8126C21.9204 32.8154 21.9083 32.8229 21.8997 32.8337C21.8269 32.8275 21.7537 32.8397 21.6869 32.8693C21.6201 32.8988 21.5618 32.9448 21.5175 33.0028C21.3977 33.011 21.2633 32.9699 21.1838 33.1061C18.749 34.0139 16.3216 34.9436 13.854 35.7572H13.5943C13.373 35.8039 13.0796 35.5945 12.9433 35.9401C12.9359 35.9483 12.926 35.9539 12.9151 35.9561C12.9043 35.9582 12.893 35.9568 12.883 35.952C12.4588 35.8706 12.0958 36.2454 11.6652 36.1156C11.4823 36.1037 11.2702 36.1074 11.23 35.888C11.1989 35.7234 11.3488 35.6247 11.5042 35.5781C11.635 35.5378 11.8517 35.6119 11.8316 35.376C11.816 35.185 11.6697 35.067 11.4823 35.0167C11.582 34.9116 11.6935 34.8339 11.848 34.8641C11.8484 34.8936 11.8568 34.9224 11.8722 34.9475C11.8877 34.9727 11.9096 34.9932 11.9358 35.0068C11.9619 35.0205 11.9913 35.0269 12.0207 35.0252C12.0502 35.0236 12.0786 35.014 12.1031 34.9976C12.1945 34.9436 12.04 34.9061 12.0318 34.8476C12.0894 34.8366 12.1441 34.814 12.1927 34.7812C12.2413 34.7483 12.2827 34.7059 12.3143 34.6566L12.488 34.6291C12.5594 34.6488 12.6352 34.6445 12.7039 34.6169C12.7726 34.5894 12.8304 34.54 12.8684 34.4765L13.0366 34.4536C13.1362 34.4628 13.2414 34.4929 13.3036 34.375C13.5358 34.3101 13.7717 34.2562 13.9993 34.1775C14.7381 33.9197 15.4695 33.6391 16.2119 33.3923C17.5056 32.9635 18.7719 32.4717 20.0519 31.9926C20.9772 31.6434 21.8649 31.1973 22.8158 30.9139Z" fill="#E4BD10"/>
<path d="M11.4796 35.0149C11.667 35.0652 11.8133 35.1831 11.8288 35.3742C11.8489 35.61 11.6322 35.536 11.5015 35.5762C11.3488 35.6228 11.1989 35.7216 11.2272 35.8861C11.2674 36.1055 11.4823 36.1018 11.6624 36.1137C11.5884 36.4483 11.2263 36.3624 11.069 36.388C10.4674 36.4794 9.93898 36.8451 9.32184 36.8396C9.18287 36.8396 8.99178 36.9109 8.9351 36.7061C8.87841 36.5013 8.8967 36.3021 9.09235 36.1786C9.44618 35.9556 9.64641 35.4884 10.1529 35.4994C10.1648 35.4994 10.1785 35.419 10.1913 35.376C10.3742 35.3294 10.6348 35.5241 10.7399 35.2142C10.8734 35.1694 11.0389 35.1849 11.1129 35.0222L11.4796 35.0149Z" fill="#E4B508"/>
<path d="M13.5943 35.7537H13.854C13.4508 36.1139 12.9219 36.3005 12.382 36.273C12.4834 36.0636 12.7477 36.1111 12.883 35.9475C12.893 35.9523 12.9043 35.9538 12.9151 35.9516C12.926 35.9495 12.9359 35.9439 12.9433 35.9356C13.0585 35.9526 13.176 35.9451 13.2881 35.9138C13.4003 35.8825 13.5046 35.8279 13.5943 35.7537V35.7537Z" fill="#D4DBD7"/>
<path d="M11.0965 36.6431C10.9676 36.9448 10.7079 37.017 10.4163 37.0225C10.2197 37.0225 10.0222 37.0161 9.82562 37.0115C10.2115 36.7683 10.6512 36.6897 11.0965 36.6431Z" fill="#D4DBD7"/>
<path d="M12.0254 36.6604L11.1111 36.6476C11.4954 36.4206 11.9304 36.2933 12.3765 36.2773C12.4341 36.5635 11.9952 36.3989 12.0254 36.6604Z" fill="#D4DBD7"/>
<path d="M11.4796 35.0149L11.1194 35.0213C10.9564 35.0322 10.799 35.0848 10.6622 35.1739L10.1639 35.2891C9.98564 35.28 9.70679 35.2891 9.91433 35.0149C10.0972 34.7827 10.387 34.6318 10.6458 34.4663C10.8222 34.3548 11.2291 34.3941 10.8067 34.0275C10.6522 33.8941 10.6412 33.5924 10.5653 33.3675L11.0224 33.2761C11.0654 33.3465 11.0938 33.3328 11.1139 33.2596C11.2144 33.1518 11.3516 33.1883 11.4796 33.1682C11.7063 33.4425 11.8298 33.7579 12.3637 33.5951C12.8055 33.4596 13.2689 33.4084 13.7296 33.4443C13.1299 33.9544 12.435 34.2762 11.6926 34.5413C11.8828 34.8366 12.126 34.6016 12.3244 34.6556C12.2923 34.7046 12.2505 34.7466 12.2016 34.779C12.1527 34.8114 12.0977 34.8335 12.04 34.8439L11.8572 34.8604C11.6908 34.832 11.5829 34.9088 11.4796 35.0149Z" fill="#D4DBD7"/>
<path d="M10.1639 35.2892L10.6686 35.1731C10.694 35.1889 10.7209 35.2021 10.749 35.2124C10.6402 35.5224 10.3833 35.3276 10.2005 35.3742L10.1639 35.2892Z" fill="#D3A31F"/>
<path d="M20.3445 24.8173C20.2531 24.9087 20.1616 24.9882 20.0291 24.9836C19.6771 24.9352 19.3616 24.7587 18.9868 24.745C18.7299 24.735 18.5424 24.4434 18.4574 24.1755C18.4179 24.0345 18.3621 23.8986 18.291 23.7705C18.4044 23.5941 18.6247 23.7632 18.7427 23.6069C18.7427 23.4624 18.4821 23.499 18.5223 23.3198H18.7884C18.8752 23.2951 18.9612 23.2668 19.049 23.2467C19.0928 23.2319 19.1404 23.233 19.1835 23.2497C19.2266 23.2664 19.2624 23.2977 19.2848 23.3381C19.3571 23.4716 19.2135 23.4643 19.1623 23.5209C18.8487 23.8793 18.942 24.0695 19.4064 24.2523C19.6665 24.3574 19.9426 24.4173 20.2229 24.4296C20.5722 24.4342 20.36 24.6655 20.3445 24.8173Z" fill="#D4DBD7"/>
<path d="M12.3143 34.6567C12.1159 34.6028 11.8727 34.8395 11.6825 34.5424C12.4249 34.2773 13.1198 33.9555 13.7195 33.4454C13.2588 33.4096 12.7954 33.4607 12.3536 33.5963C11.8197 33.759 11.6962 33.4427 11.4695 33.1693C11.8842 32.9834 12.3159 32.838 12.7586 32.7351C12.7586 32.8896 12.7943 32.9883 12.9808 33.0094C13.6043 33.0679 14.1931 32.9179 14.771 32.7214C15.2839 32.5495 15.7931 32.3713 16.3253 32.2798C16.5297 32.2337 16.7305 32.1726 16.9259 32.097C17.6574 31.8621 18.2919 31.3401 19.1083 31.3657C19.1616 31.3725 19.2156 31.3613 19.2617 31.3337C19.3078 31.3062 19.3433 31.264 19.3625 31.2139C19.5271 30.7952 19.7977 30.7568 20.1515 30.979C20.1646 30.9867 20.1793 30.9912 20.1945 30.9922C20.2096 30.9933 20.2248 30.9908 20.2389 30.9849C20.2529 30.9791 20.2653 30.97 20.2753 30.9585C20.2852 30.947 20.2923 30.9334 20.296 30.9186C20.3435 30.8272 19.8187 30.766 20.3161 30.606C20.7129 30.478 21.3072 30.4634 21.3803 29.8134C21.394 29.6891 21.5632 29.626 21.7223 29.6799C22.0514 29.7951 22.2708 29.5501 22.4756 29.3901C22.7353 29.1917 22.4811 29.189 22.3431 29.1661C22.94 28.8557 23.5545 28.5803 24.1835 28.3416C23.9092 28.6249 24.0866 29.1149 23.8224 29.3334C23.5582 29.5519 23.1778 29.6854 22.9447 29.9962C23.0635 30.1288 23.2071 30.073 23.3342 30.073C23.8771 30.0735 24.4116 29.9377 24.8884 29.6781C25.1847 29.5135 25.4626 29.5464 25.757 29.5355C25.1947 29.9505 24.5127 30.1141 23.8983 30.4195C23.6313 30.553 23.3588 30.6755 23.0882 30.8025C22.9876 30.808 22.8752 30.7797 22.8203 30.9049V30.9122C21.8695 31.1956 20.9817 31.6436 20.0555 31.991C18.781 32.47 17.5111 32.9618 16.2155 33.3906C15.4731 33.6374 14.7417 33.9181 14.003 34.1759C13.7753 34.2545 13.5394 34.3084 13.3072 34.3733C13.2158 34.3733 13.1088 34.3541 13.0402 34.4519L12.872 34.4739C12.7147 34.4501 12.5749 34.4684 12.4917 34.6275L12.3143 34.6567Z" fill="#DBE0E1"/>
<path d="M22.3449 29.1587C22.483 29.1815 22.7371 29.1843 22.4775 29.3827C22.2681 29.5426 22.0532 29.7876 21.7241 29.6725C21.5678 29.6185 21.3959 29.6816 21.3822 29.8059C21.309 30.4559 20.7147 30.4705 20.3179 30.5985C19.8206 30.7585 20.3454 30.8207 20.2978 30.9112C20.2941 30.9259 20.287 30.9396 20.2771 30.9511C20.2672 30.9626 20.2547 30.9716 20.2407 30.9775C20.2267 30.9833 20.2115 30.9858 20.1963 30.9848C20.1812 30.9838 20.1665 30.9792 20.1534 30.9715C19.7995 30.7539 19.5289 30.7887 19.3643 31.2065C19.3451 31.2566 19.3096 31.2988 19.2635 31.3263C19.2174 31.3538 19.1634 31.3651 19.1102 31.3582C18.2937 31.3354 17.6583 31.8574 16.9278 32.0896C16.7323 32.1651 16.5315 32.2263 16.3271 32.2724C15.794 32.3638 15.2848 32.5421 14.7728 32.7139C14.194 32.9123 13.6052 33.065 12.9817 33.0037C12.7988 32.9855 12.755 32.8867 12.7595 32.7295C13.9572 32.3218 15.1751 31.9689 16.3335 31.4496C17.3648 31.1854 18.3248 30.7256 19.3159 30.3526C20.0638 30.071 20.797 29.7493 21.5367 29.4457C21.6372 29.4183 21.7323 29.3845 21.7195 29.251C21.9408 29.3205 22.1364 29.2007 22.3449 29.1587Z" fill="#E4E9EB"/>
<path d="M21.5367 29.4532C20.797 29.7567 20.0638 30.0785 19.3159 30.36C18.3248 30.733 17.3648 31.1928 16.3335 31.457L16.2302 31.3501L16.5959 31.1718C16.6658 31.1699 16.7346 31.1532 16.7976 31.1228C16.8607 31.0924 16.9166 31.0489 16.9616 30.9954C17.5376 30.9259 18.0404 30.637 18.5744 30.4469C19.3978 30.1649 20.2016 29.829 20.9808 29.4413L21.2551 29.3498L21.3465 29.2639H21.5339L21.5367 29.4532Z" fill="#CACDCA"/>
<path d="M11.1093 33.2578C11.0919 33.331 11.0635 33.3447 11.0178 33.2743C11.0498 33.2697 11.08 33.2642 11.1093 33.2578Z" fill="#DBE0E1"/>
<path d="M17.1454 26.2243C17.3337 25.9893 17.6025 25.9263 17.8768 25.8833C17.7461 26.0661 17.8594 26.0661 18.0039 26.0771C18.2901 26.0981 18.5077 25.8769 18.7838 25.8687L18.7948 25.8824C18.4382 26.3395 17.8969 26.3121 17.4041 26.4127C17.4306 26.3541 17.5166 26.3093 17.4526 26.2298C17.3557 26.1036 17.2514 26.217 17.1454 26.2243Z" fill="#DBE0E1"/>
<path d="M14.7719 27.3752C14.7344 27.5435 14.6073 27.5224 14.4848 27.5106L14.7719 27.3752Z" fill="#DBE0E1"/>
<path d="M25.3712 36.7519C25.4663 36.6564 25.5809 36.5825 25.7071 36.5352C25.8333 36.4879 25.9682 36.4682 26.1026 36.4776C25.9207 36.7318 25.7104 36.9128 25.3712 36.7519Z" fill="#EDC804"/>
<path d="M26.6503 36.2947C26.6476 36.27 26.6504 36.245 26.6586 36.2216C26.6668 36.1982 26.6802 36.1769 26.6978 36.1593C26.7153 36.1417 26.7366 36.1284 26.7601 36.1201C26.7835 36.1119 26.8085 36.1091 26.8332 36.1119C26.8359 36.1366 26.8331 36.1615 26.8249 36.185C26.8167 36.2084 26.8033 36.2297 26.7857 36.2473C26.7682 36.2648 26.7469 36.2782 26.7234 36.2864C26.7 36.2947 26.675 36.2975 26.6503 36.2947V36.2947Z" fill="#EDC804"/>
<path d="M30.7637 34.2835C31.1373 34.0531 31.5119 33.8234 31.8873 33.5942C32.0428 33.5028 32.1708 33.6536 32.317 33.6463C32.3637 34.204 32.1342 34.5724 31.5856 34.7305C31.5546 34.7364 31.5241 34.7443 31.4942 34.7543C30.7628 35.0834 30.7628 35.0843 30.7637 34.2835Z" fill="#E4B508"/>
<path d="M21.8037 44.5297C21.672 44.7016 21.544 44.8341 21.4507 44.5032L21.8037 44.5297Z" fill="#0C0E0D"/>
<path d="M21.1829 33.1006C21.2624 32.9644 21.3968 33.0092 21.5166 32.9973C21.7159 33.033 21.7762 33.1646 21.6546 33.3063C21.5541 33.4225 21.4114 33.3905 21.3493 33.2222C21.337 33.1876 21.3145 33.1574 21.2848 33.1358C21.2551 33.1141 21.2196 33.1018 21.1829 33.1006Z" fill="#DBE0E1"/>
<path d="M21.8997 32.8283C21.9083 32.8175 21.9204 32.81 21.9339 32.8072C21.9474 32.8043 21.9615 32.8063 21.9737 32.8127C22.035 32.852 22.099 32.9178 22.0066 32.959C21.9143 33.0001 21.9143 32.8959 21.8997 32.8283Z" fill="#DBE0E1"/>
<path d="M10.0835 37.3379L10.1593 37.3699C10.1484 37.3955 10.1429 37.4348 10.1246 37.4412C10.1063 37.4476 10.0761 37.4238 10.0505 37.4129L10.0835 37.3379Z" fill="#D4DBD7"/>
<path d="M28.9753 30.1699C28.9634 30.2494 28.9013 30.2512 28.8437 30.2512C28.786 30.2512 28.7147 30.2467 28.7156 30.168C28.7166 30.0894 28.787 30.0867 28.8455 30.0867C28.904 30.0867 28.9653 30.0912 28.9753 30.1699Z" fill="#CACDCA"/>
<path d="M24.0958 31.829C24.1314 31.7376 24.2091 31.7257 24.2933 31.733C24.2762 31.7691 24.2473 31.7982 24.2114 31.8157C24.1755 31.8331 24.1347 31.8378 24.0958 31.829V31.829Z" fill="#E4BD10"/>
<path d="M24.0025 31.8903L24.1031 31.8218C24.0948 31.8812 24.0574 31.8977 24.0025 31.8903Z" fill="#E4BD10"/>
<path d="M24.7559 46.0188C24.868 45.9704 24.9939 45.9649 25.1097 46.0033C25.0596 46.0422 24.9987 46.0646 24.9353 46.0674C24.8719 46.0702 24.8092 46.0532 24.7559 46.0188V46.0188Z" fill="#D3A31F"/>
<path d="M16.9644 30.9927C16.9193 31.0463 16.8635 31.0897 16.8004 31.1201C16.7374 31.1505 16.6686 31.1672 16.5987 31.1691C16.5987 30.9579 16.3774 31.0201 16.2549 30.9076C16.542 30.6818 16.7449 30.9131 16.9644 30.9927Z" fill="#D4DBD7"/>
<path d="M18.7866 25.8731C18.5123 25.8813 18.2928 26.1026 18.0067 26.0816C17.8622 26.0706 17.7488 26.0669 17.8796 25.8877L18.611 25.5815L19.1541 25.426C19.2108 25.5668 19.3452 25.4946 19.4403 25.5293C19.2629 25.7259 18.9603 25.672 18.7866 25.8731Z" fill="#ABABA8"/>
<path d="M21.5367 29.4532V29.2603H21.7195C21.7314 29.3919 21.64 29.4257 21.5367 29.4532Z" fill="#ABABA8"/>
<path d="M21.3492 29.2556L21.2578 29.3416L21.3492 29.2556Z" fill="#DBE0E1"/>
<path d="M22.2654 47.1672C21.3744 47.1688 20.4857 47.0769 19.6139 46.8929C19.6127 46.8663 19.6177 46.8398 19.6286 46.8155C19.6394 46.7911 19.6558 46.7697 19.6764 46.7528C19.697 46.7359 19.7213 46.7241 19.7473 46.7183C19.7732 46.7124 19.8002 46.7127 19.8261 46.7192C20.5831 46.8106 21.3301 46.9807 22.0962 46.9935C22.2059 46.9907 22.2489 47.0703 22.2654 47.1672Z" fill="#131916"/>
<path d="M26.067 29.3734L26.2882 29.3359L26.4647 29.3442L26.4802 29.3606C26.4071 29.6239 26.1867 29.5051 26.0231 29.5343C26.0386 29.4813 26.0523 29.4274 26.067 29.3734Z" fill="#D3A31F"/>
<path d="M22.8204 30.9066C22.8752 30.7813 22.9877 30.8097 23.0883 30.8042C23.0288 30.9157 22.92 30.9011 22.8204 30.9066Z" fill="#E4BD10"/>
<path d="M26.067 29.3736C26.0524 29.4275 26.0387 29.4815 26.024 29.5345L25.9198 29.5135C25.9289 29.4248 25.9628 29.3626 26.067 29.3736Z" fill="#CACDCA"/>
<path d="M26.4647 29.347L26.2883 29.3387C26.2983 29.2034 26.3797 29.1641 26.4995 29.1888C26.4858 29.2391 26.4757 29.2921 26.4647 29.347Z" fill="#CACDCA"/>
<path d="M13.5943 35.7536C13.5047 35.828 13.4004 35.8827 13.2883 35.9142C13.1761 35.9457 13.0586 35.9533 12.9434 35.9364C13.0796 35.5908 13.3731 35.8002 13.5943 35.7536Z" fill="#D3A31F"/>
<path d="M11.8471 34.8614L12.03 34.845C12.0382 34.9062 12.1918 34.941 12.1013 34.9949C12.0768 35.0112 12.0485 35.0205 12.0191 35.022C11.9898 35.0235 11.9606 35.0171 11.9346 35.0035C11.9087 34.9898 11.8868 34.9694 11.8714 34.9444C11.856 34.9195 11.8476 34.8908 11.8471 34.8614V34.8614Z" fill="#E4B508"/>
<path d="M12.489 34.6292C12.5722 34.4701 12.712 34.4518 12.8693 34.4756C12.8316 34.5394 12.7739 34.5891 12.7051 34.6168C12.6364 34.6446 12.5604 34.6489 12.489 34.6292V34.6292Z" fill="#D4DBD7"/>
<path d="M13.0375 34.4537C13.106 34.3559 13.2084 34.3751 13.3044 34.3751C13.2423 34.493 13.1371 34.4665 13.0375 34.4537Z" fill="#D4DBD7"/>
<path d="M10.7463 35.2125C10.7182 35.2022 10.6912 35.189 10.6658 35.1732C10.8026 35.084 10.96 35.0315 11.123 35.0205C11.0453 35.1832 10.8798 35.1677 10.7463 35.2125Z" fill="#CACDCA"/>
</g>
<defs>
<clipPath id="clip0_801_1194">
<rect width="32" height="32" fill="white" transform="translate(5 16)"/>
</clipPath>
</defs>
</svg>
