<svg width="116" height="56" viewBox="0 0 116 56" fill="none" xmlns="http://www.w3.org/2000/svg">
<rect width="116" height="56" fill="white"/>
<path d="M53.2575 30.8872C53.0477 31.1511 52.7974 31.388 52.5064 31.5977C52.2628 31.7737 51.9583 31.9361 51.5929 32.085C51.2274 32.2338 50.8011 32.3083 50.3139 32.3083C49.7793 32.3083 49.282 32.2135 48.8218 32.0241C48.3684 31.8346 47.9726 31.5741 47.6342 31.2425C47.3026 30.9109 47.0387 30.5252 46.8425 30.0853C46.653 29.6387 46.5583 29.1617 46.5583 28.6541C46.5583 28.1466 46.653 27.6729 46.8425 27.2331C47.0387 26.7865 47.3026 26.3974 47.6342 26.0658C47.9726 25.7342 48.3684 25.4737 48.8218 25.2842C49.282 25.0947 49.7793 25 50.3139 25C50.8011 25 51.2241 25.0711 51.5827 25.2132C51.9413 25.3553 52.2425 25.5109 52.4861 25.6801C52.7703 25.8831 53.0105 26.1132 53.2068 26.3703L52.4962 27.0808C52.3474 26.8846 52.168 26.7053 51.9583 26.5429C51.7756 26.4075 51.5489 26.2857 51.2782 26.1774C51.0075 26.0692 50.6861 26.015 50.3139 26.015C49.9485 26.015 49.6034 26.0827 49.2786 26.218C48.9605 26.3534 48.6797 26.5429 48.4361 26.7865C48.1992 27.0233 48.0132 27.3041 47.8778 27.6289C47.7425 27.947 47.6748 28.2887 47.6748 28.6541C47.6748 29.0195 47.7425 29.3647 47.8778 29.6895C48.0132 30.0075 48.1992 30.2883 48.4361 30.532C48.6797 30.7688 48.9605 30.9549 49.2786 31.0902C49.6034 31.2256 49.9485 31.2932 50.3139 31.2932C50.6861 31.2932 51.0109 31.2357 51.2883 31.1207C51.5658 30.9989 51.7959 30.8703 51.9786 30.735C52.2019 30.5726 52.3913 30.3865 52.547 30.1767L53.2575 30.8872Z" fill="#131722"/>
<path d="M57.8771 32.3083C57.3425 32.3083 56.8452 32.2135 56.385 32.0241C55.9316 31.8346 55.5358 31.5741 55.1974 31.2425C54.8658 30.9109 54.6019 30.5252 54.4057 30.0853C54.2162 29.6387 54.1215 29.1617 54.1215 28.6541C54.1215 28.1466 54.2162 27.6729 54.4057 27.2331C54.6019 26.7865 54.8658 26.3974 55.1974 26.0658C55.5358 25.7342 55.9316 25.4737 56.385 25.2842C56.8452 25.0947 57.3425 25 57.8771 25C58.4117 25 58.9057 25.0947 59.3591 25.2842C59.8192 25.4737 60.2151 25.7342 60.5467 26.0658C60.885 26.3974 61.1489 26.7865 61.3384 27.2331C61.5346 27.6729 61.6328 28.1466 61.6328 28.6541C61.6328 29.1617 61.5346 29.6387 61.3384 30.0853C61.1489 30.5252 60.885 30.9109 60.5467 31.2425C60.2151 31.5741 59.8192 31.8346 59.3591 32.0241C58.9057 32.2135 58.4117 32.3083 57.8771 32.3083ZM57.8771 31.2932C58.2425 31.2932 58.5843 31.2256 58.9023 31.0902C59.2271 30.9549 59.5079 30.7688 59.7448 30.532C59.9884 30.2883 60.1779 30.0075 60.3132 29.6895C60.4485 29.3647 60.5162 29.0195 60.5162 28.6541C60.5162 28.2887 60.4485 27.947 60.3132 27.6289C60.1779 27.3041 59.9884 27.0233 59.7448 26.7865C59.5079 26.5429 59.2271 26.3534 58.9023 26.218C58.5843 26.0827 58.2425 26.015 57.8771 26.015C57.5117 26.015 57.1666 26.0827 56.8418 26.218C56.5237 26.3534 56.2429 26.5429 55.9993 26.7865C55.7625 27.0233 55.5764 27.3041 55.441 27.6289C55.3057 27.947 55.238 28.2887 55.238 28.6541C55.238 29.0195 55.3057 29.3647 55.441 29.6895C55.5764 30.0075 55.7625 30.2883 55.9993 30.532C56.2429 30.7688 56.5237 30.9549 56.8418 31.0902C57.1666 31.2256 57.5117 31.2932 57.8771 31.2932Z" fill="#131722"/>
<path d="M63.2021 32.2068V25.1015H66.0442C66.3622 25.1015 66.6498 25.1523 66.907 25.2538C67.1709 25.3553 67.3976 25.4906 67.5871 25.6598C67.7765 25.8289 67.922 26.0286 68.0235 26.2586C68.125 26.482 68.1758 26.7222 68.1758 26.9793C68.1758 27.2432 68.1318 27.4665 68.0438 27.6492C67.9559 27.8252 67.8611 27.9673 67.7596 28.0756C67.631 28.2109 67.4889 28.3158 67.3333 28.3902V28.4105C67.5566 28.5053 67.7562 28.6338 67.9322 28.7962C68.0878 28.9316 68.2265 29.1075 68.3483 29.3241C68.4701 29.5406 68.531 29.8079 68.531 30.1259C68.531 30.4034 68.4735 30.6707 68.3585 30.9278C68.2435 31.1782 68.081 31.3981 67.8713 31.5876C67.6683 31.7771 67.4247 31.9293 67.1404 32.0444C66.8562 32.1526 66.5416 32.2068 66.1965 32.2068H63.2021ZM66.1965 31.2425C66.5551 31.2425 66.8461 31.1308 67.0694 30.9075C67.2995 30.6842 67.4145 30.4068 67.4145 30.0752C67.4145 29.7436 67.2995 29.4662 67.0694 29.2429C66.8461 29.0195 66.5551 28.9079 66.1965 28.9079H64.3186V31.2425H66.1965ZM66.0442 27.9944C66.3487 27.9944 66.5923 27.9064 66.775 27.7304C66.9645 27.5477 67.0592 27.3143 67.0592 27.0301C67.0592 26.7459 66.9645 26.5158 66.775 26.3398C66.5923 26.1571 66.3487 26.0658 66.0442 26.0658H64.3186V27.9944H66.0442Z" fill="#131722"/>
<path d="M75.1256 25.1015V26.1673H71.2177V27.9944H74.3136V29.0601H71.2177V31.141H75.2271V32.2068H70.1012V25.1015H75.1256Z" fill="#131722"/>
<path d="M75.8909 25.1015H81.2705V26.1673H79.139V32.2068H78.0224V26.1673H75.8909V25.1015Z" fill="#131722"/>
<path d="M83.6083 25.1015V28.5526L86.8057 25.1015H88.2267L85.4861 28.0451L88.4297 32.2068H87.0594L84.7248 28.8571L83.6083 30.0752V32.2068H82.4918V25.1015H83.6083Z" fill="#131722"/>
<path d="M92.7393 32.3083C92.2047 32.3083 91.7073 32.2135 91.2472 32.0241C90.7938 31.8346 90.3979 31.5741 90.0596 31.2425C89.728 30.9109 89.4641 30.5252 89.2679 30.0853C89.0784 29.6387 88.9836 29.1617 88.9836 28.6541C88.9836 28.1466 89.0784 27.6729 89.2679 27.2331C89.4641 26.7865 89.728 26.3974 90.0596 26.0658C90.3979 25.7342 90.7938 25.4737 91.2472 25.2842C91.7073 25.0947 92.2047 25 92.7393 25C93.2739 25 93.7678 25.0947 94.2212 25.2842C94.6814 25.4737 95.0773 25.7342 95.4088 26.0658C95.7472 26.3974 96.0111 26.7865 96.2006 27.2331C96.3968 27.6729 96.4949 28.1466 96.4949 28.6541C96.4949 29.1617 96.3968 29.6387 96.2006 30.0853C96.0111 30.5252 95.7472 30.9109 95.4088 31.2425C95.0773 31.5741 94.6814 31.8346 94.2212 32.0241C93.7678 32.2135 93.2739 32.3083 92.7393 32.3083ZM92.7393 31.2932C93.1047 31.2932 93.4464 31.2256 93.7645 31.0902C94.0893 30.9549 94.3701 30.7688 94.6069 30.532C94.8506 30.2883 95.04 30.0075 95.1754 29.6895C95.3107 29.3647 95.3784 29.0195 95.3784 28.6541C95.3784 28.2887 95.3107 27.947 95.1754 27.6289C95.04 27.3041 94.8506 27.0233 94.6069 26.7865C94.3701 26.5429 94.0893 26.3534 93.7645 26.218C93.4464 26.0827 93.1047 26.015 92.7393 26.015C92.3739 26.015 92.0288 26.0827 91.7039 26.218C91.3859 26.3534 91.1051 26.5429 90.8615 26.7865C90.6246 27.0233 90.4385 27.3041 90.3032 27.6289C90.1679 27.947 90.1002 28.2887 90.1002 28.6541C90.1002 29.0195 90.1679 29.3647 90.3032 29.6895C90.4385 30.0075 90.6246 30.2883 90.8615 30.532C91.1051 30.7688 91.3859 30.9549 91.7039 31.0902C92.0288 31.2256 92.3739 31.2932 92.7393 31.2932Z" fill="#131722"/>
<path d="M98.0643 25.1015H102.632V26.1673H99.1808V32.2068H98.0643V25.1015Z" fill="#131722"/>
<path d="M107.152 32.3083C106.617 32.3083 106.12 32.2135 105.66 32.0241C105.207 31.8346 104.811 31.5741 104.472 31.2425C104.141 30.9109 103.877 30.5252 103.681 30.0853C103.491 29.6387 103.396 29.1617 103.396 28.6541C103.396 28.1466 103.491 27.6729 103.681 27.2331C103.877 26.7865 104.141 26.3974 104.472 26.0658C104.811 25.7342 105.207 25.4737 105.66 25.2842C106.12 25.0947 106.617 25 107.152 25C107.687 25 108.181 25.0947 108.634 25.2842C109.094 25.4737 109.49 25.7342 109.822 26.0658C110.16 26.3974 110.424 26.7865 110.613 27.2331C110.81 27.6729 110.908 28.1466 110.908 28.6541C110.908 29.1617 110.81 29.6387 110.613 30.0853C110.424 30.5252 110.16 30.9109 109.822 31.2425C109.49 31.5741 109.094 31.8346 108.634 32.0241C108.181 32.2135 107.687 32.3083 107.152 32.3083ZM107.152 31.2932C107.517 31.2932 107.859 31.2256 108.177 31.0902C108.502 30.9549 108.783 30.7688 109.02 30.532C109.263 30.2883 109.453 30.0075 109.588 29.6895C109.723 29.3647 109.791 29.0195 109.791 28.6541C109.791 28.2887 109.723 27.947 109.588 27.6289C109.453 27.3041 109.263 27.0233 109.02 26.7865C108.783 26.5429 108.502 26.3534 108.177 26.218C107.859 26.0827 107.517 26.015 107.152 26.015C106.787 26.015 106.441 26.0827 106.117 26.218C105.799 26.3534 105.518 26.5429 105.274 26.7865C105.037 27.0233 104.851 27.3041 104.716 27.6289C104.581 27.947 104.513 28.2887 104.513 28.6541C104.513 29.0195 104.581 29.3647 104.716 29.6895C104.851 30.0075 105.037 30.2883 105.274 30.532C105.518 30.7688 105.799 30.9549 106.117 31.0902C106.441 31.2256 106.787 31.2932 107.152 31.2932Z" fill="#131722"/>
<path d="M46 46.7293V44.141H46.406C46.6361 43.9109 46.8391 43.6132 47.015 43.2477C47.1707 42.9365 47.3094 42.5338 47.4312 42.0398C47.5598 41.5459 47.6241 40.9436 47.6241 40.2331V38.1015H52.2425V44.141H53.1053V46.7293H51.9887V45.2068H47.1165V46.7293H46ZM51.1259 44.141V39.1673H48.7406V40.2331C48.7406 40.9504 48.6831 41.556 48.568 42.05C48.453 42.5372 48.3244 42.9365 48.1823 43.2477C48.0199 43.6132 47.8338 43.9075 47.6241 44.1308V44.141H51.1259Z" fill="#131722"/>
<path d="M59.3945 38.1015V39.1673H55.4866V40.9944H58.5825V42.0601H55.4866V44.141H59.496V45.2068H54.3701V38.1015H59.3945Z" fill="#131722"/>
<path d="M60.1598 38.1015H65.5395V39.1673H63.4079V45.2068H62.2913V39.1673H60.1598V38.1015Z" fill="#131722"/>
<path d="M73.0032 43.8872C72.7934 44.1511 72.543 44.388 72.252 44.5977C72.0084 44.7737 71.7039 44.9361 71.3385 45.085C70.9731 45.2338 70.5468 45.3083 70.0595 45.3083C69.525 45.3083 69.0276 45.2135 68.5674 45.0241C68.1141 44.8346 67.7182 44.5741 67.3799 44.2425C67.0483 43.9109 66.7844 43.5252 66.5881 43.0853C66.3986 42.6387 66.3039 42.1617 66.3039 41.6541C66.3039 41.1466 66.3986 40.6729 66.5881 40.2331C66.7844 39.7865 67.0483 39.3974 67.3799 39.0658C67.7182 38.7342 68.1141 38.4737 68.5674 38.2842C69.0276 38.0947 69.525 38 70.0595 38C70.5468 38 70.9697 38.0711 71.3283 38.2132C71.687 38.3553 71.9881 38.5109 72.2317 38.6801C72.5159 38.8831 72.7562 39.1132 72.9524 39.3703L72.2419 40.0808C72.093 39.8846 71.9137 39.7053 71.7039 39.5429C71.5212 39.4075 71.2945 39.2857 71.0238 39.1774C70.7532 39.0692 70.4317 39.015 70.0595 39.015C69.6941 39.015 69.349 39.0827 69.0242 39.218C68.7062 39.3534 68.4253 39.5429 68.1817 39.7865C67.9449 40.0233 67.7588 40.3041 67.6235 40.6289C67.4881 40.947 67.4205 41.2887 67.4205 41.6541C67.4205 42.0195 67.4881 42.3647 67.6235 42.6895C67.7588 43.0075 67.9449 43.2883 68.1817 43.532C68.4253 43.7688 68.7062 43.9549 69.0242 44.0902C69.349 44.2256 69.6941 44.2932 70.0595 44.2932C70.4317 44.2932 70.7565 44.2357 71.034 44.1207C71.3114 43.9989 71.5415 43.8703 71.7242 43.735C71.9475 43.5726 72.137 43.3865 72.2926 43.1767L73.0032 43.8872Z" fill="#131722"/>
<path d="M73.5119 38.1015H78.8916V39.1673H76.76V45.2068H75.6434V39.1673H73.5119V38.1015Z" fill="#131722"/>
<path d="M80.1128 45.2068V38.1015H82.9549C83.2729 38.1015 83.5605 38.1523 83.8177 38.2538C84.0816 38.3553 84.3083 38.4906 84.4977 38.6598C84.6872 38.8289 84.8327 39.0286 84.9342 39.2586C85.0357 39.482 85.0865 39.7222 85.0865 39.9793C85.0865 40.2432 85.0425 40.4665 84.9545 40.6492C84.8665 40.8252 84.7718 40.9673 84.6703 41.0756C84.5417 41.2109 84.3996 41.3158 84.244 41.3902V41.4105C84.4673 41.5053 84.6669 41.6338 84.8428 41.7962C84.9985 41.9316 85.1372 42.1075 85.259 42.3241C85.3808 42.5406 85.4417 42.8079 85.4417 43.1259C85.4417 43.4034 85.3842 43.6707 85.2692 43.9278C85.1541 44.1782 84.9917 44.3981 84.7819 44.5876C84.5789 44.7771 84.3353 44.9293 84.0511 45.0444C83.7669 45.1526 83.4522 45.2068 83.1071 45.2068H80.1128ZM83.1071 44.2425C83.4658 44.2425 83.7568 44.1308 83.9801 43.9075C84.2101 43.6842 84.3252 43.4068 84.3252 43.0752C84.3252 42.7436 84.2101 42.4662 83.9801 42.2429C83.7568 42.0195 83.4658 41.9079 83.1071 41.9079H81.2293V44.2425H83.1071ZM82.9549 40.9944C83.2594 40.9944 83.503 40.9064 83.6857 40.7304C83.8752 40.5477 83.9699 40.3143 83.9699 40.0301C83.9699 39.7459 83.8752 39.5158 83.6857 39.3398C83.503 39.1571 83.2594 39.0658 82.9549 39.0658H81.2293V40.9944H82.9549Z" fill="#131722"/>
<path d="M86.0983 45.2068L88.9404 38.1015H90.1585L93.0006 45.2068H91.8333L91.1228 43.3797H87.9761L87.2656 45.2068H86.0983ZM90.7167 42.3647L89.5596 39.4414H89.5393L88.3822 42.3647H90.7167Z" fill="#131722"/>
<path d="M58.3221 19.6606C58.2111 19.6606 58.1099 19.6508 58.0185 19.6312C57.9336 19.6181 57.8585 19.6051 57.7932 19.592C57.7149 19.5659 57.6463 19.5398 57.5876 19.5137V18.5344C57.6398 18.554 57.6953 18.5703 57.7541 18.5833C57.8063 18.5964 57.8683 18.6095 57.9401 18.6225C58.012 18.629 58.0903 18.6323 58.1752 18.6323C58.3449 18.6323 58.4951 18.6127 58.6257 18.5735C58.7562 18.5278 58.8705 18.4691 58.9684 18.3973C59.0663 18.3189 59.1545 18.2275 59.2328 18.1231C59.3112 18.0121 59.383 17.888 59.4483 17.7509L59.5952 17.4571L57 12.7075H58.1262L60.124 16.3603H60.1436L61.8476 12.7075H62.9738L60.4276 18.0447C60.3035 18.2993 60.173 18.5278 60.0359 18.7302C59.8988 18.9326 59.7453 19.1024 59.5756 19.2395C59.4058 19.3766 59.2165 19.481 59.0076 19.5529C58.8052 19.6247 58.5767 19.6606 58.3221 19.6606Z" fill="#131722"/>
<path d="M65.7648 19.6606C65.3339 19.6606 64.9585 19.6051 64.6386 19.4941C64.3252 19.3766 64.0608 19.2525 63.8454 19.122C63.5973 18.9653 63.3884 18.7857 63.2186 18.5833L63.9531 17.8489C64.0771 18.0055 64.2273 18.1426 64.4036 18.2602C64.5537 18.3712 64.7398 18.4691 64.9618 18.554C65.1903 18.6388 65.458 18.6813 65.7648 18.6813C66.0129 18.6813 66.2283 18.6519 66.4112 18.5931C66.6005 18.5278 66.7604 18.443 66.891 18.3385C67.0216 18.234 67.1195 18.1133 67.1848 17.9762C67.2501 17.8391 67.2827 17.6987 67.2827 17.5551C67.2827 17.418 67.2501 17.2874 67.1848 17.1633C67.1195 17.0328 67.0216 16.9185 66.891 16.8206C66.7604 16.7161 66.6005 16.6345 66.4112 16.5758C66.2283 16.5105 66.0129 16.4778 65.7648 16.4778H64.8834V15.4496H65.7648C65.9737 15.4496 66.1565 15.4234 66.3132 15.3712C66.4699 15.319 66.6005 15.2504 66.7049 15.1656C66.8159 15.0807 66.8975 14.9827 66.9498 14.8718C67.0085 14.7542 67.0379 14.6335 67.0379 14.5094C67.0379 14.2679 66.9302 14.0557 66.7147 13.8729C66.4993 13.6835 66.1826 13.5889 65.7648 13.5889C65.5102 13.5889 65.2817 13.628 65.0793 13.7064C64.8769 13.7782 64.7072 13.8598 64.5701 13.9512C64.4068 14.0622 64.2665 14.1862 64.1489 14.3233L63.4145 13.5889C63.5842 13.4061 63.7866 13.2428 64.0216 13.0992C64.224 12.9752 64.4689 12.8642 64.7561 12.7662C65.0499 12.6618 65.3861 12.6096 65.7648 12.6096C66.1435 12.6096 66.4797 12.6585 66.7735 12.7565C67.0673 12.8544 67.3121 12.985 67.508 13.1482C67.7104 13.3114 67.8605 13.504 67.9585 13.726C68.0629 13.9414 68.1151 14.1732 68.1151 14.4213C68.1151 14.702 68.0597 14.937 67.9487 15.1264C67.8377 15.3157 67.7169 15.4724 67.5863 15.5964C67.4296 15.7335 67.2534 15.8445 67.0575 15.9294V15.949C67.2991 16.0339 67.5178 16.1514 67.7136 16.3015C67.8768 16.4321 68.0237 16.6019 68.1543 16.8108C68.2914 17.0197 68.36 17.2841 68.36 17.604C68.36 17.8717 68.3012 18.1296 68.1837 18.3777C68.0662 18.6258 67.8932 18.8445 67.6647 19.0338C67.4427 19.2232 67.1717 19.3766 66.8518 19.4941C66.5319 19.6051 66.1696 19.6606 65.7648 19.6606Z" fill="#131722"/>
<path d="M74.6738 12.7075V13.7358H70.9035V15.4985H73.8904V16.5268H70.9035V18.5344H74.7718V19.5626H69.8263V12.7075H74.6738Z" fill="#131722"/>
<path d="M77.2728 12.7075V17.7509L81.0432 12.7075H82.0225V19.5626H80.9452V14.5192L77.1749 19.5626H76.1956V12.7075H77.2728ZM78.399 10.4551C78.399 10.6509 78.4643 10.8142 78.5949 10.9447C78.7255 11.0753 78.8887 11.1406 79.0845 11.1406C79.2804 11.1406 79.4436 11.0753 79.5742 10.9447C79.7048 10.8142 79.7701 10.6509 79.7701 10.4551H80.5045C80.5045 10.6509 80.4686 10.8337 80.3968 11.0035C80.3315 11.1667 80.2336 11.3103 80.103 11.4344C79.979 11.5584 79.8288 11.6564 79.6525 11.7282C79.4828 11.7935 79.2935 11.8261 79.0845 11.8261C78.8756 11.8261 78.683 11.7935 78.5068 11.7282C78.337 11.6564 78.1868 11.5584 78.0563 11.4344C77.9322 11.3103 77.8343 11.1667 77.7625 11.0035C77.6972 10.8337 77.6645 10.6509 77.6645 10.4551H78.399Z" fill="#131722"/>
<path d="M48.6478 12.4619L51.5017 16.1235L54.3555 12.4619H55.4325V20.0004H54.2478V14.4542L51.5017 17.9542L48.7555 14.4542V20.0004H47.5709V12.4619H48.6478Z" fill="#131722"/>
<g clip-path="url(#clip0_905_3713)">
<path d="M7.83429 37.9175C7.50881 37.7639 7.52983 37.4247 7.42469 37.1532C7.36526 36.9978 7.30858 36.8406 7.25098 36.6843C7.28023 36.4603 7.45029 36.5161 7.59383 36.5069C7.87543 36.4886 8.16618 36.5508 8.43772 36.4274C8.69542 36.4252 8.95129 36.3839 9.19658 36.3049C9.2406 36.3159 9.28647 36.3174 9.33111 36.3092C9.37574 36.301 9.4181 36.2833 9.45532 36.2573C11.0124 35.9275 12.5454 35.4932 14.0441 34.9574C17.085 34.0103 20.0665 32.9023 23.0041 31.6663C24.2302 31.2193 25.4306 30.7064 26.6174 30.1661C27.5792 29.7283 28.5767 29.3653 29.4901 28.8241C29.8293 28.7446 30.0981 28.5161 30.4144 28.389C31.0005 28.2683 31.4613 27.8917 31.9687 27.6192C32.5081 27.3304 33.0786 27.0872 33.5148 26.6347L33.5102 26.6401C33.6574 26.6274 33.7543 26.524 33.8649 26.4454H33.8713C33.9628 26.4244 33.9682 26.3494 33.9847 26.279C34.2663 26.3138 34.3001 25.9134 34.5762 25.9408C34.6545 26.2014 34.7489 26.457 34.8588 26.706C35.1038 27.185 34.9694 27.5406 34.558 27.8322C33.8476 28.3469 33.0786 28.7656 32.3216 29.2035L28.9543 30.8326C28.9113 30.8756 28.8757 30.9395 28.8236 30.9578C27.8791 31.2814 26.9822 31.7193 26.0661 32.1106C24.9214 32.5988 23.773 33.0787 22.6265 33.5614C22.2197 33.6272 21.843 33.7881 21.4608 33.9326C19.1952 34.7846 16.9351 35.6512 14.6274 36.3881C14.0002 36.5892 13.3547 36.7428 12.7605 37.0408C12.5187 37.0594 12.2801 37.1076 12.0501 37.1843C10.8996 37.5111 9.72974 37.7654 8.54743 37.9458L7.83429 37.9175Z" fill="#0D4135"/>
<path d="M13.32 17.3022C12.8894 16.8013 12.6069 16.2052 12.2329 15.664C12.0172 15.3541 11.8672 15.0241 11.5015 14.8047C10.9776 14.493 11.0508 13.9088 11.6112 13.662C13.0584 13.0343 14.5456 12.5029 16.0629 12.0713C16.627 11.9086 16.7943 12.0192 16.9442 12.4571C16.872 12.4571 16.8967 12.2578 16.7696 12.3721C16.328 12.2925 16.0967 12.6033 15.9788 12.9206C15.7959 13.4161 15.3772 13.5605 14.973 13.7607C14.7984 13.8521 14.4053 13.7698 14.4793 14.0112C14.5461 14.2306 14.8642 13.9874 15.07 13.9572C15.4183 13.9061 15.6551 13.9307 15.7008 14.3705C15.7886 15.1475 15.8581 15.931 16.136 16.6778C16.1837 16.8101 16.2008 16.9514 16.1861 17.0912C16.1713 17.231 16.1252 17.3657 16.051 17.4851C15.7904 17.6222 15.5554 17.8197 15.2464 17.8507C14.9721 17.8745 14.707 17.8882 14.429 18.0071C14.1228 18.1378 13.7726 18.04 13.6629 17.6167C13.6477 17.5341 13.6061 17.4587 13.5442 17.402C13.4823 17.3452 13.4036 17.3102 13.32 17.3022Z" fill="#F6DE07"/>
<path d="M32.3207 29.2013C33.0777 28.7607 33.8466 28.342 34.557 27.8301C34.7783 28.3 34.5516 28.7552 34.4885 29.2077C34.3591 30.0818 33.98 30.8998 33.3968 31.5636C33.2139 31.5974 33.1225 31.7528 33.0229 31.8762C32.6571 32.3224 32.1744 32.6542 31.7666 33.0647C31.5225 33.3106 31.2464 33.5218 31.0562 33.8244C30.9979 33.9143 30.9212 33.9909 30.8313 34.0493C30.1566 34.4862 29.512 34.9753 28.744 35.2514C28.3536 35.3913 28.125 35.6829 27.9495 36.0486C27.7664 36.4577 27.5095 36.8296 27.1915 37.1456C26.9922 37.3339 26.845 37.5213 26.8048 37.8294C26.758 38.1013 26.625 38.351 26.4254 38.5415C26.1218 38.856 25.8329 39.1997 25.5275 39.5215C25.3904 39.6678 25.3758 39.8324 25.3666 40.0198C25.3465 40.4449 25.6665 40.8142 25.5495 41.2503C25.5402 41.257 25.5297 41.2619 25.5186 41.2646C25.5074 41.2673 25.4959 41.2677 25.4846 41.2658C25.1883 40.9833 25.181 40.6167 25.1847 40.2465C25.2135 39.9916 25.1651 39.7339 25.0457 39.5069C25.395 39.4365 25.4005 39.0059 25.6949 38.8844C26.0816 38.7262 25.9097 38.526 25.7278 38.3532C25.6482 38.2764 25.4535 38.2746 25.4937 38.1228C25.5897 37.7188 25.3109 37.7892 25.0905 37.7809C24.9238 37.7643 24.7554 37.7836 24.5968 37.8376C24.5609 37.8518 24.5225 37.8583 24.4839 37.8567C24.4453 37.855 24.4076 37.8452 24.3731 37.828C24.3385 37.8107 24.308 37.7864 24.2836 37.7565C24.2591 37.7267 24.2412 37.692 24.2311 37.6548C24.1625 37.4628 24.3381 37.4628 24.4642 37.4089C25.0485 37.1575 25.6263 36.8933 26.2014 36.6272C26.3029 36.5806 26.4446 36.5505 26.4107 36.353C26.298 36.3808 26.1829 36.3986 26.067 36.406C25.9627 36.406 25.8256 36.576 25.757 36.3859C25.7049 36.2415 25.8347 36.1692 25.949 36.1199C26.6201 35.8328 27.2062 35.3721 27.9065 35.1508C28.1497 35.074 28.2722 34.776 28.5712 34.8236C28.4898 34.2513 29.0814 34.4734 29.2834 34.2275C29.3584 34.1361 29.4864 34.0977 29.4325 33.9405C29.3328 33.6498 29.4059 33.5282 29.7296 33.6342C29.8274 33.6662 29.8942 33.5702 29.9563 33.5071C30.269 33.1881 30.6969 33.0354 31.0334 32.7347C31.2546 32.5372 31.3186 32.4056 31.1787 32.1862C31.0974 32.0591 30.9959 31.9192 31.1705 31.857C31.4585 31.7556 31.5765 31.4804 31.8187 31.3268C32.2613 31.0462 32.5438 30.5955 32.7175 30.1009C32.8391 29.7544 32.7248 29.5323 32.3134 29.5524C32.3198 29.4354 32.3207 29.3184 32.3207 29.2013Z" fill="#E4B508"/>
<path d="M11.6917 27.3871C11.9416 27.1108 12.1512 26.8005 12.3143 26.4656L12.3957 26.3577C13.2007 26.2886 13.9881 26.0833 14.7243 25.7507L14.8624 25.7096L14.9758 25.651L14.9675 25.6611C15.0332 25.6688 15.0997 25.6621 15.1625 25.6416C15.2254 25.6211 15.283 25.5872 15.3314 25.5423C17.0686 24.9983 18.7353 24.2816 20.3938 23.542L20.5337 23.4954L20.6252 23.436C20.6962 23.4341 20.7661 23.4177 20.8305 23.3879C20.895 23.358 20.9527 23.3153 21 23.2623C21.0492 23.2693 21.0993 23.263 21.1452 23.2442C21.1912 23.2254 21.2313 23.1948 21.2615 23.1553H21.2706L21.3758 23.0822L21.3703 23.0904C21.4201 23.0979 21.471 23.0916 21.5175 23.0721C21.5639 23.0526 21.6041 23.0206 21.6336 22.9798H21.6409C22.3831 22.7033 23.0854 22.3295 23.7292 21.8682C24.1863 22.0894 24.6919 22.1187 25.1801 22.2156C25.1116 22.3929 24.9644 22.5026 24.8354 22.6288C24.7921 22.6347 24.7511 22.6522 24.717 22.6796C24.6829 22.707 24.6568 22.7431 24.6416 22.7842L22.4546 23.8894C22.4237 23.8889 22.3929 23.8929 22.3632 23.9013C19.6194 25.0724 16.8482 26.1502 14.0313 27.1128L13.9079 27.1613L13.7598 27.185C13.7113 27.1716 13.6601 27.1718 13.6117 27.1855C13.5634 27.1992 13.5197 27.2259 13.4855 27.2628L13.3173 27.3002C12.8373 27.4136 12.3582 27.5279 11.8773 27.6376C11.6423 27.6924 11.5765 27.6065 11.6917 27.3871Z" fill="#A2543D"/>
<path d="M13.5943 20.942C13.3346 20.5023 13.2139 19.9976 13.0457 19.5195C12.9378 19.216 13.1253 18.971 13.4041 18.822C13.683 18.673 13.9957 18.5203 14.291 18.3704C14.9867 18.0376 15.763 17.9033 16.4359 17.512L17.0667 17.3794C17.4206 17.3849 17.7232 17.1874 18.0651 17.1344C18.4071 17.0814 18.642 17.182 18.7774 17.5184C18.9474 17.9362 19.1431 18.3411 19.3259 18.7598C19.1614 18.9911 18.8441 18.9902 18.6603 19.1932L18.4912 19.2846C18.2798 19.3142 18.0786 19.3938 17.9042 19.5168L14.6741 20.6778L13.5943 20.942ZM15.3314 18.833C15.6853 18.7864 15.997 18.7946 16.1854 18.4015C15.8626 18.5084 15.549 18.4975 15.3314 18.833Z" fill="#0D4135"/>
<path d="M20.1616 43.7153H19.8873C19.443 43.5443 18.9675 43.6239 18.5104 43.5388C17.4462 43.3432 16.3499 43.4831 15.2857 43.1777C14.3257 42.8989 13.3831 42.6247 12.5977 41.9655C12.1991 41.6319 12.2192 41.3923 12.6974 41.1958C12.8411 41.1445 12.988 41.1027 13.1371 41.0706C14.003 40.8338 14.9054 40.874 15.7886 40.7195C16.7449 40.5513 17.7369 40.6208 18.6704 40.2624C18.8935 40.1783 19.1577 40.192 19.4228 40.2204C19.8151 40.2615 20.2356 40.3465 20.627 40.1582C20.9177 40.2451 21.2121 40.3237 21.4644 40.5047L21.0832 40.5193C20.7175 40.4142 20.3518 40.5787 19.986 40.5193C19.9614 40.5165 19.9364 40.5194 19.9129 40.5276C19.8895 40.5358 19.8682 40.5492 19.8506 40.5667C19.8331 40.5843 19.8197 40.6056 19.8115 40.629C19.8033 40.6525 19.8004 40.6775 19.8032 40.7021H19.6203C19.5594 40.6101 19.4984 40.6101 19.4375 40.7021H19.1632C19.0414 40.6904 18.9187 40.6925 18.7975 40.7085C18.1099 40.8795 17.4059 40.9718 16.7175 41.1245C16.2366 41.2315 15.7282 41.2589 15.2756 41.4993C14.7399 41.7827 14.7335 41.8604 15.2043 42.2096C15.3693 42.34 15.5546 42.4423 15.7529 42.5122C16.7276 42.8256 17.735 43.0262 18.7554 43.1101C20.1689 43.2363 21.5723 43.4639 22.9977 43.4429H23.4548C23.5463 43.5593 23.6377 43.5593 23.7291 43.4429H24.0034C24.2 43.6156 24.435 43.5105 24.6516 43.5343C25.2258 43.591 25.8119 43.431 26.3796 43.6257C26.3138 43.6568 26.2471 43.7171 26.1812 43.7171C24.4825 43.6751 22.781 43.8232 21.0832 43.6403C20.7744 43.592 20.4585 43.6177 20.1616 43.7153Z" fill="#E4E9EB"/>
<path d="M20.6188 40.1568C20.2274 40.3451 19.8069 40.2601 19.4146 40.219C19.1495 40.1906 18.8853 40.1769 18.6622 40.261C17.7287 40.6157 16.7367 40.5462 15.7804 40.7181C14.9008 40.8726 13.9984 40.8324 13.1289 41.0692C12.9812 41.103 12.8358 41.1463 12.6937 41.199C12.2156 41.3955 12.1954 41.635 12.5941 41.9687C13.3831 42.6251 14.3257 42.8993 15.2866 43.1782C16.3509 43.4835 17.4471 43.3436 18.5113 43.5393C18.9685 43.6234 19.4439 43.5448 19.8882 43.7157C19.7383 43.8757 19.5426 43.8071 19.3698 43.8071C17.3328 43.755 15.3058 43.6069 13.3255 43.0813C12.6516 42.9016 12.0042 42.6342 11.4 42.2859C11.2172 42.179 11.0215 42.0236 11.0215 41.752C11.0215 41.465 11.2345 41.3717 11.4393 41.2684C12.2705 40.8596 13.1796 40.6336 14.1054 40.6057C14.462 40.5901 14.8158 40.5298 15.2263 40.4832C15.0572 40.2766 14.8816 40.3396 14.7335 40.3396C13.6226 40.3341 12.5118 40.3396 11.4 40.3341C11.1998 40.3341 10.9776 40.4027 10.8999 40.0864C10.8578 39.9127 10.686 39.9612 10.568 40.0617C10.3961 40.2089 10.2224 40.1605 10.1493 39.9922C9.98287 39.6101 9.62447 39.4922 9.32001 39.2874C9.16733 39.1841 8.95978 39.0982 8.9223 38.8769C8.88938 38.6831 8.78698 38.717 8.66081 38.7755C8.38104 38.9062 8.31887 38.8011 8.4295 38.5469C8.54927 38.2727 8.41578 38.1977 8.18538 38.2471C7.8855 38.3102 7.8023 38.1867 7.8343 37.918L8.5447 37.9491C8.91956 38.6164 9.39773 39.1713 10.1465 39.4355C10.2078 39.6595 10.3916 39.6183 10.5534 39.6238H10.5488C10.6594 39.9118 10.9145 39.7728 11.1074 39.8067H11.0965C11.3561 40.1257 11.7154 39.9529 12.0309 39.9959C12.1351 40.0334 12.2384 40.0599 12.339 39.9849C12.467 40.1952 12.6818 40.133 12.8702 40.155C13.5714 40.2372 14.2416 39.9666 14.942 39.9895C15.0498 40.1943 15.2492 40.155 15.4247 40.1632C15.9733 40.1879 16.4917 40.0014 17.021 39.8889C17.3374 39.8231 17.651 39.6485 17.9737 39.7344C18.6805 39.9237 19.39 40.0498 20.125 40.016C20.2978 40.0078 20.4981 39.9602 20.6188 40.1568Z" fill="#F5F5F5"/>
<path d="M20.1616 43.7158C20.4558 43.6172 20.769 43.5894 21.0759 43.6344C22.7737 43.8173 24.4752 43.6692 26.174 43.7112C26.2398 43.7112 26.3065 43.6536 26.3724 43.6198H26.9209C27.1431 43.6198 27.3662 43.6335 27.5874 43.6198C27.7456 43.6097 27.9641 43.7112 28.0199 43.4415H28.2028C28.2782 43.509 28.3758 43.5463 28.477 43.5463C28.5782 43.5463 28.6759 43.509 28.7513 43.4415L29.117 43.3501C29.1682 43.3784 29.2204 43.4351 29.2697 43.4324C29.9936 43.3934 30.7073 43.2445 31.3863 42.9908C31.7109 42.8647 31.806 42.5877 31.7676 42.2458C31.699 41.6369 31.3762 41.253 30.7966 41.0674C29.4252 40.6268 27.9961 40.5097 26.5909 40.2657C26.4793 40.2465 26.3166 40.4101 26.2864 40.1587C26.8076 39.8954 27.3324 40.1331 27.8407 40.1907C28.9378 40.3159 30.0414 40.4796 31.1413 40.6258C31.7474 40.7063 32.3618 40.7904 32.9159 41.1259C33.3685 41.4002 33.4718 41.7658 33.4142 42.2412C33.3602 42.6882 33.032 42.8702 32.6654 43.0064C31.8035 43.3213 30.9074 43.533 29.9957 43.6372C27.2254 43.9681 24.446 44.0485 21.661 43.9836C21.1591 43.9672 20.6343 43.9672 20.1616 43.7158Z" fill="#F5F5F5"/>
<path d="M30.9438 23.1428C31.3433 23.2634 31.6825 23.5011 32.0409 23.6968C32.0729 23.7297 32.104 23.7626 32.1323 23.7946C31.9495 24.0743 31.5463 24.1017 31.3963 24.4226L29.0265 25.708C28.8939 25.6979 28.8025 25.7921 28.6919 25.8378C28.1927 26.0435 27.7456 26.3707 27.1998 26.4649C27.2537 26.017 27.7986 25.9722 27.9431 25.5507C27.9925 25.4063 28.0043 25.3679 27.9321 25.2655C27.7666 25.0315 27.5353 24.9547 27.2619 24.973C27.2799 24.9318 27.3066 24.8951 27.3403 24.8654C27.3739 24.8357 27.4136 24.8138 27.4567 24.8011C28.3344 24.4089 29.1426 23.8869 29.9563 23.3832C30.2882 23.1793 30.5643 23.0148 30.9438 23.1428Z" fill="#D3A31F"/>
<path d="M30.9438 23.1432C30.5643 23.0152 30.2882 23.1797 29.9618 23.3809C29.1481 23.8846 28.3399 24.4066 27.4622 24.7987C27.4191 24.8114 27.3794 24.8334 27.3457 24.8631C27.3121 24.8928 27.2854 24.9295 27.2674 24.9706C27.2554 24.9676 27.2429 24.9677 27.231 24.9707C27.219 24.9737 27.208 24.9797 27.1989 24.988C26.9803 24.9295 26.8642 25.19 26.6503 25.1608C26.6411 24.9862 26.9712 24.8563 26.7719 24.6973C26.6485 24.5995 26.4062 24.6415 26.2187 24.6379C26.1712 24.6379 26.1209 24.6991 26.0725 24.7293C25.981 24.796 25.8585 24.8353 25.7936 24.7293C25.7287 24.6232 25.8521 24.5464 25.9271 24.4788C26.0021 24.4111 26.1639 24.3919 26.1383 24.1762C25.7515 24.2868 25.3694 24.3161 25.0859 23.9577C25.5586 23.7136 26.0295 23.4686 26.5031 23.2264C26.568 23.1934 26.6768 23.145 26.7115 23.1724C27.1056 23.4759 27.4347 23.1724 27.8032 23.1176C28.1963 23.0636 28.2009 22.9027 28.1863 22.6285C28.8885 22.5736 29.5669 22.7272 30.2361 22.9027C30.4747 22.9768 30.7774 22.8671 30.9438 23.1432Z" fill="#CACDCA"/>
<path d="M31.4019 24.42C31.5518 24.0992 31.9504 24.0717 32.1379 23.792C32.7632 24.0717 33.214 24.5544 33.6364 25.0718C33.8366 25.3187 33.9353 25.6816 34.3678 25.6734C34.4295 25.6818 34.4857 25.7135 34.525 25.7619C34.5642 25.8103 34.5835 25.8718 34.579 25.9339C34.3047 25.9083 34.2691 26.3078 33.9875 26.2731C33.9006 26.2941 33.8832 26.3645 33.8741 26.4395H33.8677C33.7278 26.4651 33.5267 26.3791 33.5129 26.6342L33.5175 26.6287C33.3657 26.5985 33.2734 26.7082 33.1518 26.7695C32.84 26.9322 32.2686 26.849 32.2659 26.6388C32.2604 26.2182 31.8261 25.8544 32.1141 25.401C32.1616 25.3269 32.1187 25.2337 32.0227 25.1788C31.7109 25.0133 31.5865 24.6915 31.4019 24.42Z" fill="#ABABA8"/>
<path d="M23.7228 21.8673C23.079 22.3286 22.3768 22.7025 21.6345 22.979C21.438 22.6325 21.0247 22.5785 20.7477 22.3271C20.5886 22.1818 20.5923 21.9011 20.3006 21.8618C19.9486 21.8152 19.9111 21.5876 20.0711 21.2987C20.4615 21.0592 20.9159 20.9412 21.2844 20.6588L21.363 20.5811C21.9628 20.9559 22.579 21.2978 23.2035 21.6296C23.3772 21.7229 23.5747 21.7366 23.7228 21.8673Z" fill="#D4DBD7"/>
<path d="M13.5943 20.9419L14.6759 20.6777C14.9913 20.9282 15.4073 20.6503 15.6816 20.8185C15.549 21.4996 14.8807 20.8048 14.5964 21.2866C14.6699 21.308 14.7457 21.3209 14.8222 21.325C15.2894 21.2683 15.1998 21.6568 15.2793 21.9C15.3708 22.1889 15.1742 22.2291 14.9557 22.2474C14.7564 22.2629 14.749 22.4065 14.7984 22.5445C14.8478 22.6825 14.8039 22.7456 14.6732 22.8187C14.5424 22.8919 14.4126 22.9833 14.4117 23.1625C14.0597 23.4184 13.63 23.3563 13.2377 23.4477C13.2204 23.3289 13.1765 23.1734 13.2642 23.1003C13.6217 22.7849 13.4316 22.4302 13.3282 22.1112C13.2057 21.7345 13.1664 21.4182 13.5166 21.1467C13.5641 21.1101 13.5678 21.0123 13.5943 20.9419Z" fill="#DBE0E1"/>
<path d="M26.2855 40.157C26.3138 40.4084 26.4784 40.2484 26.59 40.264C27.9961 40.5081 29.4242 40.6251 30.7957 41.0657C31.3753 41.2486 31.6981 41.6353 31.7666 42.2441C31.805 42.586 31.71 42.863 31.3854 42.9892C30.7072 43.2445 29.9941 43.3952 29.2706 43.4362C29.2213 43.4362 29.1692 43.3823 29.118 43.3539C29.2332 43.2131 29.3922 43.2012 29.5614 43.1629C29.9618 43.0714 30.3605 42.9453 30.5671 42.5394C30.8642 41.9397 30.6082 41.4067 29.8357 41.1791C28.9415 40.9167 28.0254 40.722 27.1111 40.5392C26.9164 40.4998 26.6869 40.3006 26.4711 40.5282C26.2233 40.5876 25.7927 40.3234 25.8311 40.8893L25.7452 40.9807L25.5897 39.9833C25.8549 39.9065 26.0185 40.2375 26.2855 40.157Z" fill="#E4E9EB"/>
<path d="M14.7262 25.7487C13.9898 26.0804 13.2023 26.2847 12.3975 26.353C12.7412 25.5236 13.0165 24.6675 13.2204 23.7932C13.6455 23.8426 14.0057 23.6104 14.3998 23.5254C14.3367 23.7878 14.504 23.8911 14.7088 23.9359C14.7088 24.1397 14.3605 23.9907 14.4574 24.243C14.6019 24.6206 14.5086 25.0091 14.4492 25.3739C14.4044 25.6691 14.5086 25.713 14.7262 25.7487Z" fill="#DBE0E1"/>
<path d="M8.43773 36.4264C8.16344 36.5498 7.87544 36.4877 7.59384 36.506C7.4503 36.5151 7.28024 36.4593 7.25099 36.6833C7.13579 36.6102 7.06173 36.495 7.12756 36.3771C7.4183 35.8441 7.24276 35.28 7.26561 34.7261C7.29121 34.1337 7.36253 33.5586 7.61579 33.0156C7.6295 33.2305 7.80779 33.2899 7.95682 33.3813C8.4359 33.3859 8.3271 33.7826 8.36093 34.0404C8.40939 34.4216 8.2759 34.8147 8.40939 35.1969C8.52831 35.5551 8.57946 35.9324 8.56024 36.3094C8.46882 36.3405 8.35179 36.2582 8.27042 36.3615L8.43773 36.4264Z" fill="#CACDCA"/>
<path d="M7.95681 33.3832C7.80778 33.2918 7.6295 33.2305 7.61578 33.0175C7.7426 32.475 8.00674 31.9742 8.38287 31.5631C9.00367 31.649 9.58058 31.3272 10.1968 31.3702C10.184 31.4131 10.1703 31.4945 10.1584 31.4936C9.6519 31.4826 9.45167 31.9507 9.09784 32.1728C8.90218 32.2962 8.88664 32.5028 8.94058 32.7003C8.99453 32.8978 9.18835 32.8329 9.32733 32.8338C9.94447 32.8338 10.4729 32.4763 11.0745 32.3822C11.2318 32.3575 11.5938 32.4434 11.6679 32.1079C12.0985 32.2377 12.4615 31.8629 12.8857 31.9443C12.755 32.1079 12.4862 32.0604 12.3847 32.2688H12.3756C11.9295 32.2848 11.4945 32.4121 11.1102 32.6391H11.0992C10.654 32.6857 10.2169 32.7643 9.82835 33.0047H9.82195C9.26058 33.087 8.69921 33.1656 8.13876 33.2552C8.0711 33.2689 8.01716 33.3402 7.95681 33.3832Z" fill="#D3A31F"/>
<path d="M17.0686 17.379L16.4378 17.5115L16.4103 17.4814C16.9863 17.0243 16.8099 16.4511 16.67 15.8687C16.5633 15.4041 16.4812 14.9342 16.424 14.4609C16.3792 14.1217 16.424 13.7597 16.0666 13.5467C15.9815 13.4964 15.9669 13.4014 16.0428 13.3685C16.4844 13.1765 16.371 12.585 16.7742 12.3711C16.9013 12.2568 16.8766 12.4579 16.9488 12.4561C16.9578 12.4612 16.9648 12.469 16.9689 12.4784C16.973 12.4878 16.974 12.4982 16.9717 12.5082C16.9973 12.5759 17.022 12.6435 17.0476 12.7102C17.0878 12.8382 17.0019 12.9324 16.9562 13.0366C17.0567 14.0623 17.1491 15.088 17.2615 16.1119C17.3082 16.5544 17.3429 16.9877 17.0686 17.379Z" fill="#E4BD10"/>
<path d="M25.5897 39.9827L25.7406 40.9737C25.7342 41.1209 25.7269 41.268 25.7205 41.4143L25.5531 41.2479C25.6665 40.8119 25.3465 40.4425 25.3703 40.0174C25.3794 39.83 25.3941 39.6655 25.5312 39.5192C25.8366 39.1974 26.1255 38.8537 26.429 38.5392C26.6286 38.3487 26.7616 38.099 26.8085 37.8271C26.8487 37.519 26.9913 37.3316 27.1952 37.1433C27.5119 36.8258 27.7673 36.4527 27.9486 36.0426C28.1241 35.6769 28.3527 35.3853 28.7431 35.2454C29.5111 34.9712 30.1557 34.4803 30.8304 34.0433C30.9203 33.9849 30.9969 33.9083 31.0553 33.8184C31.2455 33.5167 31.5216 33.3046 31.7657 33.0587C32.1735 32.6501 32.6526 32.3182 33.0219 31.8703C33.1234 31.7469 33.213 31.5914 33.3959 31.5576C33.405 31.7661 33.2578 31.8904 33.1335 32.0147C32.6827 32.4819 32.253 32.9746 31.699 33.3293C31.5442 33.4231 31.4219 33.5623 31.3488 33.7279C31.1778 34.1109 30.7957 34.2764 30.4629 34.4748C29.9088 34.813 29.3575 35.1613 28.7787 35.4548C28.6359 35.5195 28.5075 35.6124 28.4013 35.7278C28.2951 35.8433 28.2133 35.9789 28.1607 36.1267C27.9993 36.5707 27.7187 36.9616 27.3497 37.2566C27.2471 37.3207 27.1689 37.4172 27.1275 37.5309C26.9277 38.2717 26.4777 38.9205 25.8539 39.3675C25.6729 39.5165 25.4425 39.6792 25.5897 39.9827Z" fill="#D3A31F"/>
<path d="M24.8291 22.6286C24.958 22.5025 25.1034 22.3928 25.1738 22.2154C25.9144 22.2628 26.6576 22.2512 27.3964 22.1807C27.3616 22.4805 27.1166 22.6103 26.9027 22.7365C26.0533 23.2308 25.1742 23.6722 24.2704 24.0584C24.2832 23.992 24.277 23.9233 24.2526 23.8603C24.2282 23.7972 24.1865 23.7423 24.1324 23.7019C23.8224 23.4706 23.9879 23.3362 24.2165 23.1863C24.382 23.082 24.6398 23.0665 24.6343 22.784C24.723 22.7612 24.9205 22.8791 24.8291 22.6286Z" fill="#CACDCA"/>
<path d="M11.6917 27.3878C11.5765 27.6072 11.6423 27.6932 11.8818 27.6383C12.3628 27.5286 12.8418 27.4143 13.3218 27.301C13.8503 27.3074 14.3422 27.6941 14.8999 27.4921C14.8679 27.2544 14.558 27.4719 14.5479 27.2178C14.8222 27.1611 15.133 27.2873 15.3516 27.0441C15.6496 26.7113 15.8361 26.7488 15.9294 27.1959C15.9431 27.2608 16.0208 27.3138 16.0629 27.3723C15.2912 27.7124 14.4748 27.9208 13.6775 28.1859C13.3346 27.9939 12.9982 27.8202 12.6864 28.2444C12.6562 28.2856 12.5429 28.2645 12.4679 28.2737C12.264 28.2993 12.0391 28.2801 11.8636 28.3651C11.688 28.4501 11.5298 28.4903 11.3589 28.3971C11.3392 28.3756 11.3249 28.3497 11.3173 28.3215C11.3097 28.2934 11.3089 28.2638 11.315 28.2353C11.3799 28.0022 11.6021 28.1439 11.7365 28.0671C11.7593 28.0543 11.773 28.0232 11.795 27.9958C11.7164 27.8678 11.6414 27.7389 11.4695 27.7215C11.4988 27.5789 11.4192 27.3659 11.6917 27.3878Z" fill="#D4DBD7"/>
<path d="M10.1941 31.3739C9.57784 31.331 9.0055 31.6482 8.38013 31.5668C8.63338 31.0595 9.04024 30.6609 9.45258 30.3108C9.76619 30.0438 9.8247 29.8162 9.72687 29.4743L10.5653 29.3691C10.6412 29.594 10.6567 29.8957 10.8066 30.0292C11.229 30.3949 10.8222 30.3565 10.6457 30.468C10.387 30.6307 10.0972 30.7816 9.9143 31.0165C9.70584 31.2853 9.98561 31.2789 10.1639 31.2908L10.1941 31.3822V31.3739Z" fill="#CACDCA"/>
<path d="M18.654 19.1931C18.8368 18.9901 19.155 18.9911 19.3196 18.7598C19.9596 18.7771 20.2339 19.1922 20.4634 19.7215C20.5932 20.0259 21.0622 20.0433 21.1747 20.4062C21.1637 20.4601 21.1518 20.5141 21.1408 20.568L20.3445 20.8176C20.3628 20.6658 20.5722 20.4345 20.2229 20.4236C19.9426 20.4113 19.6665 20.3513 19.4064 20.2462C18.942 20.0716 18.8487 19.8806 19.1623 19.5149C19.2135 19.4573 19.3571 19.4646 19.2848 19.332C19.2624 19.2916 19.2266 19.2603 19.1835 19.2436C19.1404 19.2269 19.0928 19.2258 19.049 19.2406C18.9575 19.2607 18.8752 19.2891 18.7884 19.3138L18.654 19.1931Z" fill="#CACDCA"/>
<path d="M24.2704 24.0577C25.1741 23.6716 26.0532 23.2301 26.9026 22.7358C27.1166 22.6096 27.3598 22.4798 27.3963 22.18C27.5792 22.105 27.6999 22.2065 27.8242 22.3262C27.9486 22.446 28.0071 22.6069 28.1899 22.6361C28.2046 22.9104 28.2 23.0713 27.8068 23.1252C27.4411 23.1755 27.1093 23.4836 26.7152 23.1801C26.6804 23.1527 26.5717 23.2011 26.5067 23.234C26.0331 23.4745 25.5623 23.7195 25.0905 23.9654C24.7513 24.0065 24.4816 24.2095 24.1826 24.3448C23.5544 24.5806 22.9405 24.8529 22.344 25.1602C22.1355 25.2023 21.9399 25.322 21.7159 25.2617C22.536 24.7918 23.4201 24.4599 24.2704 24.0577Z" fill="#ABABA8"/>
<path d="M10.5653 29.369L9.72963 29.4742C9.51111 29.1396 9.82563 29.1021 10.0039 28.9878C10.4099 29.0454 10.7902 28.8964 11.1788 28.8516C12.0528 28.7492 12.8675 28.4859 13.6803 28.1852C14.4775 27.921 15.294 27.7116 16.0656 27.3706L16.2329 27.3496L16.3363 27.4566C15.1779 27.974 13.9591 28.3269 12.7623 28.7364C12.3196 28.8393 11.8879 28.9847 11.4732 29.1707C11.3497 29.188 11.2126 29.1515 11.1075 29.2621C11.0782 29.2685 11.048 29.274 11.016 29.2785L10.5653 29.369Z" fill="#ABABA8"/>
<path d="M13.6775 28.1853C12.8647 28.4851 12.0501 28.7493 11.176 28.8517C10.7874 28.8974 10.4071 29.0455 10.0012 28.988C10.4857 28.5574 11.0279 28.1972 11.4695 27.7236C11.6414 27.7419 11.7164 27.8708 11.795 27.9979C11.773 28.0253 11.7593 28.0564 11.7365 28.0692C11.6021 28.1432 11.3799 28.0043 11.315 28.2374C11.3089 28.2659 11.3097 28.2955 11.3173 28.3236C11.3249 28.3518 11.3392 28.3777 11.3589 28.3992C11.5298 28.4906 11.6816 28.4541 11.8636 28.3672C12.0455 28.2804 12.264 28.3023 12.4679 28.2758C12.5429 28.2667 12.6562 28.2877 12.6864 28.2465C12.9982 27.8215 13.3346 27.9979 13.6775 28.1853Z" fill="#CACDCA"/>
<path d="M14.4034 23.5264C14.0094 23.6105 13.6491 23.8436 13.2286 23.7934C13.2286 23.6782 13.2368 23.563 13.2405 23.4478C13.6327 23.3564 14.0633 23.4185 14.4144 23.1626C15.3525 22.9276 16.253 22.5802 17.1499 22.2237C17.2533 22.2164 17.3602 22.103 17.4599 22.2292C17.5239 22.3087 17.4379 22.3535 17.4114 22.412L14.7719 23.3756L14.4848 23.5109C14.4569 23.5101 14.4291 23.5154 14.4034 23.5264Z" fill="#ABABA8"/>
<path d="M16.4341 17.5111C15.7612 17.9024 14.9849 18.0331 14.2892 18.3695C13.9381 18.1794 13.5879 17.9901 13.4096 17.5989C13.3535 17.5097 13.3225 17.4071 13.32 17.3018C13.403 17.3095 13.4812 17.3438 13.543 17.3997C13.6048 17.4556 13.6468 17.5299 13.6629 17.6117C13.7726 18.0349 14.12 18.1327 14.429 18.002C14.7033 17.8832 14.9694 17.8695 15.2464 17.8457C15.5554 17.8192 15.795 17.6217 16.051 17.48L16.4066 17.4727L16.4341 17.5111Z" fill="#E4BD10"/>
<path d="M16.9543 13.0344C17.0009 12.9302 17.0869 12.836 17.0457 12.708C17.1399 12.8534 17.1353 12.9686 16.9543 13.0344Z" fill="#F6DE07"/>
<path d="M21.1408 20.5681C21.1518 20.5141 21.1637 20.4602 21.1746 20.4062C21.2222 20.4087 21.2675 20.4278 21.3024 20.4602C21.3374 20.4926 21.3598 20.5363 21.3657 20.5836L21.2871 20.6613L21.1408 20.5681Z" fill="#D4DBD7"/>
<path d="M32.1387 23.7931C32.1067 23.7611 32.0756 23.7282 32.0473 23.6953C32.0756 23.7301 32.1067 23.763 32.1387 23.7931Z" fill="#ABABA8"/>
<path d="M12.3957 26.3584L12.3143 26.4663L12.3957 26.3584Z" fill="#DBE0E1"/>
<path d="M10.1465 39.435C9.39771 39.1708 8.91953 38.6123 8.54468 37.9486C9.72698 37.7681 10.8968 37.5138 12.0473 37.187C12.2773 37.1103 12.5159 37.0621 12.7577 37.0435C13.2203 37.0819 13.6235 36.8607 14.0532 36.751C14.3138 36.6861 14.6018 36.5425 14.7847 36.8296C15.0718 37.2757 15.4548 37.2986 15.8955 37.166C16.2612 37.0563 16.6212 36.9372 16.9753 36.8086C17.1801 36.7345 17.469 36.7309 17.4955 36.4429C17.522 36.1549 17.2962 36.0279 17.0631 35.9264C17.0338 35.9136 17.0229 35.8606 17.0046 35.8277C17.3063 35.6448 17.6702 35.6668 17.9426 35.5379C19.0709 35.0031 20.2722 34.663 21.4169 34.1867C21.8018 34.0267 22.173 33.7561 22.6219 33.7516C23.5792 33.5349 24.4432 33.0632 25.3648 32.7505C25.704 32.9123 25.9134 32.7313 26.0962 32.4763C26.2727 32.3986 26.4327 32.2706 26.6448 32.2934C26.6695 32.2962 26.6945 32.2934 26.7179 32.2851C26.7414 32.2769 26.7626 32.2636 26.7802 32.246C26.7978 32.2284 26.8112 32.2071 26.8194 32.1837C26.8276 32.1603 26.8304 32.1353 26.8277 32.1106H27.0105C27.0507 32.3382 27.1303 32.2368 27.2437 32.1536C27.5929 31.8985 27.9586 31.8354 28.3408 32.1069C28.1909 32.2706 28.0363 32.4141 27.912 32.5796C27.251 33.4618 26.3915 34.1154 25.4544 34.6602C24.8318 35.0259 24.2786 35.4922 23.5929 35.7627C23.3269 35.867 23.0443 35.8971 22.792 36.0233C22.1877 36.325 21.6034 36.6632 20.9826 36.9375C19.6258 37.5399 18.2151 37.9988 16.7934 38.4276C15.5134 38.8134 14.2389 39.2504 12.8619 39.0675C12.7709 39.0615 12.6803 39.0839 12.6026 39.1317C12.5249 39.1796 12.4641 39.2504 12.4286 39.3345C12.3444 39.5264 12.541 39.5639 12.6818 39.6288C12.8052 39.6846 12.9561 39.7458 12.9918 39.9515L12.339 39.9826C12.2384 40.0576 12.1351 40.0311 12.0308 39.9936C12.019 39.9022 12.0107 39.8181 11.8846 39.8171C11.6222 39.8171 11.3588 39.8089 11.0964 39.8043H11.1074C10.9712 39.5923 10.7636 39.5923 10.5488 39.6215H10.5534C10.5287 39.3207 10.3028 39.4533 10.1465 39.435Z" fill="#F1D104"/>
<path d="M25.3712 32.7515C24.4496 33.0641 23.5856 33.5359 22.6284 33.7525C22.6284 33.6894 22.6284 33.6273 22.6238 33.5642C23.7703 33.0815 24.9186 32.6016 26.0633 32.1134C26.9776 31.7221 27.8764 31.2842 28.8208 30.9606C28.8729 30.9423 28.9122 30.8783 28.9516 30.8354C29.1075 30.8142 29.262 30.7837 29.4142 30.7439C29.8896 30.6525 30.2553 30.2558 30.7637 30.2869C30.7637 31.0886 30.7637 31.0877 31.4951 30.7577C31.525 30.7477 31.5555 30.7397 31.5865 30.7339C32.1351 30.5757 32.3655 30.2073 32.318 29.6497C32.318 29.6186 32.318 29.5875 32.318 29.5583C32.7294 29.5354 32.8437 29.7575 32.7221 30.1068C32.5484 30.6022 32.2649 31.052 31.8233 31.3327C31.581 31.4863 31.4631 31.7614 31.1751 31.8629C31.0005 31.9251 31.102 32.0649 31.1833 32.192C31.3232 32.4114 31.2592 32.5431 31.038 32.7405C30.7015 33.0413 30.2736 33.1976 29.9609 33.513C29.8988 33.5761 29.832 33.6721 29.7342 33.6401C29.4105 33.534 29.3374 33.6556 29.437 33.9463C29.491 34.1036 29.363 34.142 29.288 34.2334C29.086 34.4793 28.4944 34.2571 28.5758 34.8294C28.2786 34.7819 28.1543 35.0799 27.9111 35.1567C27.2108 35.3779 26.6247 35.8387 25.9536 36.1257C25.8393 36.1751 25.7095 36.2473 25.7616 36.3918C25.8302 36.5819 25.9673 36.411 26.0716 36.4119C26.1875 36.4044 26.3025 36.3867 26.4153 36.3588C26.4492 36.5554 26.3074 36.5856 26.206 36.6331C25.629 36.8991 25.0512 37.1633 24.4688 37.4147C24.3426 37.4687 24.1671 37.4687 24.2357 37.6606C24.2458 37.6979 24.2637 37.7325 24.2882 37.7624C24.3126 37.7922 24.3431 37.8166 24.3776 37.8338C24.4122 37.8511 24.4499 37.8609 24.4885 37.8625C24.527 37.8642 24.5655 37.8577 24.6014 37.8435C24.76 37.7895 24.9284 37.7701 25.0951 37.7868C25.3118 37.795 25.5943 37.7246 25.4983 38.1287C25.4617 38.2805 25.6528 38.2823 25.7324 38.3591C25.9152 38.5319 26.0862 38.7321 25.6994 38.8902C25.405 39.0118 25.3996 39.4387 25.0503 39.5128C25.1697 39.7398 25.2181 39.9975 25.1893 40.2523C24.7925 40.3346 24.3902 40.299 23.9897 40.49C23.6103 40.6729 23.6844 40.8356 23.8297 41.0742C23.9376 41.2506 24.125 41.3859 24.0912 41.6282C23.8544 41.6172 23.8169 41.3366 23.6176 41.2762C23.4348 41.0367 23.4082 40.6363 23.027 40.597C22.6229 40.5504 22.2124 40.5549 21.8046 40.5376L21.4517 40.5111H21.4572C21.2048 40.3282 20.9086 40.2514 20.6197 40.1646C20.499 39.9671 20.2988 40.0147 20.126 40.0229C19.3945 40.0567 18.6814 39.9315 17.9746 39.7413C17.6519 39.6554 17.3346 39.8327 17.022 39.8958C16.4926 40.0046 15.9769 40.1911 15.4256 40.1701C15.2501 40.1618 15.0508 40.2011 14.9429 39.9964C14.9666 39.8135 15.0956 39.7797 15.2428 39.8007C15.6478 39.8565 15.933 39.6453 16.1927 39.382C16.2933 39.2916 16.4067 39.2164 16.5292 39.159C17.0018 38.9003 17.5605 38.9158 18.0368 38.7019C19.4704 38.062 20.9936 37.6597 22.4199 36.9851C23.7465 36.3579 25.0549 35.7052 26.3138 34.9601C27.4302 34.3144 28.4363 33.4947 29.2944 32.5321C29.5998 32.182 29.9948 31.9086 30.2142 31.4835C30.2764 31.3619 30.3586 31.2349 30.2316 31.1078C30.1833 31.0573 30.1179 31.0266 30.0482 31.0219C29.9785 31.0171 29.9095 31.0387 29.8549 31.0822C29.342 31.4232 28.7148 31.3711 28.168 31.5832C27.7749 31.7349 27.3223 31.7761 27.0178 32.1207H26.835C26.8103 32.1179 26.7853 32.1208 26.7619 32.129C26.7384 32.1372 26.7171 32.1506 26.6996 32.1681C26.682 32.1857 26.6686 32.207 26.6604 32.2304C26.6522 32.2539 26.6494 32.2789 26.6521 32.3035C26.4409 32.2807 26.2809 32.4087 26.1036 32.4864C25.9696 32.4757 25.835 32.4938 25.7086 32.5395C25.5823 32.5852 25.4672 32.6575 25.3712 32.7515Z" fill="#E7BB06"/>
<path d="M23.0005 31.6636C20.0666 32.9014 17.0851 34.0094 14.0405 34.9546C13.971 34.8486 13.8476 34.8102 13.7662 34.8806C13.3786 35.2124 13.1088 34.9336 12.7605 34.7307C13.1381 34.6667 13.1381 34.6667 13.4398 34.7718C13.3411 34.1895 13.3484 34.1803 12.8309 34.0295C12.5886 33.9591 12.4652 33.8183 12.4862 33.5724C12.5264 33.1628 12.5328 32.7816 12.0236 32.6536C11.9934 32.394 12.4323 32.5622 12.371 32.2697H12.3802C12.9198 32.2973 13.4485 32.1107 13.8512 31.7504C16.3198 30.9332 18.7472 30.0034 21.182 29.0993C21.2187 29.1005 21.2543 29.1127 21.2839 29.1344C21.3136 29.1561 21.3361 29.1863 21.3484 29.2209C21.4106 29.3891 21.5532 29.4211 21.6538 29.305C21.7754 29.1633 21.715 29.0308 21.5157 28.996C21.56 28.938 21.6183 28.892 21.6851 28.8625C21.7519 28.8329 21.8251 28.8207 21.8979 28.8269C21.9079 28.8945 21.9235 28.9942 22.0048 28.9576C22.0862 28.921 22.0332 28.8507 21.9719 28.8113C22.0954 28.6047 22.312 28.6431 22.5013 28.6084L22.9932 28.6349C22.9909 28.7416 23.0116 28.8475 23.0539 28.9455C23.0961 29.0434 23.159 29.1311 23.2382 29.2026C23.3863 29.3535 23.3818 29.5262 23.3214 29.71C23.23 29.9925 22.8423 30.2128 23.1386 30.5849C23.1504 30.5995 23.0471 30.7302 22.9758 30.7814C22.4812 31.1517 22.4858 31.3994 23.0005 31.6636Z" fill="#E4E9EB"/>
<path d="M23.0005 31.6638C22.4858 31.3996 22.4812 31.1519 22.9767 30.7825C23.0462 30.7314 23.1514 30.5997 23.1395 30.586C22.8442 30.2139 23.2309 29.9936 23.3223 29.7111C23.3827 29.5283 23.3872 29.3546 23.2391 29.2038C23.1599 29.1323 23.097 29.0446 23.0548 28.9466C23.0125 28.8486 22.9918 28.7427 22.9941 28.6361C22.9976 28.5911 23.0161 28.5487 23.0466 28.5156C23.0771 28.4824 23.1179 28.4604 23.1623 28.4532C24.0245 28.179 24.7834 27.6414 25.651 27.4056C26.1603 27.2675 26.5955 26.8781 27.187 26.9796C27.4887 27.0317 27.6853 26.9796 27.593 27.4266C27.5189 27.7822 27.4101 28.1232 27.3086 28.466C27.2803 28.5574 27.1486 28.7092 27.24 28.7403C27.5555 28.8481 27.5143 29.2504 27.8005 29.3583C27.8709 29.3848 27.9322 29.2952 27.9834 29.2815C28.489 29.1416 28.9388 28.8171 29.4874 28.8244C28.5731 29.3656 27.5765 29.7285 26.6147 30.1664C25.427 30.7039 24.2266 31.2168 23.0005 31.6638Z" fill="#DBE0E1"/>
<path d="M31.4018 24.4199C31.5847 24.6942 31.7109 25.0132 32.0181 25.1823C32.1177 25.2372 32.1607 25.3304 32.1095 25.4045C31.8215 25.8616 32.2558 26.2218 32.2613 26.6423C32.2613 26.8526 32.8354 26.9358 33.1472 26.773C33.2661 26.7118 33.3584 26.6021 33.5129 26.6322C33.0768 27.0848 32.5072 27.3279 31.9669 27.6168C31.4567 27.8911 30.9959 28.2659 30.4126 28.3866C30.1803 28.0958 29.864 28.2257 29.6117 28.286C29.1417 28.3966 29.0722 28.0611 29.1874 27.8289C29.4709 27.2575 29.0046 26.6304 29.3803 26.0865C29.4297 26.0161 29.3465 25.9128 29.2359 25.9036C29.1252 25.8945 29.0329 25.8415 29.0338 25.7062L31.4018 24.4199Z" fill="#CACDCA"/>
<path d="M12.0254 32.6605C12.5347 32.7885 12.5283 33.1697 12.488 33.5793C12.4643 33.8225 12.5904 33.9633 12.8327 34.0364C13.3456 34.1872 13.3429 34.1964 13.4416 34.7787C13.1372 34.6717 13.1372 34.6717 12.7623 34.733C13.1125 34.9359 13.3822 35.2148 13.768 34.8829C13.8494 34.8125 13.9728 34.8509 14.0423 34.957C12.5436 35.4928 11.0106 35.9271 9.45353 36.2569C9.43396 36.2416 9.41135 36.2306 9.3872 36.2246C9.36305 36.2187 9.33791 36.2179 9.31344 36.2224C9.28898 36.2269 9.26575 36.2365 9.24529 36.2507C9.22483 36.2648 9.20762 36.2832 9.19479 36.3045C8.9495 36.3835 8.69363 36.4248 8.43593 36.427L8.26862 36.3639C8.34999 36.2606 8.46427 36.3429 8.55844 36.3118C8.98732 36.1044 9.45394 35.9865 9.92987 35.9653C10.3568 35.9479 10.5205 35.6435 10.7664 35.4168C10.7836 35.4063 10.7971 35.3908 10.8053 35.3724C10.8135 35.354 10.8159 35.3336 10.8123 35.3138C10.8086 35.294 10.799 35.2758 10.7848 35.2615C10.7706 35.2473 10.7524 35.2377 10.7326 35.234C10.5918 35.1864 10.3367 35.255 10.408 34.9862C10.4739 34.7421 10.7253 34.9003 10.8816 34.8381C10.9152 34.8187 10.946 34.7947 10.9731 34.7668C10.9447 34.7303 10.931 34.6928 10.9109 34.6891C10.8364 34.6758 10.7608 34.6694 10.6851 34.6699C10.0506 34.6699 9.90884 34.5538 9.93353 33.902C9.94724 33.5619 9.80919 33.3864 9.49284 33.3114C9.60256 33.1643 9.85856 33.2447 9.81833 33.0061H9.82473C10.0213 33.0061 10.2188 33.0217 10.4154 33.0171C10.707 33.0116 10.9639 32.9394 11.0956 32.6377H11.1066L12.0254 32.6605ZM10.0835 33.338L10.0506 33.4129C10.0762 33.4239 10.1063 33.4486 10.1246 33.4413C10.1429 33.4339 10.1484 33.3956 10.1594 33.37L10.0835 33.338Z" fill="#DBE0E1"/>
<path d="M29.032 25.7058C29.032 25.8411 29.1125 25.8887 29.2341 25.9033C29.3557 25.9179 29.4279 26.0185 29.3785 26.0861C28.9991 26.6301 29.47 27.2572 29.1856 27.8285C29.0704 28.0589 29.1399 28.3944 29.6099 28.2856C29.8659 28.2253 30.1785 28.0955 30.4108 28.3862C30.0944 28.5133 29.8256 28.7418 29.4864 28.8213C28.9379 28.8213 28.488 29.1413 27.9824 29.2784C27.9331 29.2922 27.8718 29.3817 27.7996 29.3552C27.5143 29.2474 27.5545 28.8451 27.2391 28.7372C27.1477 28.7062 27.2793 28.5544 27.3077 28.463C27.4119 28.1202 27.518 27.7792 27.592 27.4236C27.6835 26.9756 27.4878 27.0286 27.1861 26.9765C26.5945 26.8751 26.1593 27.2645 25.6501 27.4025C24.7824 27.6384 24.0236 28.1741 23.1614 28.4502C23.1169 28.4574 23.0762 28.4794 23.0457 28.5125C23.0152 28.5457 22.9967 28.5881 22.9932 28.633L22.5013 28.6065C22.8387 28.271 23.3607 28.2975 23.7118 27.9904L24.0007 27.8871C24.0556 27.8944 24.0921 27.8779 24.1013 27.8185L24.094 27.8258C24.1325 27.8346 24.1728 27.8303 24.2086 27.8136C24.2443 27.7968 24.2735 27.7687 24.2915 27.7335C24.6279 27.6073 24.9817 27.5132 25.2972 27.3486C25.9198 27.0241 26.6211 26.8732 27.2016 26.4628C27.7502 26.3713 28.1945 26.0413 28.6937 25.8356C28.808 25.7899 28.8995 25.6958 29.032 25.7058ZM28.9753 26.1711C28.9653 26.0916 28.9031 26.0889 28.8455 26.088C28.7879 26.087 28.7166 26.088 28.7157 26.1693C28.7148 26.2507 28.7852 26.2525 28.8437 26.2525C28.9022 26.2525 28.9635 26.2507 28.9753 26.1702V26.1711Z" fill="#D4DBD7"/>
<path d="M22.6238 33.5635C22.6238 33.6266 22.6238 33.6887 22.6284 33.7518C22.1795 33.7564 21.8055 34.0261 21.4234 34.1869C20.275 34.6632 19.0736 35.0033 17.9491 35.5381C17.6748 35.667 17.3091 35.6487 17.011 35.8279C17.0293 35.8608 17.0403 35.9138 17.0695 35.9266C17.3027 36.0281 17.5267 36.1579 17.502 36.4431C17.4773 36.7284 17.1866 36.7339 16.9818 36.8088C16.6252 36.9368 16.2653 37.056 15.902 37.1663C15.4613 37.2988 15.0791 37.276 14.7911 36.8298C14.6083 36.5428 14.3175 36.6863 14.0597 36.7512C13.63 36.8591 13.2268 37.0822 12.7642 37.0438C13.3584 36.7457 14.0039 36.5922 14.6311 36.391C16.9388 35.6542 19.2026 34.7876 21.4645 33.9355C21.8403 33.7902 22.217 33.6293 22.6238 33.5635Z" fill="#D3A31F"/>
<path d="M30.7637 30.2834C30.2553 30.2559 29.8896 30.649 29.4142 30.7405C29.2619 30.7802 29.1074 30.8108 28.9515 30.8319L32.3207 29.1982C32.3207 29.3153 32.3207 29.4323 32.3207 29.5502C32.3207 29.5804 32.3207 29.6115 32.3207 29.6416C32.1744 29.6489 32.0464 29.4944 31.891 29.5895C31.5131 29.8205 31.1373 30.0518 30.7637 30.2834Z" fill="#D3A31F"/>
<path d="M33.5093 26.6381C33.523 26.383 33.7241 26.469 33.864 26.4434C33.7534 26.522 33.6565 26.6271 33.5093 26.6381Z" fill="#CACDCA"/>
<path d="M9.19659 36.3047C9.20943 36.2834 9.22664 36.2651 9.2471 36.2509C9.26755 36.2368 9.29078 36.2271 9.31525 36.2226C9.33972 36.2181 9.36486 36.2189 9.38901 36.2248C9.41316 36.2308 9.43577 36.2418 9.45534 36.2572C9.41812 36.2831 9.37576 36.3008 9.33113 36.309C9.28649 36.3172 9.24061 36.3157 9.19659 36.3047Z" fill="#CACDCA"/>
<path d="M33.8704 26.4437C33.8796 26.3688 33.8969 26.2984 33.9838 26.2773C33.9673 26.3441 33.9582 26.4191 33.8704 26.4437Z" fill="#CACDCA"/>
<path d="M16.4066 17.4855H16.051C16.1257 17.3656 16.1722 17.2303 16.1869 17.0898C16.2017 16.9493 16.1843 16.8073 16.136 16.6746C15.8581 15.9314 15.7886 15.1479 15.7036 14.3672C15.6578 13.9275 15.4211 13.9028 15.0727 13.954C14.867 13.9842 14.5488 14.2282 14.4821 14.0079C14.408 13.7666 14.8012 13.8461 14.9758 13.7574C15.3772 13.5545 15.7886 13.4128 15.9788 12.9146C16.0967 12.601 16.328 12.2902 16.7696 12.3661C16.3673 12.58 16.4807 13.1714 16.0382 13.3634C15.9623 13.3963 15.9769 13.4914 16.062 13.5417C16.4194 13.7538 16.3746 14.1158 16.4194 14.4559C16.4766 14.9291 16.5587 15.3991 16.6654 15.8637C16.8062 16.4515 16.9826 17.022 16.4066 17.4855Z" fill="#F1D104"/>
<path d="M23.6167 41.2682C23.8169 41.3285 23.8535 41.6092 24.0903 41.6201C24.2466 41.8624 24.3893 42.1284 24.7559 42.0187C24.8092 42.0531 24.8719 42.07 24.9353 42.0673C24.9987 42.0645 25.0596 42.0421 25.1097 42.0032C25.5038 41.8935 25.4754 41.5689 25.4891 41.2636C25.5003 41.2654 25.5117 41.2649 25.5227 41.2623C25.5337 41.2596 25.544 41.2548 25.5531 41.248L25.7205 41.4144C25.7287 41.4903 25.7415 41.5662 25.7433 41.6421C25.7488 41.8158 26.0533 41.9812 25.7817 42.1549C25.6082 42.2672 25.4163 42.3483 25.2149 42.3944C24.3499 42.5773 23.4713 42.4859 22.6064 42.4182C22.1218 42.378 21.6007 42.4648 21.1435 42.197C21.0155 42.1229 20.9086 42.0224 20.9296 41.877C20.9552 41.7106 21.0933 41.6265 21.2597 41.6146C21.8631 41.5744 22.4482 41.3495 23.0626 41.4236C23.2598 41.4383 23.4559 41.3833 23.6167 41.2682Z" fill="#ABABA8"/>
<path d="M24.7559 42.0186C24.3902 42.1283 24.2467 41.8622 24.0903 41.62C24.1242 41.3777 23.9367 41.2424 23.8288 41.066C23.6835 40.8274 23.6094 40.6619 23.9888 40.4818C24.3893 40.2908 24.7916 40.3264 25.1884 40.2441C25.1884 40.6144 25.1884 40.981 25.4883 41.2635C25.4764 41.5688 25.5038 41.8933 25.1098 42.003C24.9939 41.9646 24.868 41.9701 24.7559 42.0186Z" fill="#EDC804"/>
<path d="M14.4035 23.526C14.4291 23.5149 14.4569 23.5096 14.4848 23.5104C14.6073 23.5223 14.7344 23.5433 14.7719 23.3751L17.4069 22.4125C17.8997 22.3119 18.4409 22.3403 18.7975 21.8823C19.0261 21.8969 19.2675 21.8146 19.5116 21.96L19.0142 22.3256C19.2885 22.6858 19.8855 22.4765 20.0382 22.9765C19.8014 22.9765 19.5811 22.9765 19.3598 22.9765C19.2327 22.9765 19.1486 23.0424 19.1715 23.1731C19.208 23.3806 19.2985 23.2572 19.3881 23.2042C19.4607 23.1582 19.5485 23.1425 19.6325 23.1607C19.7164 23.1788 19.7899 23.2292 19.8371 23.3011C19.9824 23.5104 20.1799 23.525 20.392 23.5424C18.7335 24.282 17.0686 24.9987 15.3315 25.5426C15.2007 25.5481 15.0407 25.4649 14.9703 25.6587L14.9785 25.6487L14.8652 25.7072L14.7271 25.7483C14.5095 25.7154 14.4053 25.6688 14.4528 25.3744C14.5123 25.0088 14.6055 24.6211 14.4611 24.2436C14.3641 23.9913 14.7107 24.1403 14.7125 23.9364C14.5086 23.8935 14.3404 23.7929 14.4035 23.526Z" fill="#E4E9EB"/>
<path d="M16.2302 27.3498L16.0629 27.3708C16.0172 27.3132 15.9431 27.2602 15.9294 27.1953C15.838 26.7483 15.6496 26.7108 15.3516 27.0436C15.133 27.2867 14.8213 27.1606 14.5479 27.2172C14.558 27.4714 14.8679 27.2538 14.8999 27.4915C14.3422 27.6935 13.8503 27.3087 13.3218 27.3004L13.4901 27.2639C13.5879 27.2639 13.6912 27.2849 13.7644 27.1853L13.9134 27.1615L14.0359 27.113C16.8528 26.1504 19.624 25.0689 22.3623 23.9006C22.392 23.8922 22.4228 23.8882 22.4537 23.8887C22.1502 24.2544 21.9874 24.7407 21.4032 24.8395C21.2469 24.8651 20.8546 25.0552 20.99 25.4383C20.2108 25.826 19.4069 26.1619 18.5836 26.4439C18.0496 26.634 17.5468 26.9229 16.9708 26.9924C16.7513 26.9101 16.5484 26.6788 16.2585 26.9073C16.381 27.0198 16.6032 26.9576 16.6014 27.1688L16.2302 27.3498Z" fill="#DBE0E1"/>
<path d="M20.392 23.5422C20.1799 23.5249 19.9824 23.5102 19.8371 23.3009C19.7899 23.229 19.7165 23.1786 19.6325 23.1605C19.5485 23.1424 19.4607 23.158 19.3882 23.204C19.2967 23.257 19.2053 23.3804 19.1715 23.1729C19.1486 23.0422 19.2327 22.9773 19.3598 22.9763C19.5811 22.9763 19.8014 22.9763 20.0382 22.9763C19.8855 22.4763 19.2876 22.6856 19.0142 22.3255L19.5116 21.9598C19.2675 21.8144 19.0261 21.8967 18.7975 21.8821L18.7866 21.8684C18.9603 21.6718 19.2656 21.7258 19.4366 21.5246C19.6294 21.4046 19.8458 21.3276 20.0711 21.2988C19.9111 21.5841 19.9486 21.8153 20.3006 21.862C20.5923 21.9013 20.5886 22.1819 20.7477 22.3273C21.022 22.5787 21.438 22.6326 21.6346 22.9791H21.6272C21.523 22.9791 21.4069 22.9462 21.3639 23.0897L21.3694 23.0815L21.2643 23.1546H21.2551C21.1527 23.1546 21.0412 23.1299 20.9936 23.2616C20.8419 23.2616 20.6471 23.1702 20.6224 23.4362L20.531 23.4956L20.392 23.5422Z" fill="#DBE0E1"/>
<path d="M20.9835 25.4382C20.851 25.0552 21.2405 24.865 21.3968 24.8394C21.981 24.7407 22.1438 24.2507 22.4473 23.8887L24.6343 22.7871C24.6398 23.0696 24.3819 23.0851 24.2164 23.1893C23.9879 23.3347 23.8224 23.4737 24.1323 23.7049C24.1865 23.7454 24.2282 23.8003 24.2526 23.8634C24.277 23.9264 24.2832 23.9951 24.2704 24.0615C23.4201 24.4637 22.5333 24.7928 21.7168 25.2636H21.5339H21.3465L21.2551 25.3496L20.9835 25.4382Z" fill="#D4DBD7"/>
<path d="M20.627 23.4377C20.6517 23.1708 20.8464 23.264 20.9982 23.2631C20.9514 23.3158 20.8943 23.3585 20.8305 23.3885C20.7667 23.4185 20.6975 23.4352 20.627 23.4377Z" fill="#D4DBD7"/>
<path d="M24.829 22.6279C24.9205 22.8748 24.723 22.7605 24.6352 22.7834C24.6504 22.7423 24.6764 22.7062 24.7106 22.6788C24.7447 22.6514 24.7857 22.6338 24.829 22.6279Z" fill="#D4DBD7"/>
<path d="M14.9658 25.6586C15.0362 25.4647 15.1962 25.5479 15.3269 25.5424C15.2785 25.5865 15.2212 25.6197 15.1589 25.6397C15.0966 25.6598 15.0308 25.6662 14.9658 25.6586Z" fill="#DBE0E1"/>
<path d="M13.7598 27.1856C13.6912 27.2852 13.5879 27.2669 13.4855 27.2642C13.5196 27.2272 13.5632 27.2003 13.6116 27.1864C13.66 27.1725 13.7112 27.1722 13.7598 27.1856Z" fill="#D4DBD7"/>
<path d="M20.9936 23.2672C21.0411 23.1356 21.1527 23.1575 21.2551 23.1603C21.2249 23.1997 21.1848 23.2304 21.1388 23.2492C21.0929 23.268 21.0427 23.2742 20.9936 23.2672Z" fill="#D4DBD7"/>
<path d="M21.3657 23.0907C21.4087 22.9471 21.5248 22.9773 21.629 22.9801C21.5995 23.0209 21.5594 23.0528 21.5129 23.0723C21.4665 23.0919 21.4155 23.0982 21.3657 23.0907Z" fill="#D4DBD7"/>
<path d="M20.5319 23.496L20.6233 23.4365L20.5319 23.496Z" fill="#D4DBD7"/>
<path d="M14.0313 27.1133L13.9088 27.1617L14.0313 27.1133Z" fill="#D4DBD7"/>
<path d="M21.2642 23.1532L21.3694 23.0801L21.2642 23.1532Z" fill="#D4DBD7"/>
<path d="M14.8643 25.7069L14.9776 25.6484L14.8643 25.7069Z" fill="#DBE0E1"/>
<path d="M17.1454 22.2245C16.2485 22.5811 15.3479 22.9285 14.4099 23.1634C14.4099 22.9806 14.5525 22.8891 14.6713 22.8197C14.7902 22.7502 14.8542 22.6935 14.7966 22.5454C14.739 22.3973 14.7545 22.2638 14.9539 22.2483C15.1724 22.23 15.3699 22.1898 15.2775 21.9009C15.2007 21.6577 15.2903 21.2692 14.8204 21.3259C14.7439 21.3218 14.6681 21.3089 14.5945 21.2875C14.8789 20.8057 15.5472 21.5005 15.6798 20.8194C15.4055 20.6512 14.9868 20.9291 14.6741 20.6787L17.8979 19.5186C17.8723 19.8842 17.6931 20.0744 17.3145 20.0497C17.0984 20.0462 16.885 20.0991 16.6956 20.2033C17.1308 20.1621 17.3246 20.5424 17.6501 20.7143C17.2313 20.7829 16.8025 20.7719 16.4359 21.0964C16.8583 21.2262 17.2752 21.048 17.6327 21.2098C17.6163 21.3926 17.3731 21.2637 17.3941 21.4612C17.5376 21.5371 17.704 21.5526 17.8211 21.4612C18.1401 21.1979 18.3696 21.3597 18.6073 21.5819L17.8759 21.8881C17.6016 21.9265 17.3337 21.9896 17.1454 22.2245Z" fill="#E4E9EB"/>
<path d="M18.6073 21.5758C18.3733 21.3546 18.1401 21.1927 17.8211 21.456C17.704 21.5474 17.5376 21.5356 17.3941 21.456C17.3731 21.2586 17.6163 21.3829 17.6327 21.2046C17.2752 21.0428 16.8583 21.2211 16.4359 21.0913C16.8016 20.7667 17.2313 20.7777 17.6501 20.7091C17.3246 20.5373 17.1308 20.1606 16.6956 20.1981C16.885 20.094 17.0984 20.041 17.3145 20.0445C17.6931 20.0692 17.8723 19.8763 17.8979 19.5134C18.072 19.3897 18.2733 19.3098 18.4848 19.2803L18.5223 19.3178C18.4821 19.5006 18.7381 19.4604 18.7427 19.6048C18.6247 19.7611 18.4044 19.592 18.291 19.7684C18.3619 19.8959 18.4178 20.0312 18.4574 20.1716C18.5424 20.4395 18.7317 20.7311 18.9868 20.7411C19.3616 20.7548 19.6771 20.9313 20.0291 20.9797C19.7731 21.2001 19.4211 21.2266 19.1504 21.4176L18.6073 21.5758Z" fill="#DBE0E1"/>
<path d="M15.3314 18.8329C15.5509 18.4974 15.8645 18.5083 16.1854 18.4014C15.9952 18.7945 15.6834 18.7863 15.3314 18.8329Z" fill="#D3A31F"/>
<path d="M18.6539 19.1924L18.7883 19.3131H18.5223L18.4848 19.2756L18.6539 19.1924Z" fill="#DBE0E1"/>
<path d="M23.6167 41.2684C23.455 41.3844 23.2574 41.4395 23.059 41.4238C22.4419 41.3498 21.8595 41.5747 21.256 41.6149C21.0896 41.6268 20.9516 41.7109 20.926 41.8773C20.9049 42.0226 21.0119 42.1232 21.1399 42.1972C21.5971 42.4651 22.1219 42.38 22.6028 42.4184C23.4677 42.4897 24.3463 42.5757 25.2112 42.3947C25.4127 42.3485 25.6046 42.2674 25.7781 42.1552C26.0524 41.9815 25.7452 41.816 25.7397 41.6423C25.7397 41.5664 25.7251 41.4906 25.7168 41.4147C25.7232 41.2684 25.7305 41.1212 25.7369 40.974L25.8229 40.8826C26.76 40.8461 27.6112 41.1313 28.4149 41.5847C28.5877 41.6825 28.872 41.7154 28.8281 41.9988C28.7843 42.2822 28.5283 42.4376 28.3097 42.5958C28.2659 42.6278 28.19 42.6122 28.1333 42.6314C27.174 42.9545 26.1656 43.107 25.1536 43.0821C24.4222 43.0593 23.6908 43.0748 22.9657 43.0821C22.8195 43.0821 22.6576 43.0319 22.5379 43.1736H22.2636C22.2471 43.0767 22.2041 42.9999 22.0935 42.998C21.3273 42.9871 20.5804 42.8152 19.8233 42.7238C19.7975 42.7173 19.7705 42.717 19.7445 42.7229C19.7186 42.7287 19.6943 42.7405 19.6737 42.7574C19.6531 42.7743 19.6367 42.7957 19.6259 42.82C19.615 42.8444 19.61 42.8709 19.6112 42.8975H19.4284C19.4119 42.7347 19.2976 42.7146 19.166 42.7146C18.7363 42.721 18.376 42.5099 18.0195 42.317C17.875 42.2384 17.6217 42.1835 17.6428 41.9714C17.6638 41.7593 17.8668 41.6578 18.0515 41.5792C18.9795 41.1834 19.9248 40.8479 20.9406 40.7629C21.107 40.7492 21.0576 40.6184 21.0713 40.5224L21.4526 40.5078H21.4471C21.5385 40.8387 21.6684 40.7062 21.8 40.5343C22.2078 40.5517 22.6229 40.5471 23.0224 40.5937C23.4073 40.6321 23.4329 41.0289 23.6167 41.2684Z" fill="#CACDCA"/>
<path d="M26.4675 40.5223C26.6805 40.2947 26.91 40.494 27.1075 40.5333C28.0218 40.7161 28.936 40.9154 29.832 41.1732C30.6074 41.4009 30.8634 41.9338 30.5635 42.5335C30.3614 42.9394 29.9628 43.0656 29.5578 43.157C29.3923 43.1954 29.2295 43.2073 29.1143 43.3481L28.7486 43.4395C28.5658 43.1332 28.3829 43.3901 28.2 43.4395H28.0172C27.795 43.4395 27.5728 43.4285 27.3516 43.4395C27.1925 43.4495 26.9758 43.3481 26.9182 43.615H26.3696C25.8019 43.4212 25.2158 43.5812 24.6416 43.5236C24.425 43.5026 24.19 43.6077 23.9934 43.4322C24.1342 43.2603 24.328 43.2493 24.5301 43.2493C25.3767 43.2429 26.2215 43.2631 27.0691 43.1689C27.8919 43.0775 28.6736 42.9175 29.3776 42.4677C29.8275 42.1797 29.8275 41.8205 29.353 41.5956C28.4981 41.1915 27.657 40.7353 26.6787 40.6914C26.5616 40.6951 26.4858 40.6503 26.4675 40.5223Z" fill="#DBE0E1"/>
<path d="M19.432 42.893H19.6148C20.4866 43.077 21.3753 43.1689 22.2663 43.1673H22.5406C22.632 43.3565 22.9739 43.1371 22.9977 43.4415C21.5723 43.4626 20.1689 43.2349 18.7554 43.1088C17.735 43.0249 16.7276 42.8243 15.7529 42.5109C15.5546 42.441 15.3693 42.3387 15.2043 42.2083C14.7335 41.8591 14.7399 41.7814 15.2756 41.498C15.7328 41.2576 16.2366 41.2302 16.7175 41.1232C17.4059 40.9705 18.1099 40.8782 18.7975 40.7072C18.9187 40.6912 19.0414 40.6891 19.1632 40.7008C19.1248 40.9486 18.8962 40.9367 18.7408 40.9696C17.9291 41.1382 17.1268 41.3491 16.3371 41.6013C16.1415 41.6635 15.9175 41.6717 15.8937 41.9021C15.8708 42.1178 16.1012 42.1763 16.2594 42.2458C17.2688 42.6874 18.3422 42.8345 19.432 42.893Z" fill="#DBE0E1"/>
<path d="M22.995 43.4424C22.9712 43.1371 22.6293 43.3565 22.5378 43.1682C22.6576 43.0292 22.8194 43.0768 22.9657 43.0768C23.6972 43.0768 24.4286 43.0566 25.1536 43.0768C26.1668 43.1021 27.1765 42.9495 28.1369 42.6261C28.1936 42.6069 28.2695 42.6261 28.3134 42.5904C28.5319 42.4323 28.7888 42.2851 28.8318 41.9935C28.8748 41.7018 28.5913 41.6772 28.4185 41.5793C27.6149 41.1222 26.7637 40.8407 25.8265 40.8772C25.789 40.3114 26.2197 40.5756 26.4665 40.5161C26.4821 40.646 26.558 40.6908 26.6841 40.699C27.6624 40.7429 28.5036 41.199 29.3584 41.6031C29.8329 41.828 29.8329 42.1873 29.3831 42.4752C28.6791 42.925 27.8946 43.085 27.0745 43.1764C26.227 43.2678 25.3822 43.2505 24.5356 43.2569C24.3335 43.2569 24.1397 43.2697 23.9989 43.4397H23.7246C23.6332 43.3221 23.5417 43.3221 23.4503 43.4397L22.995 43.4424Z" fill="#D4DBD7"/>
<path d="M19.432 42.8931C18.3422 42.8346 17.2688 42.6874 16.2585 42.2458C16.1013 42.1773 15.8709 42.1178 15.8928 41.9021C15.9166 41.6717 16.1406 41.6635 16.3362 41.6013C17.1238 41.3496 17.924 41.1391 18.7335 40.9705C18.8889 40.9376 19.1175 40.9495 19.1559 40.7018H19.4302C19.4924 40.7932 19.5527 40.7932 19.613 40.7018H19.7959C19.8206 40.7047 19.8457 40.702 19.8692 40.6939C19.8927 40.6857 19.9141 40.6723 19.9317 40.6547C19.9493 40.6371 19.9627 40.6158 19.9708 40.5922C19.979 40.5687 19.9817 40.5437 19.9788 40.5189C20.3445 40.5775 20.7102 40.4129 21.0759 40.5189C21.0622 40.6149 21.1116 40.7457 20.9452 40.7594C19.9294 40.8444 18.984 41.1799 18.056 41.5757C17.8732 41.6544 17.6674 41.7659 17.6473 41.9679C17.6272 42.1699 17.8796 42.2349 18.024 42.3135C18.3806 42.5064 18.7408 42.7175 19.1705 42.7111C19.3013 42.7093 19.4156 42.7303 19.432 42.8931Z" fill="#D4DBD7"/>
<path d="M23.4521 43.4476C23.5436 43.33 23.635 43.33 23.7264 43.4476C23.635 43.561 23.5436 43.561 23.4521 43.4476Z" fill="#DBE0E1"/>
<path d="M19.9797 40.5225C19.9826 40.5472 19.9799 40.5723 19.9717 40.5958C19.9636 40.6193 19.9502 40.6407 19.9326 40.6583C19.915 40.6759 19.8936 40.6893 19.8701 40.6975C19.8466 40.7056 19.8215 40.7083 19.7968 40.7054C19.794 40.6807 19.7969 40.6557 19.8051 40.6323C19.8133 40.6088 19.8267 40.5875 19.8442 40.57C19.8618 40.5524 19.8831 40.539 19.9065 40.5308C19.93 40.5226 19.955 40.5197 19.9797 40.5225Z" fill="#DBE0E1"/>
<path d="M19.6139 40.6999C19.5527 40.7913 19.4923 40.7913 19.4311 40.6999C19.4914 40.6078 19.5524 40.6078 19.6139 40.6999Z" fill="#DBE0E1"/>
<path d="M27.0169 32.1122C27.3214 31.7675 27.774 31.7264 28.1671 31.5746C28.7157 31.3625 29.341 31.4146 29.854 31.0737C29.9086 31.0301 29.9776 31.0086 30.0473 31.0133C30.117 31.0181 30.1824 31.0487 30.2306 31.0992C30.3577 31.2263 30.2754 31.3534 30.2133 31.475C29.9938 31.9001 29.5989 32.1734 29.2935 32.5235C28.435 33.4843 27.4288 34.302 26.3129 34.9461C25.054 35.6939 23.7456 36.3439 22.419 36.971C20.9927 37.6457 19.4695 38.0452 18.0359 38.6879C17.5596 38.9018 17.0009 38.8862 16.5282 39.145C16.4058 39.2024 16.2924 39.2776 16.1918 39.368C15.9321 39.6313 15.6432 39.8425 15.2418 39.7867C15.0946 39.7657 14.9676 39.8013 14.942 39.9823C14.2453 39.9595 13.5705 40.2301 12.8702 40.1478C12.6818 40.1259 12.467 40.188 12.339 39.9778L12.9918 39.9467C12.9552 39.741 12.8089 39.6798 12.6818 39.624C12.541 39.5591 12.3445 39.5216 12.4286 39.3296C12.4645 39.2445 12.5263 39.1729 12.6053 39.125C12.6842 39.077 12.7763 39.0552 12.8684 39.0627C14.2453 39.2455 15.5198 38.8076 16.7998 38.4228C18.2215 37.994 19.6341 37.5351 20.989 36.9326C21.6062 36.6584 22.1941 36.322 22.7984 36.0185C23.0498 35.8923 23.3333 35.8621 23.5993 35.7579C24.285 35.4837 24.8382 35.0174 25.4608 34.6554C26.398 34.1069 27.2574 33.4569 27.9184 32.5747C28.0428 32.4093 28.1973 32.2657 28.3472 32.1021C27.965 31.8279 27.5993 31.8937 27.2501 32.1487C27.1367 32.2365 27.0572 32.338 27.0169 32.1122Z" fill="#EDC804"/>
<path d="M11.0965 39.8027C11.3589 39.8073 11.6222 39.8146 11.8846 39.8155C12.0108 39.8155 12.019 39.907 12.0309 39.992C11.7155 39.949 11.3562 40.1218 11.0965 39.8027Z" fill="#EDC804"/>
<path d="M10.5488 39.6195C10.7637 39.593 10.9712 39.593 11.1075 39.8024C10.9127 39.7685 10.6595 39.9075 10.5488 39.6195Z" fill="#EDC804"/>
<path d="M10.1465 39.4345C10.3029 39.4527 10.5287 39.3202 10.5534 39.6228C10.3943 39.6155 10.2115 39.6585 10.1465 39.4345Z" fill="#EDC804"/>
<path d="M26.9236 43.6212C26.9812 43.3533 27.1979 43.4557 27.357 43.4457C27.5783 43.4319 27.8004 43.4457 28.0226 43.4457C27.9668 43.7199 27.7483 43.6139 27.5902 43.6239C27.3689 43.6349 27.1458 43.623 26.9236 43.6212Z" fill="#E4E9EB"/>
<path d="M28.2046 43.442C28.3874 43.3908 28.5703 43.1339 28.7532 43.442C28.6777 43.5095 28.5801 43.5468 28.4789 43.5468C28.3777 43.5468 28.28 43.5095 28.2046 43.442Z" fill="#E4E9EB"/>
<path d="M27.2053 26.4622C26.6247 26.8727 25.9253 27.0235 25.3008 27.3481C24.9845 27.5126 24.6307 27.6068 24.2951 27.733C24.211 27.7256 24.1333 27.733 24.0976 27.8289L24.1049 27.8216L24.0044 27.8902L23.7136 27.9981C23.5792 27.9807 23.4531 27.9524 23.3891 27.7613C23.6195 27.6763 24.0291 27.8673 23.9952 27.3956C24.0344 27.3767 24.077 27.3662 24.1205 27.3645C24.424 27.3645 24.6489 27.1223 24.9763 27.1378C24.5612 26.6067 24.062 26.7109 23.6131 26.9129C23.3132 27.0482 23.0828 27.0647 22.8158 26.9129V26.9056C22.9164 26.9001 23.0243 26.9148 23.0837 26.8032C23.358 26.6762 23.6268 26.5537 23.8937 26.4202C24.5081 26.1149 25.1902 25.9512 25.7525 25.5362L25.9152 25.5124L26.0195 25.5334C26.1822 25.5042 26.4025 25.6248 26.4766 25.3597C26.7783 25.3543 27.0901 25.3698 27.1952 24.9868C27.2043 24.9784 27.2154 24.9725 27.2273 24.9695C27.2393 24.9664 27.2518 24.9664 27.2638 24.9694C27.5381 24.9511 27.7685 25.0279 27.934 25.2619C28.0062 25.3643 27.9943 25.4027 27.9449 25.5471C27.8041 25.9695 27.2592 26.0143 27.2053 26.4622Z" fill="#E4B508"/>
<path d="M25.9207 25.5134L25.757 25.5372C25.4626 25.5481 25.1847 25.5152 24.8885 25.6798C24.4116 25.9394 23.8772 26.0752 23.3342 26.0747C23.2071 26.0747 23.0599 26.1305 22.9447 25.9979C23.1778 25.6871 23.5472 25.5646 23.8224 25.3351C24.0976 25.1057 23.9093 24.6267 24.1836 24.3433C24.4825 24.208 24.7522 24.005 25.0914 23.9639C25.374 24.3222 25.7561 24.293 26.1429 24.1824C26.1685 24.3981 26.014 24.41 25.9317 24.485C25.8494 24.5599 25.7269 24.6212 25.7982 24.7354C25.8695 24.8497 25.981 24.7994 26.077 24.7354C26.1255 24.7016 26.1758 24.6394 26.2233 24.644C26.4117 24.644 26.653 24.6056 26.7765 24.7034C26.9758 24.8625 26.6457 24.9923 26.6549 25.1669L26.4994 25.1925C26.376 25.1678 26.2983 25.2072 26.2882 25.3425L26.067 25.3799C25.9628 25.3626 25.9289 25.4247 25.9207 25.5134Z" fill="#D4DBD7"/>
<path d="M26.4995 25.1865L26.6549 25.1609C26.8643 25.1901 26.9804 24.9296 27.2035 24.9881C27.0983 25.3712 26.7866 25.3538 26.4848 25.3611L26.4693 25.3447C26.4757 25.2925 26.4858 25.2395 26.4995 25.1865Z" fill="#D3A31F"/>
<path d="M19.1504 21.4212C19.4247 21.2302 19.773 21.2037 20.029 20.9833C20.1652 20.9833 20.2558 20.9047 20.3444 20.817L21.1408 20.5674L21.2843 20.6588C20.9186 20.9395 20.4615 21.0574 20.0711 21.2987C19.8458 21.3275 19.6294 21.4045 19.4366 21.5245C19.3415 21.4898 19.2071 21.562 19.1504 21.4212Z" fill="#0D4135"/>
<path d="M9.81919 33.0078C9.85668 33.2464 9.60342 33.166 9.49371 33.3131C9.81005 33.3881 9.95085 33.5636 9.93439 33.9037C9.90971 34.5555 10.0514 34.6753 10.6859 34.6716C10.7616 34.6711 10.8372 34.6776 10.9118 34.6908C10.9319 34.6908 10.9456 34.732 10.9739 34.7685C10.9469 34.7964 10.9161 34.8204 10.8825 34.8398C10.7262 34.902 10.4747 34.7438 10.4089 34.9879C10.3376 35.2567 10.5918 35.1881 10.7335 35.2357C10.7533 35.2394 10.7715 35.249 10.7857 35.2632C10.7999 35.2775 10.8095 35.2957 10.8131 35.3155C10.8168 35.3353 10.8144 35.3557 10.8062 35.3741C10.798 35.3925 10.7845 35.408 10.7673 35.4185C10.5214 35.6471 10.3577 35.9515 9.93073 35.967C9.45636 35.9888 8.99135 36.1067 8.56388 36.3135C8.5831 35.9365 8.53194 35.5592 8.41302 35.2009C8.27953 34.8188 8.41302 34.4257 8.36456 34.0445C8.33073 33.7867 8.43953 33.3899 7.96045 33.3854C8.01988 33.3424 8.07473 33.2711 8.14331 33.2601C8.69645 33.1687 9.25782 33.0901 9.81919 33.0078Z" fill="#D4DBD7"/>
<path d="M22.8158 26.9144C23.0828 27.0625 23.3132 27.046 23.613 26.9144C24.0583 26.7124 24.5612 26.6081 24.9762 27.1393C24.6489 27.1237 24.4277 27.3633 24.1205 27.366C24.077 27.3676 24.0344 27.3782 23.9952 27.3971C24.0318 27.867 23.6194 27.6759 23.389 27.7628C23.453 27.9538 23.5792 27.9822 23.7136 27.9995C23.3625 28.3067 22.8405 28.2802 22.5031 28.6157C22.3138 28.6504 22.0972 28.6157 21.9737 28.8186C21.9615 28.8122 21.9474 28.8103 21.9339 28.8131C21.9204 28.8159 21.9083 28.8234 21.8997 28.8342C21.8269 28.828 21.7537 28.8402 21.6869 28.8697C21.6201 28.8993 21.5618 28.9452 21.5175 29.0033C21.3977 29.0115 21.2633 28.9704 21.1838 29.1066C18.749 30.0144 16.3216 30.9441 13.854 31.7577H13.5943C13.373 31.8043 13.0796 31.595 12.9433 31.9406C12.9359 31.9488 12.926 31.9544 12.9151 31.9566C12.9043 31.9587 12.893 31.9573 12.883 31.9524C12.4588 31.8711 12.0958 32.2459 11.6652 32.1161C11.4823 32.1042 11.2702 32.1079 11.23 31.8885C11.1989 31.7239 11.3488 31.6252 11.5042 31.5785C11.635 31.5383 11.8517 31.6124 11.8316 31.3765C11.816 31.1854 11.6697 31.0675 11.4823 31.0172C11.582 30.9121 11.6935 30.8344 11.848 30.8646C11.8484 30.8941 11.8568 30.9229 11.8722 30.948C11.8877 30.9732 11.9096 30.9936 11.9358 31.0073C11.9619 31.021 11.9913 31.0273 12.0207 31.0257C12.0502 31.0241 12.0786 31.0145 12.1031 30.998C12.1945 30.9441 12.04 30.9066 12.0318 30.8481C12.0894 30.8371 12.1441 30.8145 12.1927 30.7817C12.2413 30.7488 12.2827 30.7064 12.3143 30.657L12.488 30.6296C12.5594 30.6493 12.6352 30.645 12.7039 30.6174C12.7726 30.5899 12.8304 30.5405 12.8684 30.477L13.0366 30.4541C13.1362 30.4632 13.2414 30.4934 13.3036 30.3755C13.5358 30.3106 13.7717 30.2566 13.9993 30.178C14.7381 29.9202 15.4695 29.6396 16.2119 29.3927C17.5056 28.964 18.7719 28.4722 20.0519 27.9931C20.9772 27.6439 21.8649 27.1978 22.8158 26.9144Z" fill="#E4BD10"/>
<path d="M11.4796 31.0146C11.667 31.0649 11.8133 31.1829 11.8288 31.3739C11.8489 31.6098 11.6322 31.5357 11.5015 31.576C11.3488 31.6226 11.1989 31.7213 11.2272 31.8859C11.2674 32.1053 11.4823 32.1016 11.6624 32.1135C11.5884 32.4481 11.2263 32.3621 11.069 32.3877C10.4674 32.4792 9.93898 32.8448 9.32184 32.8393C9.18287 32.8393 8.99178 32.9107 8.9351 32.7059C8.87841 32.5011 8.8967 32.3018 9.09235 32.1784C9.44618 31.9553 9.64641 31.4882 10.1529 31.4992C10.1648 31.4992 10.1785 31.4187 10.1913 31.3757C10.3742 31.3291 10.6348 31.5238 10.7399 31.2139C10.8734 31.1691 11.0389 31.1847 11.1129 31.022L11.4796 31.0146Z" fill="#E4B508"/>
<path d="M13.5943 31.7539H13.854C13.4508 32.1141 12.9219 32.3007 12.382 32.2732C12.4834 32.0638 12.7477 32.1114 12.883 31.9477C12.893 31.9526 12.9043 31.954 12.9151 31.9519C12.926 31.9497 12.9359 31.9441 12.9433 31.9359C13.0585 31.9528 13.176 31.9454 13.2881 31.914C13.4003 31.8827 13.5046 31.8281 13.5943 31.7539Z" fill="#D4DBD7"/>
<path d="M11.0965 32.6436C10.9676 32.9453 10.7079 33.0175 10.4163 33.023C10.2197 33.023 10.0222 33.0166 9.82562 33.012C10.2115 32.7688 10.6512 32.6902 11.0965 32.6436Z" fill="#D4DBD7"/>
<path d="M12.0254 32.6604L11.1111 32.6476C11.4954 32.4206 11.9304 32.2933 12.3765 32.2773C12.4341 32.5635 11.9952 32.3989 12.0254 32.6604Z" fill="#D4DBD7"/>
<path d="M11.4796 31.0146L11.1194 31.021C10.9564 31.032 10.799 31.0845 10.6622 31.1737L10.1639 31.2889C9.98564 31.2797 9.70679 31.2889 9.91433 31.0146C10.0972 30.7824 10.387 30.6316 10.6458 30.4661C10.8222 30.3546 11.2291 30.3939 10.8067 30.0273C10.6522 29.8938 10.6412 29.5921 10.5653 29.3673L11.0224 29.2758C11.0654 29.3462 11.0938 29.3325 11.1139 29.2594C11.2144 29.1515 11.3516 29.1881 11.4796 29.168C11.7063 29.4422 11.8298 29.7576 12.3637 29.5949C12.8055 29.4594 13.2689 29.4082 13.7296 29.4441C13.1299 29.9542 12.435 30.276 11.6926 30.5411C11.8828 30.8363 12.126 30.6014 12.3244 30.6553C12.2923 30.7044 12.2505 30.7464 12.2016 30.7788C12.1527 30.8112 12.0977 30.8332 12.04 30.8437L11.8572 30.8601C11.6908 30.8318 11.5829 30.9086 11.4796 31.0146Z" fill="#D4DBD7"/>
<path d="M10.1639 31.289L10.6686 31.1729C10.694 31.1887 10.7209 31.2019 10.749 31.2122C10.6402 31.5221 10.3833 31.3274 10.2005 31.374L10.1639 31.289Z" fill="#D3A31F"/>
<path d="M20.3445 20.8173C20.2531 20.9087 20.1616 20.9882 20.0291 20.9836C19.6771 20.9352 19.3616 20.7587 18.9868 20.745C18.7299 20.735 18.5424 20.4434 18.4574 20.1755C18.4179 20.0345 18.3621 19.8986 18.291 19.7705C18.4044 19.5941 18.6247 19.7632 18.7427 19.6069C18.7427 19.4624 18.4821 19.499 18.5223 19.3198H18.7884C18.8752 19.2951 18.9612 19.2668 19.049 19.2467C19.0928 19.2319 19.1404 19.233 19.1835 19.2497C19.2266 19.2664 19.2624 19.2977 19.2848 19.3381C19.3571 19.4716 19.2135 19.4643 19.1623 19.5209C18.8487 19.8793 18.942 20.0695 19.4064 20.2523C19.6665 20.3574 19.9426 20.4173 20.2229 20.4296C20.5722 20.4342 20.36 20.6655 20.3445 20.8173Z" fill="#D4DBD7"/>
<path d="M12.3143 30.657C12.1159 30.603 11.8727 30.8398 11.6825 30.5427C12.4249 30.2776 13.1198 29.9558 13.7195 29.4457C13.2588 29.4098 12.7954 29.461 12.3536 29.5965C11.8197 29.7592 11.6962 29.4429 11.4695 29.1696C11.8842 28.9837 12.3159 28.8382 12.7586 28.7353C12.7586 28.8898 12.7943 28.9886 12.9808 29.0096C13.6043 29.0681 14.1931 28.9182 14.771 28.7216C15.2839 28.5498 15.7931 28.3715 16.3253 28.2801C16.5297 28.234 16.7305 28.1728 16.9259 28.0973C17.6574 27.8623 18.2919 27.3403 19.1083 27.3659C19.1616 27.3727 19.2156 27.3615 19.2617 27.334C19.3078 27.3065 19.3433 27.2643 19.3625 27.2142C19.5271 26.7955 19.7977 26.7571 20.1515 26.9792C20.1646 26.9869 20.1793 26.9915 20.1945 26.9925C20.2096 26.9935 20.2248 26.991 20.2389 26.9852C20.2529 26.9793 20.2653 26.9703 20.2753 26.9588C20.2852 26.9473 20.2923 26.9336 20.296 26.9189C20.3435 26.8275 19.8187 26.7662 20.3161 26.6062C20.7129 26.4782 21.3072 26.4636 21.3803 25.8136C21.394 25.6893 21.5632 25.6262 21.7223 25.6802C22.0514 25.7953 22.2708 25.5503 22.4756 25.3904C22.7353 25.192 22.4811 25.1892 22.3431 25.1664C22.94 24.8559 23.5545 24.5806 24.1835 24.3418C23.9092 24.6252 24.0866 25.1152 23.8224 25.3337C23.5582 25.5522 23.1778 25.6856 22.9447 25.9965C23.0635 26.129 23.2071 26.0733 23.3342 26.0733C23.8771 26.0737 24.4116 25.9379 24.8884 25.6783C25.1847 25.5138 25.4626 25.5467 25.757 25.5357C25.1947 25.9508 24.5127 26.1144 23.8983 26.4197C23.6313 26.5532 23.3588 26.6757 23.0882 26.8028C22.9876 26.8083 22.8752 26.7799 22.8203 26.9052V26.9125C21.8695 27.1959 20.9817 27.6438 20.0555 27.9912C18.781 28.4702 17.5111 28.9621 16.2155 29.3908C15.4731 29.6376 14.7417 29.9183 14.003 30.1761C13.7753 30.2547 13.5394 30.3087 13.3072 30.3736C13.2158 30.3736 13.1088 30.3544 13.0402 30.4522L12.872 30.4741C12.7147 30.4504 12.5749 30.4686 12.4917 30.6277L12.3143 30.657Z" fill="#DBE0E1"/>
<path d="M22.3449 25.1592C22.483 25.182 22.7371 25.1848 22.4775 25.3832C22.2681 25.5431 22.0532 25.7881 21.7241 25.6729C21.5678 25.619 21.3959 25.6821 21.3822 25.8064C21.309 26.4564 20.7147 26.471 20.3179 26.599C19.8206 26.759 20.3454 26.8212 20.2978 26.9117C20.2941 26.9264 20.287 26.94 20.2771 26.9516C20.2672 26.9631 20.2547 26.9721 20.2407 26.978C20.2267 26.9838 20.2115 26.9863 20.1963 26.9853C20.1812 26.9843 20.1665 26.9797 20.1534 26.972C19.7995 26.7544 19.5289 26.7892 19.3643 27.2069C19.3451 27.2571 19.3096 27.2993 19.2635 27.3268C19.2174 27.3543 19.1634 27.3655 19.1102 27.3587C18.2937 27.3358 17.6583 27.8578 16.9278 28.09C16.7323 28.1656 16.5315 28.2267 16.3271 28.2729C15.794 28.3643 15.2848 28.5426 14.7728 28.7144C14.194 28.9128 13.6052 29.0655 12.9817 29.0042C12.7988 28.9859 12.755 28.8872 12.7595 28.73C13.9572 28.3222 15.1751 27.9694 16.3335 27.4501C17.3648 27.1859 18.3248 26.7261 19.3159 26.3531C20.0638 26.0715 20.797 25.7497 21.5367 25.4462C21.6372 25.4188 21.7323 25.385 21.7195 25.2515C21.9408 25.321 22.1364 25.2012 22.3449 25.1592Z" fill="#E4E9EB"/>
<path d="M21.5367 25.4529C20.797 25.7564 20.0638 26.0782 19.3159 26.3598C18.3248 26.7328 17.3648 27.1926 16.3335 27.4568L16.2302 27.3498L16.5959 27.1716C16.6658 27.1697 16.7346 27.1529 16.7976 27.1225C16.8607 27.0921 16.9166 27.0487 16.9616 26.9951C17.5376 26.9257 18.0404 26.6368 18.5744 26.4466C19.3978 26.1647 20.2016 25.8288 20.9808 25.441L21.2551 25.3496L21.3465 25.2637H21.5339L21.5367 25.4529Z" fill="#CACDCA"/>
<path d="M11.1093 29.2578C11.0919 29.331 11.0635 29.3447 11.0178 29.2743C11.0498 29.2697 11.08 29.2642 11.1093 29.2578Z" fill="#DBE0E1"/>
<path d="M17.1454 22.2238C17.3337 21.9888 17.6025 21.9258 17.8768 21.8828C17.7461 22.0657 17.8594 22.0657 18.0039 22.0766C18.2901 22.0977 18.5077 21.8764 18.7838 21.8682L18.7948 21.8819C18.4382 22.339 17.8969 22.3116 17.4041 22.4122C17.4306 22.3537 17.5166 22.3089 17.4526 22.2293C17.3557 22.1031 17.2514 22.2165 17.1454 22.2238Z" fill="#DBE0E1"/>
<path d="M14.7719 23.375C14.7344 23.5432 14.6073 23.5222 14.4848 23.5103L14.7719 23.375Z" fill="#DBE0E1"/>
<path d="M25.3712 32.7522C25.4663 32.6567 25.5809 32.5828 25.7071 32.5354C25.8333 32.4881 25.9682 32.4685 26.1026 32.4779C25.9207 32.732 25.7104 32.9131 25.3712 32.7522Z" fill="#EDC804"/>
<path d="M26.6503 32.2952C26.6476 32.2705 26.6504 32.2455 26.6586 32.2221C26.6668 32.1987 26.6802 32.1774 26.6978 32.1598C26.7153 32.1422 26.7366 32.1288 26.7601 32.1206C26.7835 32.1124 26.8085 32.1096 26.8332 32.1124C26.8359 32.137 26.8331 32.162 26.8249 32.1855C26.8167 32.2089 26.8033 32.2302 26.7857 32.2478C26.7682 32.2653 26.7469 32.2787 26.7234 32.2869C26.7 32.2951 26.675 32.298 26.6503 32.2952Z" fill="#EDC804"/>
<path d="M30.7637 30.2833C31.1373 30.0529 31.5119 29.8231 31.8873 29.594C32.0428 29.5025 32.1708 29.6534 32.317 29.6461C32.3637 30.2037 32.1342 30.5721 31.5856 30.7303C31.5546 30.7361 31.5241 30.7441 31.4942 30.7541C30.7628 31.0832 30.7628 31.0841 30.7637 30.2833Z" fill="#E4B508"/>
<path d="M21.8037 40.5294C21.672 40.7013 21.544 40.8339 21.4507 40.5029L21.8037 40.5294Z" fill="#D4DBD7"/>
<path d="M21.1829 29.1004C21.2624 28.9642 21.3968 29.009 21.5166 28.9971C21.7159 29.0327 21.7762 29.1644 21.6546 29.3061C21.5541 29.4222 21.4114 29.3902 21.3493 29.222C21.337 29.1873 21.3145 29.1572 21.2848 29.1355C21.2551 29.1138 21.2196 29.1016 21.1829 29.1004Z" fill="#DBE0E1"/>
<path d="M21.8997 28.828C21.9083 28.8172 21.9204 28.8098 21.9339 28.8069C21.9474 28.8041 21.9615 28.8061 21.9737 28.8125C22.035 28.8518 22.099 28.9176 22.0066 28.9587C21.9143 28.9999 21.9143 28.8957 21.8997 28.828Z" fill="#DBE0E1"/>
<path d="M10.0835 33.3379L10.1593 33.3699C10.1484 33.3955 10.1429 33.4348 10.1246 33.4412C10.1063 33.4476 10.0761 33.4238 10.0505 33.4129L10.0835 33.3379Z" fill="#D4DBD7"/>
<path d="M28.9753 26.1701C28.9634 26.2497 28.9013 26.2515 28.8437 26.2515C28.786 26.2515 28.7147 26.2469 28.7156 26.1683C28.7166 26.0897 28.787 26.0869 28.8455 26.0869C28.904 26.0869 28.9653 26.0915 28.9753 26.1701Z" fill="#CACDCA"/>
<path d="M24.0958 27.8292C24.1314 27.7378 24.2091 27.7259 24.2933 27.7332C24.2762 27.7693 24.2473 27.7985 24.2114 27.8159C24.1755 27.8334 24.1347 27.8381 24.0958 27.8292Z" fill="#E4BD10"/>
<path d="M24.0025 27.8899L24.1031 27.8213C24.0948 27.8807 24.0574 27.8972 24.0025 27.8899Z" fill="#E4BD10"/>
<path d="M24.7559 42.0193C24.868 41.9709 24.9939 41.9654 25.1097 42.0038C25.0596 42.0427 24.9987 42.0651 24.9353 42.0679C24.8719 42.0707 24.8092 42.0537 24.7559 42.0193Z" fill="#D3A31F"/>
<path d="M16.9644 26.9929C16.9193 27.0465 16.8635 27.0899 16.8004 27.1203C16.7374 27.1507 16.6686 27.1675 16.5987 27.1694C16.5987 26.9582 16.3774 27.0204 16.2549 26.9079C16.542 26.6821 16.7449 26.9134 16.9644 26.9929Z" fill="#D4DBD7"/>
<path d="M18.7866 21.8729C18.5123 21.8811 18.2928 22.1024 18.0067 22.0813C17.8622 22.0704 17.7488 22.0667 17.8796 21.8875L18.611 21.5812L19.1541 21.4258C19.2108 21.5666 19.3452 21.4944 19.4403 21.5291C19.2629 21.7257 18.9603 21.6717 18.7866 21.8729Z" fill="#ABABA8"/>
<path d="M21.5367 25.4527V25.2598H21.7195C21.7314 25.3914 21.64 25.4253 21.5367 25.4527Z" fill="#ABABA8"/>
<path d="M21.3492 25.2559L21.2578 25.3418L21.3492 25.2559Z" fill="#DBE0E1"/>
<path d="M22.2654 43.1669C21.3744 43.1685 20.4857 43.0766 19.6139 42.8927C19.6127 42.8661 19.6177 42.8395 19.6286 42.8152C19.6394 42.7909 19.6558 42.7694 19.6764 42.7526C19.697 42.7357 19.7213 42.7239 19.7473 42.718C19.7732 42.7122 19.8002 42.7125 19.8261 42.7189C20.5831 42.8104 21.3301 42.9804 22.0962 42.9932C22.2059 42.9905 22.2489 43.07 22.2654 43.1669Z" fill="#D4DBD7"/>
<path d="M26.067 25.3734L26.2882 25.3359L26.4647 25.3442L26.4802 25.3606C26.4071 25.6239 26.1867 25.5051 26.0231 25.5343C26.0386 25.4813 26.0523 25.4274 26.067 25.3734Z" fill="#D3A31F"/>
<path d="M22.8204 26.9071C22.8752 26.7818 22.9877 26.8102 23.0883 26.8047C23.0288 26.9162 22.92 26.9016 22.8204 26.9071Z" fill="#E4BD10"/>
<path d="M26.067 25.3733C26.0524 25.4273 26.0387 25.4812 26.024 25.5342L25.9198 25.5132C25.9289 25.4245 25.9628 25.3624 26.067 25.3733Z" fill="#CACDCA"/>
<path d="M26.4647 25.3467L26.2883 25.3385C26.2983 25.2032 26.3797 25.1639 26.4995 25.1886C26.4858 25.2389 26.4757 25.2919 26.4647 25.3467Z" fill="#CACDCA"/>
<path d="M13.5943 31.7533C13.5047 31.8277 13.4004 31.8824 13.2883 31.9139C13.1761 31.9454 13.0586 31.953 12.9434 31.9362C13.0796 31.5906 13.3731 31.7999 13.5943 31.7533Z" fill="#D3A31F"/>
<path d="M11.8471 30.8612L12.03 30.8447C12.0382 30.906 12.1918 30.9407 12.1013 30.9947C12.0768 31.0109 12.0485 31.0203 12.0191 31.0218C11.9898 31.0233 11.9606 31.0169 11.9346 31.0032C11.9087 30.9896 11.8868 30.9692 11.8714 30.9442C11.856 30.9192 11.8476 30.8905 11.8471 30.8612Z" fill="#E4B508"/>
<path d="M12.489 30.6289C12.5722 30.4698 12.712 30.4516 12.8693 30.4753C12.8316 30.5392 12.7739 30.5888 12.7051 30.6166C12.6364 30.6443 12.5604 30.6487 12.489 30.6289Z" fill="#D4DBD7"/>
<path d="M13.0375 30.4532C13.106 30.3554 13.2084 30.3746 13.3044 30.3746C13.2423 30.4925 13.1371 30.466 13.0375 30.4532Z" fill="#D4DBD7"/>
<path d="M10.7463 31.2125C10.7182 31.2022 10.6912 31.189 10.6658 31.1732C10.8026 31.084 10.96 31.0315 11.123 31.0205C11.0453 31.1832 10.8798 31.1677 10.7463 31.2125Z" fill="#CACDCA"/>
</g>
<defs>
<clipPath id="clip0_905_3713">
<rect width="32" height="32" fill="white" transform="translate(5 12)"/>
</clipPath>
</defs>
</svg>
