<svg width="26" height="22" viewBox="0 0 26 22" fill="none" xmlns="http://www.w3.org/2000/svg">
<path d="M25.8 5.7967V17.1999C25.8 18.2608 25.3786 19.2782 24.6284 20.0283C23.8783 20.7785 22.8609 21.1999 21.8 21.1999H4.20001C3.13915 21.1999 2.12173 20.7785 1.37159 20.0283C0.62144 19.2782 0.200012 18.2608 0.200012 17.1999V5.7967L12.5936 13.0895C12.7167 13.1621 12.8571 13.2004 13 13.2004C13.143 13.2004 13.2833 13.1621 13.4064 13.0895L25.8 5.7967ZM21.8 0.399902C22.7842 0.399748 23.734 0.762473 24.4675 1.41869C25.2011 2.0749 25.667 2.97853 25.776 3.9567L13 11.4719L0.224012 3.9567C0.333065 2.97853 0.79893 2.0749 1.53248 1.41869C2.26604 0.762473 3.21578 0.399748 4.20001 0.399902H21.8Z" fill="white"/>
</svg>
