<svg width="32" height="32" viewBox="0 0 32 32" fill="none" xmlns="http://www.w3.org/2000/svg">
<path d="M27.6096 19.6047C27.456 18.5376 26.632 17.7056 25.5712 17.4576C21.448 16.4912 20.4144 14.1168 20.24 11.4832C19.5088 11.3472 18.208 11.2 16 11.2C13.792 11.2 12.4912 11.3472 11.76 11.4832C11.5856 14.1168 10.552 16.4912 6.42878 17.4576C5.36799 17.7072 4.54398 18.5376 4.39038 19.6047L3.59518 25.1119C3.31518 27.0511 4.73918 28.7999 6.71998 28.7999H25.28C27.2592 28.7999 28.6848 27.0511 28.4048 25.1119L27.6096 19.6047ZM16 24.7871C13.768 24.7871 11.9584 22.9951 11.9584 20.7871C11.9584 18.5791 13.768 16.7871 16 16.7871C18.232 16.7871 20.0416 18.5791 20.0416 20.7871C20.0416 22.9951 18.2304 24.7871 16 24.7871ZM31.92 9.59995C31.8816 7.19995 25.7728 3.20155 16 3.19995C6.22558 3.20155 0.116785 7.19995 0.0799848 9.59995C0.0431848 12 0.113585 15.1231 4.13598 14.6032C8.84159 13.9936 8.55198 12.3504 8.55198 10.0016C8.55198 8.36315 12.3792 7.96795 16 7.96795C19.6208 7.96795 23.4464 8.36315 23.448 10.0016C23.448 12.3504 23.1584 13.9936 27.864 14.6032C31.8848 15.1231 31.9568 12 31.92 9.59995Z" fill="#0D4135"/>
</svg>
