<svg width="32" height="26" viewBox="0 0 32 26" fill="none" xmlns="http://www.w3.org/2000/svg">
<path d="M27.6096 16.605C27.456 15.5378 26.632 14.7058 25.5712 14.4578C21.448 13.4914 20.4144 11.117 20.24 8.48339C19.5088 8.34739 18.208 8.20019 16 8.20019C13.792 8.20019 12.4912 8.34739 11.76 8.48339C11.5856 11.117 10.552 13.4914 6.42878 14.4578C5.36799 14.7074 4.54398 15.5378 4.39038 16.605L3.59518 22.1122C3.31518 24.0514 4.73918 25.8002 6.71998 25.8002H25.28C27.2592 25.8002 28.6848 24.0514 28.4048 22.1122L27.6096 16.605ZM16 21.7874C13.768 21.7874 11.9584 19.9954 11.9584 17.7874C11.9584 15.5794 13.768 13.7874 16 13.7874C18.232 13.7874 20.0416 15.5794 20.0416 17.7874C20.0416 19.9954 18.2304 21.7874 16 21.7874ZM31.92 6.60019C31.8816 4.2002 25.7728 0.201795 16 0.200195C6.22558 0.201795 0.116785 4.2002 0.0799848 6.60019C0.0431848 9.00019 0.113585 12.1234 4.13598 11.6034C8.84159 10.9938 8.55198 9.35059 8.55198 7.00179C8.55198 5.36339 12.3792 4.96819 16 4.96819C19.6208 4.96819 23.4464 5.36339 23.448 7.00179C23.448 9.35059 23.1584 10.9938 27.864 11.6034C31.8848 12.1234 31.9568 9.00019 31.92 6.60019Z" fill="white"/>
</svg>
